<svg width="162" height="161" viewBox="0 0 162 161" fill="none" xmlns="http://www.w3.org/2000/svg">
  <path opacity="0.8"
    d="M79.0186 2.12593C80.2467 1.42563 81.7533 1.42563 82.9814 2.12593L149.129 39.845C150.378 40.5567 151.148 41.8831 151.148 43.3198V118.672C151.148 120.109 150.378 121.435 149.129 122.147L82.9814 159.866C81.7533 160.567 80.2467 160.567 79.0186 159.866L12.8705 122.147C11.6225 121.435 10.8519 120.109 10.8519 118.672V43.3198C10.8519 41.8831 11.6225 40.5567 12.8705 39.845L79.0186 2.12593Z"
    fill="#669C95" />
  <path
    d="M79.7627 10.427C80.5297 9.99016 81.4703 9.99016 82.2373 10.427L142.323 44.6488C143.104 45.0934 143.586 45.9228 143.586 46.8212V115.171C143.586 116.069 143.104 116.899 142.323 117.343L82.2373 151.565C81.4703 152.002 80.5297 152.002 79.7627 151.565L19.6769 117.343C18.8962 116.899 18.4141 116.069 18.4141 115.171V46.8212C18.4141 45.9228 18.8962 45.0934 19.6769 44.6488L79.7627 10.427Z"
    fill="#669C95" stroke="white" stroke-width="3" />
  <mask id="path-3-inside-1" fill="white">
    <path fill-rule="evenodd" clip-rule="evenodd"
      d="M80.1276 47.3455C80.3627 47.1212 80.6752 46.9961 81.0001 46.9961C81.325 46.9961 81.6375 47.1212 81.8726 47.3455L96.8456 61.6275V57.9795C96.8456 56.8749 97.741 55.9795 98.8456 55.9795H106.255C107.36 55.9795 108.255 56.8749 108.255 57.9795V72.5108L117.377 81.2111C118.682 82.4567 117.801 84.6583 115.996 84.6583H109.855V112.996C109.855 114.101 108.96 114.996 107.855 114.996H53.135C52.0304 114.996 51.135 114.101 51.135 112.996V84.6583H46.004C44.1994 84.6583 43.3177 82.4567 44.6236 81.2111L80.1276 47.3455Z" />
  </mask>
  <path fill-rule="evenodd" clip-rule="evenodd"
    d="M80.1276 47.3455C80.3627 47.1212 80.6752 46.9961 81.0001 46.9961C81.325 46.9961 81.6375 47.1212 81.8726 47.3455L96.8456 61.6275V57.9795C96.8456 56.8749 97.741 55.9795 98.8456 55.9795H106.255C107.36 55.9795 108.255 56.8749 108.255 57.9795V72.5108L117.377 81.2111C118.682 82.4567 117.801 84.6583 115.996 84.6583H109.855V112.996C109.855 114.101 108.96 114.996 107.855 114.996H53.135C52.0304 114.996 51.135 114.101 51.135 112.996V84.6583H46.004C44.1994 84.6583 43.3177 82.4567 44.6236 81.2111L80.1276 47.3455Z"
    fill="#669C95" />
  <path
    d="M80.1276 47.3455L78.057 45.1747L78.0569 45.1747L80.1276 47.3455ZM81.8726 47.3455L83.9432 45.1747L83.9432 45.1747L81.8726 47.3455ZM96.8456 61.6275L94.7749 63.7983L99.8456 68.635V61.6275H96.8456ZM108.255 72.5108H105.255V73.7952L106.185 74.6816L108.255 72.5108ZM117.377 81.2111L119.447 79.0403V79.0403L117.377 81.2111ZM109.855 84.6583V81.6583H106.855V84.6583H109.855ZM51.135 84.6583H54.135V81.6583H51.135V84.6583ZM44.6236 81.2111L42.553 79.0403L42.553 79.0403L44.6236 81.2111ZM81.0001 43.9961C79.904 43.9961 78.8501 44.4182 78.057 45.1747L82.1982 49.5163C81.8754 49.8243 81.4463 49.9961 81.0001 49.9961V43.9961ZM83.9432 45.1747C83.1501 44.4182 82.0962 43.9961 81.0001 43.9961V49.9961C80.5539 49.9961 80.1248 49.8243 79.802 49.5163L83.9432 45.1747ZM98.9162 59.4567L83.9432 45.1747L79.802 49.5163L94.7749 63.7983L98.9162 59.4567ZM99.8456 61.6275V57.9795H93.8456V61.6275H99.8456ZM99.8456 57.9795C99.8456 58.5318 99.3979 58.9795 98.8456 58.9795V52.9795C96.0842 52.9795 93.8456 55.2181 93.8456 57.9795H99.8456ZM98.8456 58.9795H106.255V52.9795H98.8456V58.9795ZM106.255 58.9795C105.703 58.9795 105.255 58.5318 105.255 57.9795H111.255C111.255 55.2181 109.017 52.9795 106.255 52.9795V58.9795ZM105.255 57.9795V72.5108H111.255V57.9795H105.255ZM119.447 79.0403L110.326 70.34L106.185 74.6816L115.306 83.3819L119.447 79.0403ZM115.996 87.6583C120.508 87.6583 122.712 82.1543 119.447 79.0403L115.306 83.3819C114.653 82.7591 115.094 81.6583 115.996 81.6583V87.6583ZM109.855 87.6583H115.996V81.6583H109.855V87.6583ZM112.855 112.996V84.6583H106.855V112.996H112.855ZM107.855 117.996C110.617 117.996 112.855 115.758 112.855 112.996H106.855C106.855 112.444 107.303 111.996 107.855 111.996V117.996ZM53.135 117.996H107.855V111.996H53.135V117.996ZM48.135 112.996C48.135 115.758 50.3735 117.996 53.135 117.996V111.996C53.6873 111.996 54.135 112.444 54.135 112.996H48.135ZM48.135 84.6583V112.996H54.135V84.6583H48.135ZM46.004 87.6583H51.135V81.6583H46.004V87.6583ZM42.553 79.0403C39.2883 82.1543 41.4924 87.6583 46.004 87.6583V81.6583C46.9064 81.6583 47.3472 82.7591 46.6942 83.3819L42.553 79.0403ZM78.0569 45.1747L42.553 79.0403L46.6942 83.3819L82.1982 49.5163L78.0569 45.1747Z"
    fill="#364859" mask="url(#path-3-inside-1)" />
  <path
    d="M92.5578 84.7746C92.5578 94.6626 80.6715 103.138 80.6715 103.138C80.6715 103.138 68.7852 94.6626 68.7852 84.7746C68.7852 81.4029 70.0375 78.1693 72.2666 75.7851C74.4957 73.4009 77.519 72.0615 80.6715 72.0615C83.8239 72.0615 86.8473 73.4009 89.0764 75.7851C91.3055 78.1693 92.5578 81.4029 92.5578 84.7746Z"
    stroke="white" stroke-width="2.57143" stroke-linecap="round" stroke-linejoin="round" />
  <path
    d="M80.6722 88.8941C82.7822 88.8941 84.4928 87.1549 84.4928 85.0096C84.4928 82.8642 82.7822 81.125 80.6722 81.125C78.5621 81.125 76.8516 82.8642 76.8516 85.0096C76.8516 87.1549 78.5621 88.8941 80.6722 88.8941Z"
    stroke="white" stroke-width="2.57143" stroke-linecap="round" stroke-linejoin="round" />
</svg>