<svg width="72" height="72" viewBox="0 0 72 72" fill="none" xmlns="http://www.w3.org/2000/svg">
<path d="M35.9277 2.18422C35.9725 2.1584 36.0276 2.1584 36.0723 2.18422L65.2492 19.0295C65.2939 19.0553 65.3215 19.1031 65.3215 19.1547V52.8453C65.3215 52.8969 65.2939 52.9447 65.2492 52.9705L36.0723 69.8158C36.0275 69.8416 35.9724 69.8416 35.9277 69.8158L6.75081 52.9705C6.70609 52.9447 6.67854 52.8969 6.67854 52.8453V19.1547C6.67854 19.1031 6.70609 19.0553 6.75081 19.0295L35.9277 2.18422Z" fill="white" stroke="#56928A" stroke-width="3.7109"/>
<path d="M44.4375 27.5625H27.5625C26.527 27.5625 25.6875 28.402 25.6875 29.4375V36.9375C25.6875 37.973 26.527 38.8125 27.5625 38.8125H44.4375C45.473 38.8125 46.3125 37.973 46.3125 36.9375V29.4375C46.3125 28.402 45.473 27.5625 44.4375 27.5625Z" stroke="#364859" stroke-width="1.875" stroke-linecap="round" stroke-linejoin="round"/>
<path d="M44.4375 38.8125H27.5625C26.527 38.8125 25.6875 39.652 25.6875 40.6875V44.4375C25.6875 45.473 26.527 46.3125 27.5625 46.3125H44.4375C45.473 46.3125 46.3125 45.473 46.3125 44.4375V40.6875C46.3125 39.652 45.473 38.8125 44.4375 38.8125Z" stroke="#364859" stroke-width="1.875" stroke-linecap="round" stroke-linejoin="round"/>
<path d="M44.4375 27.5625H27.5625C27.0656 27.5611 26.5895 27.3631 26.2382 27.0118C25.8869 26.6605 25.6889 26.1844 25.6875 25.6875V25.6875C25.6889 25.1906 25.8869 24.7145 26.2382 24.3632C26.5895 24.0119 27.0656 23.8139 27.5625 23.8125H44.4375C44.9344 23.8139 45.4105 24.0119 45.7618 24.3632C46.1131 24.7145 46.3111 25.1906 46.3125 25.6875V25.6875C46.3111 26.1844 46.1131 26.6605 45.7618 27.0118C45.4105 27.3631 44.9344 27.5611 44.4375 27.5625V27.5625Z" stroke="#364859" stroke-width="1.875" stroke-linecap="round" stroke-linejoin="round"/>
<path d="M29.4375 46.3125V47.6016C29.4375 47.757 29.3758 47.906 29.2659 48.0159C29.156 48.1258 29.007 48.1875 28.8516 48.1875H27.2109C27.0555 48.1875 26.9065 48.1258 26.7966 48.0159C26.6867 47.906 26.625 47.757 26.625 47.6016V46.3125H29.4375Z" stroke="#364859" stroke-width="1.875" stroke-linecap="round" stroke-linejoin="round"/>
<path d="M45.375 46.3125V47.6016C45.375 47.757 45.3133 47.906 45.2034 48.0159C45.0935 48.1258 44.9445 48.1875 44.7891 48.1875H43.1484C42.993 48.1875 42.844 48.1258 42.7341 48.0159C42.6242 47.906 42.5625 47.757 42.5625 47.6016V46.3125H45.375Z" stroke="#364859" stroke-width="1.875" stroke-linecap="round" stroke-linejoin="round"/>
<path d="M42.5625 43.5C43.0803 43.5 43.5 43.0803 43.5 42.5625C43.5 42.0447 43.0803 41.625 42.5625 41.625C42.0447 41.625 41.625 42.0447 41.625 42.5625C41.625 43.0803 42.0447 43.5 42.5625 43.5Z" stroke="#364859" stroke-width="1.875" stroke-linejoin="round"/>
<path d="M29.4375 43.5C29.9553 43.5 30.375 43.0803 30.375 42.5625C30.375 42.0447 29.9553 41.625 29.4375 41.625C28.9197 41.625 28.5 42.0447 28.5 42.5625C28.5 43.0803 28.9197 43.5 29.4375 43.5Z" stroke="#364859" stroke-width="1.875" stroke-linejoin="round"/>
<path d="M36 27.5625V38.8125" stroke="#364859" stroke-width="1.875" stroke-linecap="round" stroke-linejoin="round"/>
<path d="M25.6875 25.6875V42.5625" stroke="#364859" stroke-width="1.875" stroke-linecap="round" stroke-linejoin="round"/>
<path d="M46.3125 25.6875V42.5625" stroke="#364859" stroke-width="1.875" stroke-linecap="round" stroke-linejoin="round"/>
</svg>
