<svg width="162" height="161" viewBox="0 0 162 161" fill="none" xmlns="http://www.w3.org/2000/svg">
  <path opacity="0.8"
    d="M79.0186 2.12593C80.2467 1.42563 81.7533 1.42563 82.9814 2.12593L149.129 39.845C150.378 40.5567 151.148 41.8831 151.148 43.3198V118.672C151.148 120.109 150.378 121.435 149.129 122.147L82.9814 159.866C81.7533 160.567 80.2467 160.567 79.0186 159.866L12.8705 122.147C11.6225 121.435 10.8519 120.109 10.8519 118.672V43.3198C10.8519 41.8831 11.6225 40.5567 12.8705 39.845L79.0186 2.12593Z"
    fill="#669C95" />
  <path
    d="M79.7627 10.427C80.5297 9.99016 81.4703 9.99016 82.2373 10.427L142.323 44.6488C143.104 45.0934 143.586 45.9228 143.586 46.8212V115.171C143.586 116.069 143.104 116.899 142.323 117.343L82.2373 151.565C81.4703 152.002 80.5297 152.002 79.7627 151.565L19.6769 117.343C18.8962 116.899 18.4141 116.069 18.4141 115.171V46.8212C18.4141 45.9228 18.8962 45.0934 19.6769 44.6488L79.7627 10.427Z"
    fill="#669C95" stroke="white" stroke-width="3" />
  <path
    d="M50.34 57.7071C50.34 55.1847 52.3849 53.1398 54.9073 53.1398H107.093C109.615 53.1398 111.66 55.1847 111.66 57.7071V113.66H50.34V57.7071Z"
    fill="#669C95" stroke="#364859" stroke-width="2.68" />
  <path
    d="M50.34 55.7998C50.34 54.3307 51.5309 53.1398 53 53.1398H109C110.469 53.1398 111.66 54.3307 111.66 55.7998V64.9736H97H81H50.34V55.7998Z"
    fill="#669C95" stroke="#364859" stroke-width="2.68" />
  <rect x="63.0117" y="48" width="3.92058" height="10.0039" rx="1.96029" fill="#669C95" stroke="#364859"
    stroke-width="2" />
  <rect x="95.5586" y="48" width="3.92058" height="10.0039" rx="1.96029" fill="#669C95" stroke="#364859"
    stroke-width="2" />
  <mask id="path-7-inside-1" fill="white">
    <rect x="56.3477" y="73.5732" width="14.6986" height="14.515" rx="0.836682" />
  </mask>
  <rect x="56.3477" y="73.5732" width="14.6986" height="14.515" rx="0.836682" stroke="#364859" stroke-width="4"
    mask="url(#path-7-inside-1)" />
  <mask id="path-8-inside-2" fill="white">
    <rect x="56.3477" y="91.7148" width="14.6986" height="14.515" rx="0.836682" />
  </mask>
  <rect x="56.3477" y="91.7148" width="14.6986" height="14.515" rx="0.836682" stroke="#364859" stroke-width="4"
    mask="url(#path-8-inside-2)" />
  <mask id="path-9-inside-3" fill="white">
    <rect x="73.5" y="73.5732" width="14.6986" height="14.515" rx="0.836682" />
  </mask>
  <rect x="73.5" y="73.5732" width="14.6986" height="14.515" rx="0.836682" stroke="#364859" stroke-width="4"
    mask="url(#path-9-inside-3)" />
  <mask id="path-10-inside-4" fill="white">
    <rect x="73.5" y="91.7148" width="14.6986" height="14.515" rx="0.836682" />
  </mask>
  <rect x="73.5" y="91.7148" width="14.6986" height="14.515" rx="0.836682" stroke="#364859" stroke-width="4"
    mask="url(#path-10-inside-4)" />
  <rect x="91.6445" y="92.7148" width="12.6986" height="12.515" rx="6.25748" stroke="white" stroke-width="2" />
  <mask id="path-12-inside-5" fill="white">
    <rect x="90.6484" y="73.5732" width="14.6986" height="14.515" rx="0.836682" />
  </mask>
  <rect x="90.6484" y="73.5732" width="14.6986" height="14.515" rx="0.836682" stroke="#364859" stroke-width="4"
    mask="url(#path-12-inside-5)" />
</svg>