<svg width="162" height="160" viewBox="0 0 162 160" fill="none" xmlns="http://www.w3.org/2000/svg">
<path opacity="0.8" d="M79.0186 1.12984C80.2467 0.429539 81.7533 0.429538 82.9814 1.12984L149.129 38.8489C150.378 39.5606 151.148 40.887 151.148 42.3237V117.676C151.148 119.113 150.378 120.439 149.129 121.151L82.9814 158.87C81.7533 159.57 80.2467 159.57 79.0186 158.87L12.8705 121.151C11.6225 120.439 10.8519 119.113 10.8519 117.676V42.3237C10.8519 40.887 11.6225 39.5606 12.8705 38.8489L79.0186 1.12984Z" fill="#669C95"/>
<path d="M79.7627 9.43091C80.5297 8.99407 81.4703 8.99407 82.2373 9.43091L142.323 43.6527C143.104 44.0973 143.586 44.9267 143.586 45.8251V114.175C143.586 115.073 143.104 115.903 142.323 116.347L82.2373 150.569C81.4703 151.006 80.5297 151.006 79.7627 150.569L19.6769 116.347C18.8962 115.903 18.4141 115.073 18.4141 114.175V45.8251C18.4141 44.9267 18.8962 44.0974 19.6769 43.6527L79.7627 9.43091Z" fill="#669C95" stroke="white" stroke-width="3"/>
<path d="M50.9268 84.2491C50.926 84.2483 50.9252 84.2475 50.9244 84.2467L43.5009 76.7861C43.4695 76.7026 43.4294 76.5712 43.3848 76.3866C43.292 76.0021 43.2063 75.4981 43.1331 74.9542C42.9853 73.8552 42.9098 72.7533 42.9098 72.409C42.9098 71.915 43.0979 71.4926 43.3925 71.191C52.4118 62.609 64.5855 57.3277 77.9999 57.3277L78.0008 57.3277C90.8679 57.3197 103.247 62.2824 112.577 71.1906C112.906 71.5264 113.09 71.93 113.09 72.3785C113.09 72.7228 113.015 73.8247 112.867 74.9237C112.794 75.4676 112.708 75.9716 112.615 76.3561C112.57 76.5407 112.53 76.6721 112.499 76.7556L105.07 84.2215C104.779 84.5138 104.362 84.7148 103.796 84.7148C103.382 84.7148 102.965 84.5448 102.673 84.252L102.646 84.2247L102.618 84.199C100.064 81.9142 97.3278 79.9186 94.2254 78.3596L94.2182 78.356L94.2109 78.3524C93.6609 78.0844 93.2575 77.4771 93.2575 76.801V69.2738C93.2575 67.5627 92.1552 65.9869 90.44 65.51C86.464 64.4046 82.2774 63.8223 77.9999 63.8223C73.6654 63.8223 69.4869 64.4059 65.5073 65.5354C63.8025 66.0193 62.712 67.59 62.712 69.2916V76.8315C62.712 77.5306 62.3155 78.1116 61.7586 78.3829L61.7489 78.3877L61.7392 78.3926C58.6884 79.9414 55.8518 81.9042 53.3575 84.2523L53.3513 84.2581L53.3452 84.264C53.018 84.58 52.5824 84.7539 52.1313 84.7507C51.6815 84.7475 51.2493 84.5683 50.9268 84.2491ZM43.5297 76.8534C43.5296 76.8536 43.5274 76.8497 43.5233 76.8407C43.5277 76.8486 43.5298 76.8531 43.5297 76.8534ZM112.47 76.8229C112.47 76.8226 112.472 76.8182 112.477 76.8103C112.472 76.8192 112.47 76.8232 112.47 76.8229ZM69.748 81.4179L69.748 81.4178L70.2232 81.0199V80.4V73.9055C70.2232 73.1722 70.8176 72.5777 71.5509 72.5777H72.3096C73.0429 72.5777 73.6374 73.1722 73.6374 73.9055V77.35V78.6777H74.9651H81.0348H82.3625V77.35V73.9055C82.3625 73.1722 82.957 72.5777 83.6902 72.5777H84.4489C85.1822 72.5777 85.7767 73.1722 85.7767 73.9055V80.4V81.0199L86.2518 81.4178L86.2519 81.4179L86.2522 81.4181L86.2541 81.4197L86.2627 81.427L86.2993 81.4579C86.3321 81.4856 86.3816 81.5276 86.4465 81.583C86.5764 81.694 86.7683 81.8591 87.0134 82.0732C87.5037 82.5014 88.2061 83.1249 89.05 83.9023C90.7393 85.4586 92.9872 87.624 95.231 90.0669C97.4798 92.5153 99.6969 95.2128 101.344 97.8338C103.016 100.495 103.986 102.899 103.986 104.8V114.345C103.986 115.078 103.391 115.672 102.658 115.672H53.342C52.6087 115.672 52.0142 115.078 52.0142 114.345V104.8C52.0142 102.899 52.9835 100.495 54.6558 97.8338C56.303 95.2128 58.5201 92.5153 60.7688 90.0669C63.0126 87.624 65.2606 85.4586 66.9499 83.9023C67.7938 83.1249 68.4962 82.5014 68.9865 82.0732C69.2315 81.8591 69.4235 81.694 69.5534 81.583C69.6183 81.5276 69.6677 81.4856 69.7005 81.4579L69.7371 81.427L69.7458 81.4197L69.7477 81.4181L69.748 81.4179Z" stroke="#364859" stroke-width="2.65547"/>
<circle cx="77.998" cy="97.584" r="12.3105" stroke="#364859" stroke-width="2.547"/>
<circle cx="77.998" cy="97.584" r="12.3105" stroke="#364859" stroke-width="2.547"/>
<circle cx="77.9978" cy="97.5837" r="7.21649" stroke="#364859" stroke-width="2.547"/>
<circle cx="77.9978" cy="97.5837" r="7.21649" stroke="white" stroke-width="2.547"/>
<path d="M110.5 56.5C110.5 54.9898 110.203 53.4944 109.625 52.0991C109.047 50.7039 108.2 49.4361 107.132 48.3683C106.064 47.3004 104.796 46.4533 103.401 45.8754C102.006 45.2975 100.51 45 99 45" stroke="white" stroke-width="3" stroke-linecap="round" stroke-linejoin="round"/>
<path d="M121 57C121 54.1109 120.431 51.2501 119.325 48.581C118.22 45.9118 116.599 43.4865 114.556 41.4437C112.513 39.4008 110.088 37.7803 107.419 36.6747C104.75 35.569 101.889 35 99 35" stroke="white" stroke-width="3" stroke-linecap="round" stroke-linejoin="round"/>
</svg>
