<svg width="48" height="58" viewBox="0 0 48 58" fill="none" xmlns="http://www.w3.org/2000/svg">
  <path
    d="M31.5 23.4639C31.5 27.6053 28.1423 30.9629 24 30.9629C19.8577 30.9629 16.5 27.6053 16.5 23.4639C16.5 19.3224 19.8577 15.9648 24 15.9648C28.1423 15.9648 31.5 19.3224 31.5 23.4639Z"
    fill="white" stroke="#364859" stroke-width="3" />
  <path
    d="M22.5 46.4V44.9H21H5.625C3.30309 44.9 1.5 43.0851 1.5 40.9625V5.43836C1.50135 4.41096 1.92369 3.4153 2.69181 2.67279C3.46167 1.92859 4.51592 1.50133 5.6258 1.5H42.3742C43.4841 1.50133 44.5383 1.92859 45.3082 2.67278C46.0765 3.41549 46.4989 4.41147 46.5 5.43915V40.9608C46.4989 41.9885 46.0765 42.9845 45.3082 43.7272C44.5382 44.4716 43.4836 44.8989 42.3735 44.9H27H25.5V46.4V52.2V53.7H27H36.1C36.8732 53.7 37.5 54.3268 37.5 55.1C37.5 55.8732 36.8732 56.5 36.1 56.5H11.9C11.1268 56.5 10.5 55.8732 10.5 55.1C10.5 54.3268 11.1268 53.7 11.9 53.7H21H22.5V52.2V46.4ZM7.5 23.2C7.5 32.0713 14.9489 39.2 24 39.2C33.0511 39.2 40.5 32.0713 40.5 23.2C40.5 14.3287 33.0511 7.2 24 7.2C14.9489 7.2 7.5 14.3287 7.5 23.2Z"
    fill="white" stroke="#364859" stroke-width="3" />
</svg>