<svg width="149" height="72" viewBox="0 0 149 72" fill="none" xmlns="http://www.w3.org/2000/svg">
  <path
    d="M1.91625 5.33333C1.91625 3.15273 3.68398 1.385 5.86458 1.385H25.8646C28.0452 1.385 29.8129 3.15273 29.8129 5.33333V70.615H1.91625V5.33333Z"
    fill="white" stroke="#56928A" stroke-width="2.77" />
  <path
    d="M18.6894 25.4538L7.46484 40.4519H14.0172L12.4042 50.0391C12.4012 50.0579 12.4019 50.0772 12.4065 50.0956C12.4111 50.1141 12.4194 50.1312 12.4307 50.1458C12.4421 50.1605 12.4563 50.1722 12.4723 50.1802C12.4884 50.1883 12.5058 50.1924 12.5235 50.1924V50.1924C12.5423 50.1924 12.5608 50.1876 12.5776 50.1785C12.5944 50.1693 12.609 50.1561 12.6202 50.1398L23.8458 35.1389H17.2934L18.9141 25.5506C18.9163 25.5315 18.9147 25.5121 18.9094 25.4938C18.9041 25.4754 18.8953 25.4584 18.8835 25.444C18.8717 25.4296 18.8571 25.4181 18.8409 25.4103C18.8246 25.4024 18.807 25.3984 18.7892 25.3984V25.3984C18.7697 25.3985 18.7505 25.4036 18.7332 25.4132C18.7158 25.4228 18.7008 25.4367 18.6894 25.4538V25.4538Z"
    stroke="#56928A" stroke-width="2.77" stroke-linecap="round" stroke-linejoin="round" />
  <path
    d="M60.5305 45.3908H58.1954C55.8934 45.3908 54.0272 47.2569 54.0272 49.5589V63.793C54.0272 67.4417 51.0694 70.3995 47.4208 70.3995V70.3995C43.7721 70.3995 40.8143 67.4417 40.8143 63.793V31.4661C40.8143 28.5206 38.4265 26.1328 35.481 26.1328H31.7305"
    stroke="#56928A" stroke-width="2.77" stroke-linecap="round" stroke-linejoin="round" />
  <mask id="path-4-inside-1" fill="white">
    <path fill-rule="evenodd" clip-rule="evenodd"
      d="M127.463 59.2H79.5964V66.6667C79.5964 69.6122 77.2085 72 74.263 72H66.8264C63.9215 72 61.5509 69.6753 61.4941 66.771L61.3297 58.3667L59.8829 50.1482C59.254 46.5759 59.3606 42.9128 60.196 39.383L61.5964 33.4667L61.6877 33.272C58.9207 32.8645 56.7969 30.4803 56.7969 27.6001C56.7969 24.4337 59.3638 21.8668 62.5302 21.8668C63.9989 21.8668 65.3387 22.4191 66.3531 23.3273L66.663 22.6667L78.0614 2.69019C79.0105 1.02681 80.7786 0 82.6937 0H124.201C126.203 0 128.037 1.12132 128.949 2.90362L139.063 22.6667L139.344 23.2362C140.345 22.3823 141.644 21.8668 143.063 21.8668C146.229 21.8668 148.796 24.4337 148.796 27.6001C148.796 30.3533 146.856 32.6531 144.268 33.2066L144.396 33.4667L145.941 40.9216C146.681 44.4915 146.681 48.1752 145.941 51.7451L144.396 59.2V66.6667C144.396 69.6122 142.009 72 139.063 72H132.796C129.851 72 127.463 69.6122 127.463 66.6667V59.2Z" />
  </mask>
  <path
    d="M79.5964 59.2V56.43H76.8264V59.2H79.5964ZM127.463 59.2H130.233V56.43H127.463V59.2ZM61.4941 66.771L64.2635 66.7168L61.4941 66.771ZM61.3297 58.3667L64.0992 58.3125L64.095 58.0979L64.0577 57.8864L61.3297 58.3667ZM59.8829 50.1482L57.1549 50.6285H57.1549L59.8829 50.1482ZM60.196 39.383L57.5005 38.745H57.5005L60.196 39.383ZM61.5964 33.4667L59.0886 32.2902L58.9669 32.5497L58.9008 32.8287L61.5964 33.4667ZM61.6877 33.272L64.1954 34.4485L65.7783 31.0745L62.0913 30.5315L61.6877 33.272ZM66.3531 23.3273L64.5054 25.391L67.2795 27.8746L68.8609 24.5038L66.3531 23.3273ZM66.663 22.6667L64.2571 21.2939L64.2023 21.39L64.1553 21.4902L66.663 22.6667ZM78.0614 2.69019L75.6555 1.31741L75.6555 1.31741L78.0614 2.69019ZM128.949 2.90362L131.415 1.64168V1.64168L128.949 2.90362ZM139.063 22.6667L141.547 21.4402L141.538 21.4224L141.529 21.4047L139.063 22.6667ZM139.344 23.2362L136.861 24.4627L138.436 27.6521L141.142 25.3437L139.344 23.2362ZM144.268 33.2066L143.689 30.4979L140.209 31.2422L141.784 34.4331L144.268 33.2066ZM144.396 33.4667L147.109 32.9045L147.037 32.5577L146.88 32.2402L144.396 33.4667ZM145.941 40.9216L148.654 40.3594V40.3594L145.941 40.9216ZM145.941 51.7451L148.654 52.3072V52.3072L145.941 51.7451ZM144.396 59.2L141.684 58.6379L141.626 58.916V59.2H144.396ZM79.5964 61.97H127.463V56.43H79.5964V61.97ZM82.3664 66.6667V59.2H76.8264V66.6667H82.3664ZM74.263 74.77C78.7384 74.77 82.3664 71.142 82.3664 66.6667H76.8264C76.8264 68.0824 75.6787 69.23 74.263 69.23V74.77ZM66.8264 74.77H74.263V69.23H66.8264V74.77ZM58.7246 66.8251C58.8109 71.2379 62.4128 74.77 66.8264 74.77V69.23C65.4302 69.23 64.2908 68.1127 64.2635 66.7168L58.7246 66.8251ZM58.5602 58.4208L58.7246 66.8251L64.2635 66.7168L64.0992 58.3125L58.5602 58.4208ZM57.1549 50.6285L58.6016 58.8469L64.0577 57.8864L62.611 49.668L57.1549 50.6285ZM57.5005 38.745C56.5783 42.6414 56.4607 46.685 57.1549 50.6285L62.611 49.668C62.0474 46.4667 62.1429 43.1841 62.8916 40.021L57.5005 38.745ZM58.9008 32.8287L57.5005 38.745L62.8916 40.021L64.2919 34.1047L58.9008 32.8287ZM59.1799 32.0955L59.0886 32.2902L64.1041 34.6431L64.1954 34.4485L59.1799 32.0955ZM54.0269 27.6001C54.0269 31.8743 57.1777 35.4077 61.2841 36.0124L62.0913 30.5315C60.6636 30.3213 59.5669 29.0863 59.5669 27.6001H54.0269ZM62.5302 19.0968C57.8339 19.0968 54.0269 22.9039 54.0269 27.6001H59.5669C59.5669 25.9635 60.8936 24.6368 62.5302 24.6368V19.0968ZM68.2008 21.2635C66.6981 19.9182 64.7068 19.0968 62.5302 19.0968V24.6368C63.2911 24.6368 63.9793 24.9199 64.5054 25.391L68.2008 21.2635ZM64.1553 21.4902L63.8454 22.1508L68.8609 24.5038L69.1708 23.8431L64.1553 21.4902ZM75.6555 1.31741L64.2571 21.2939L69.0689 24.0394L80.4673 4.06297L75.6555 1.31741ZM82.6937 -2.77C79.7839 -2.77 77.0975 -1.20989 75.6555 1.31741L80.4673 4.06298C80.9234 3.26351 81.7732 2.77 82.6937 2.77V-2.77ZM124.201 -2.77H82.6937V2.77H124.201V-2.77ZM131.415 1.64168C130.029 -1.06629 127.243 -2.77 124.201 -2.77V2.77C125.164 2.77 126.045 3.30893 126.483 4.16555L131.415 1.64168ZM141.529 21.4047L131.415 1.64168L126.483 4.16555L136.597 23.9286L141.529 21.4047ZM141.828 22.0098L141.547 21.4402L136.579 23.8932L136.861 24.4627L141.828 22.0098ZM141.142 25.3437C141.661 24.9013 142.327 24.6368 143.063 24.6368V19.0968C140.961 19.0968 139.03 19.8633 137.547 21.1288L141.142 25.3437ZM143.063 24.6368C144.7 24.6368 146.026 25.9635 146.026 27.6001H151.566C151.566 22.9039 147.759 19.0968 143.063 19.0968V24.6368ZM146.026 27.6001C146.026 29.0198 145.025 30.212 143.689 30.4979L144.847 35.9154C148.686 35.0943 151.566 31.6867 151.566 27.6001H146.026ZM146.88 32.2402L146.752 31.9801L141.784 34.4331L141.913 34.6932L146.88 32.2402ZM148.654 40.3594L147.109 32.9045L141.684 34.0288L143.229 41.4837L148.654 40.3594ZM148.654 52.3072C149.47 48.3665 149.47 44.3002 148.654 40.3594L143.229 41.4837C143.892 44.6828 143.892 47.9839 143.229 51.183L148.654 52.3072ZM147.109 59.7622L148.654 52.3072L143.229 51.1829L141.684 58.6379L147.109 59.7622ZM147.166 66.6667V59.2H141.626V66.6667H147.166ZM139.063 74.77C143.538 74.77 147.166 71.142 147.166 66.6667H141.626C141.626 68.0824 140.479 69.23 139.063 69.23V74.77ZM132.796 74.77H139.063V69.23H132.796V74.77ZM124.693 66.6667C124.693 71.142 128.321 74.77 132.796 74.77V69.23C131.381 69.23 130.233 68.0824 130.233 66.6667H124.693ZM124.693 59.2V66.6667H130.233V59.2H124.693Z"
    fill="#364859" mask="url(#path-4-inside-1)" />
  <path
    d="M80.7959 9.27999C81.3738 7.73894 82.847 6.71801 84.4929 6.71801H121.101C122.747 6.71801 124.22 7.73894 124.798 9.27999L130.149 23.5496C130.463 24.3875 129.844 25.2813 128.949 25.2813H76.6449C75.75 25.2813 75.1306 24.3875 75.4448 23.5496L80.7959 9.27999Z"
    stroke="#364859" stroke-width="2.77" />
</svg>