<svg width="72" height="72" viewBox="0 0 72 72" fill="none" xmlns="http://www.w3.org/2000/svg">
<path d="M35.9277 2.18422C35.9725 2.1584 36.0276 2.1584 36.0723 2.18422L65.2492 19.0295C65.2939 19.0553 65.3215 19.1031 65.3215 19.1547V52.8453C65.3215 52.8969 65.2939 52.9447 65.2492 52.9705L36.0723 69.8158C36.0275 69.8416 35.9724 69.8416 35.9277 69.8158L6.75081 52.9705C6.70609 52.9447 6.67854 52.8969 6.67854 52.8453V19.1547C6.67854 19.1031 6.70609 19.0553 6.75081 19.0295L35.9277 2.18422Z" fill="white" stroke="#56928A" stroke-width="3.7109"/>
<circle cx="36" cy="36" r="14" stroke="#364859" stroke-width="2"/>
<mask id="path-3-inside-1" fill="white">
<path fill-rule="evenodd" clip-rule="evenodd" d="M33.2647 26.7656C32.827 26.7656 32.4723 27.1204 32.4723 27.558V32.4614L27.5619 32.4614C27.1243 32.4614 26.7695 32.8162 26.7695 33.2538V38.7394C26.7695 39.177 27.1243 39.5318 27.5619 39.5318H32.4723V44.4348C32.4723 44.8724 32.827 45.2272 33.2647 45.2272H38.7503C39.1879 45.2272 39.5427 44.8724 39.5427 44.4348V39.5318H44.4387C44.8763 39.5318 45.2311 39.177 45.2311 38.7394V33.2538C45.2311 32.8162 44.8763 32.4614 44.4387 32.4614L39.5427 32.4614V27.558C39.5427 27.1204 39.1879 26.7656 38.7503 26.7656H33.2647Z"/>
</mask>
<path fill-rule="evenodd" clip-rule="evenodd" d="M33.2647 26.7656C32.827 26.7656 32.4723 27.1204 32.4723 27.558V32.4614L27.5619 32.4614C27.1243 32.4614 26.7695 32.8162 26.7695 33.2538V38.7394C26.7695 39.177 27.1243 39.5318 27.5619 39.5318H32.4723V44.4348C32.4723 44.8724 32.827 45.2272 33.2647 45.2272H38.7503C39.1879 45.2272 39.5427 44.8724 39.5427 44.4348V39.5318H44.4387C44.8763 39.5318 45.2311 39.177 45.2311 38.7394V33.2538C45.2311 32.8162 44.8763 32.4614 44.4387 32.4614L39.5427 32.4614V27.558C39.5427 27.1204 39.1879 26.7656 38.7503 26.7656H33.2647Z" fill="white"/>
<path d="M32.4723 32.4614V34.4614H34.4723V32.4614H32.4723ZM27.5619 32.4614L27.5619 30.4614H27.5619V32.4614ZM32.4723 39.5318H34.4723V37.5318H32.4723V39.5318ZM39.5427 39.5318V37.5318H37.5427V39.5318H39.5427ZM44.4387 32.4614V34.4614V32.4614ZM39.5427 32.4614H37.5427V34.4614H39.5427V32.4614ZM34.4723 27.558C34.4723 28.225 33.9316 28.7656 33.2647 28.7656V24.7656C31.7225 24.7656 30.4723 26.0158 30.4723 27.558H34.4723ZM34.4723 32.4614V27.558H30.4723V32.4614H34.4723ZM27.5619 34.4614L32.4723 34.4614V30.4614L27.5619 30.4614L27.5619 34.4614ZM28.7695 33.2538C28.7695 33.9208 28.2289 34.4614 27.5619 34.4614V30.4614C26.0197 30.4614 24.7695 31.7116 24.7695 33.2538H28.7695ZM28.7695 38.7394V33.2538H24.7695V38.7394H28.7695ZM27.5619 37.5318C28.2289 37.5318 28.7695 38.0725 28.7695 38.7394H24.7695C24.7695 40.2816 26.0197 41.5318 27.5619 41.5318V37.5318ZM32.4723 37.5318H27.5619V41.5318H32.4723V37.5318ZM34.4723 44.4348V39.5318H30.4723V44.4348H34.4723ZM33.2647 43.2272C33.9316 43.2272 34.4723 43.7678 34.4723 44.4348H30.4723C30.4723 45.977 31.7225 47.2272 33.2647 47.2272V43.2272ZM38.7503 43.2272H33.2647V47.2272H38.7503V43.2272ZM37.5427 44.4348C37.5427 43.7678 38.0833 43.2272 38.7503 43.2272V47.2272C40.2925 47.2272 41.5427 45.977 41.5427 44.4348H37.5427ZM37.5427 39.5318V44.4348H41.5427V39.5318H37.5427ZM44.4387 37.5318H39.5427V41.5318H44.4387V37.5318ZM43.2311 38.7394C43.2311 38.0725 43.7717 37.5318 44.4387 37.5318V41.5318C45.9809 41.5318 47.2311 40.2816 47.2311 38.7394H43.2311ZM43.2311 33.2538V38.7394H47.2311V33.2538H43.2311ZM44.4387 34.4614C43.7717 34.4614 43.2311 33.9208 43.2311 33.2538H47.2311C47.2311 31.7116 45.9809 30.4614 44.4387 30.4614V34.4614ZM39.5427 34.4614L44.4387 34.4614V30.4614L39.5427 30.4614V34.4614ZM37.5427 27.558V32.4614H41.5427V27.558H37.5427ZM38.7503 28.7656C38.0833 28.7656 37.5427 28.225 37.5427 27.558H41.5427C41.5427 26.0158 40.2925 24.7656 38.7503 24.7656V28.7656ZM33.2647 28.7656H38.7503V24.7656H33.2647V28.7656Z" fill="#364859" mask="url(#path-3-inside-1)"/>
</svg>
