<svg width="72" height="72" viewBox="0 0 72 72" fill="none" xmlns="http://www.w3.org/2000/svg">
<path d="M35.9277 2.18422C35.9725 2.1584 36.0276 2.1584 36.0723 2.18422L65.2492 19.0295C65.2939 19.0553 65.3215 19.1031 65.3215 19.1547V52.8453C65.3215 52.8969 65.2939 52.9447 65.2492 52.9705L36.0723 69.8158C36.0275 69.8416 35.9724 69.8416 35.9277 69.8158L6.75081 52.9705C6.70609 52.9447 6.67854 52.8969 6.67854 52.8453V19.1547C6.67854 19.1031 6.70609 19.0553 6.75081 19.0295L35.9277 2.18422Z" fill="white" stroke="#56928A" stroke-width="3.7109"/>
<path d="M48.2654 43.1089C48.2654 43.698 48.7429 44.1755 49.332 44.1755C49.9211 44.1755 50.3987 43.698 50.3987 43.1089H48.2654ZM48.2654 33.5977V43.1089H50.3987V33.5977H48.2654Z" fill="#364859"/>
<path d="M26.3987 33.8286C26.3987 33.2395 26.8763 32.762 27.4654 32.762H35.9987H44.532C45.1211 32.762 45.5987 33.2395 45.5987 33.8286V40.8471V41.6344C45.5987 42.0478 45.3598 42.424 44.9856 42.5998L36.4522 46.6086C36.1649 46.7436 35.8325 46.7436 35.5452 46.6086L27.0118 42.5998C26.6376 42.424 26.3987 42.0478 26.3987 41.6344V33.8286Z" stroke="#364859" stroke-width="2.13333"/>
<path d="M21.0667 31.7364C21.0667 31.4657 21.2242 31.2198 21.4701 31.1066L36.0568 24.3935C36.3486 24.2592 36.6854 24.2636 36.9736 24.4054L50.5315 31.0753C50.7775 31.1963 50.9333 31.4466 50.9333 31.7208C50.9333 31.9845 50.7891 32.227 50.5574 32.3529L36.5094 39.988C36.1917 40.1607 35.8083 40.1607 35.4906 39.988L21.4289 32.3455C21.2057 32.2242 21.0667 31.9905 21.0667 31.7364Z" fill="white" stroke="#364859" stroke-width="2.13333"/>
</svg>
