<svg width="162" height="161" viewBox="0 0 162 161" fill="none" xmlns="http://www.w3.org/2000/svg">
  <path opacity="0.8"
    d="M79.0197 1.66358C80.2472 0.96409 81.7528 0.964091 82.9803 1.66358L149.128 39.3558C150.377 40.0673 151.148 41.394 151.148 42.8311V118.125C151.148 119.562 150.377 120.889 149.128 121.6L82.9803 159.292C81.7528 159.992 80.2472 159.992 79.0197 159.292L12.8716 121.6C11.6229 120.889 10.8519 119.562 10.8519 118.125V42.8311C10.8519 41.394 11.6229 40.0673 12.8716 39.3558L79.0197 1.66358Z"
    fill="#669C95" />
  <path
    d="M79.7634 9.96C80.5301 9.52366 81.4699 9.52366 82.2366 9.96L142.322 44.1574C143.104 44.6019 143.586 45.4314 143.586 46.3301V114.626C143.586 115.525 143.104 116.354 142.322 116.799L82.2366 150.996C81.4699 151.433 80.5301 151.433 79.7634 150.996L19.6775 116.799C18.8965 116.354 18.4141 115.525 18.4141 114.626V46.3301C18.4141 45.4314 18.8965 44.6019 19.6775 44.1574L79.7634 9.96Z"
    fill="#669C95" stroke="white" stroke-width="3" />
  <path
    d="M45.638 71.6452C45.638 71.0038 46.1581 70.4837 46.7995 70.4837H113.817C114.459 70.4837 114.979 71.0038 114.979 71.6452V114.291C114.979 114.932 114.459 115.452 113.817 115.452H46.7995C46.1581 115.452 45.638 114.932 45.638 114.291V71.6452Z"
    fill="#669C95" stroke="#364859" stroke-width="2.32296" />
  <path
    d="M105.365 97.1925L56.4344 97.1925C55.7929 97.1925 55.2729 96.6725 55.2729 96.031L55.2729 42.9538C55.2729 42.3123 55.7929 41.7923 56.4344 41.7923L92.493 41.7923L106.526 54.7149L106.526 96.031C106.526 96.6725 106.006 97.1925 105.365 97.1925Z"
    fill="#669C95" stroke="#364859" stroke-width="2.32296" />
  <path d="M47 100.468V71.4983L74.1883 89.8537L81.2872 83.7471L87.84 89.8537L113 70.4893V100.468H47Z" fill="#669C95" />
  <path d="M114.907 70.3999L88.1182 89.5562M45.9802 70.7005L74.7517 89.5562" stroke="#364859" stroke-width="2.32296" />
  <path d="M115.178 114.771L83.0422 84.4816C82.1672 83.6568 80.8068 83.6353 79.9061 84.4319L45.6037 114.771"
    stroke="#364859" stroke-width="2.32296" />
  <rect x="61.5165" y="51.1571" width="23.4128" height="3.59874" rx="0.77432" stroke="#364859" stroke-width="1.54864" />
  <rect x="61.5165" y="63.0624" width="38.7118" height="3.59874" rx="0.77432" stroke="white" stroke-width="1.54864" />
  <rect x="61.5165" y="71.1054" width="38.7118" height="3.59874" rx="0.77432" stroke="white" stroke-width="1.54864" />
</svg>