<svg width="88" height="72" viewBox="0 0 88 72" fill="none" xmlns="http://www.w3.org/2000/svg">
  <mask id="path-1-inside-1" fill="white">
    <path fill-rule="evenodd" clip-rule="evenodd"
      d="M44.4823 0C44.0599 0 43.6453 0.114427 43.2827 0.331125L2.40097 24.7611C-0.0968615 26.2538 0.961491 30.088 3.87133 30.088H6.39487V69.134C6.39487 70.717 7.6782 72.0004 9.26126 72.0004H78.408C79.991 72.0004 81.2743 70.717 81.2743 69.134V30.088H85.0933C88.0031 30.088 89.0615 26.2538 86.5636 24.7611L45.6819 0.331126C45.3193 0.114427 44.9047 0 44.4823 0Z" />
  </mask>
  <path
    d="M43.2827 0.331125L41.7438 -2.2441V-2.2441L43.2827 0.331125ZM2.40097 24.7611L3.93986 27.3363H3.93987L2.40097 24.7611ZM6.39487 30.088H9.39487V27.088H6.39487V30.088ZM81.2743 30.088V27.088H78.2743V30.088H81.2743ZM86.5636 24.7611L85.0247 27.3363L86.5636 24.7611ZM45.6819 0.331126L47.2208 -2.2441V-2.2441L45.6819 0.331126ZM44.8216 2.90635C44.719 2.96764 44.6018 3 44.4823 3V-3C43.5179 -3 42.5716 -2.73878 41.7438 -2.2441L44.8216 2.90635ZM3.93987 27.3363L44.8216 2.90635L41.7438 -2.2441L0.862071 22.1859L3.93987 27.3363ZM3.87133 27.088C3.84102 27.088 3.84736 27.0838 3.87685 27.0943C3.90532 27.1044 3.9345 27.1209 3.95871 27.1407C4.00295 27.1767 4.00369 27.199 4.00013 27.1861C3.99657 27.1732 4.00734 27.1927 3.98787 27.2463C3.97722 27.2757 3.96064 27.3048 3.9414 27.3282C3.92148 27.3523 3.91385 27.3519 3.93986 27.3363L0.862072 22.1859C-4.25005 25.2408 -2.08398 33.088 3.87133 33.088V27.088ZM6.39487 27.088H3.87133V33.088H6.39487V27.088ZM9.39487 69.134V30.088H3.39487V69.134H9.39487ZM9.26126 69.0004C9.33505 69.0004 9.39487 69.0602 9.39487 69.134H3.39487C3.39487 72.3739 6.02135 75.0004 9.26126 75.0004V69.0004ZM78.408 69.0004H9.26126V75.0004H78.408V69.0004ZM78.2743 69.134C78.2743 69.0602 78.3342 69.0004 78.408 69.0004V75.0004C81.6479 75.0004 84.2743 72.3739 84.2743 69.134H78.2743ZM78.2743 30.088V69.134H84.2743V30.088H78.2743ZM85.0933 27.088H81.2743V33.088H85.0933V27.088ZM85.0247 27.3363C85.0508 27.3519 85.0431 27.3523 85.0232 27.3282C85.004 27.3048 84.9874 27.2757 84.9767 27.2463C84.9573 27.1927 84.968 27.1732 84.9645 27.1861C84.9609 27.199 84.9617 27.1767 85.0059 27.1407C85.0301 27.1209 85.0593 27.1044 85.0878 27.0943C85.1172 27.0838 85.1236 27.088 85.0933 27.088V33.088C91.0486 33.088 93.2147 25.2408 88.1025 22.1859L85.0247 27.3363ZM44.143 2.90635L85.0247 27.3363L88.1025 22.1859L47.2208 -2.2441L44.143 2.90635ZM44.4823 3C44.3628 3 44.2456 2.96764 44.143 2.90635L47.2208 -2.2441C46.393 -2.73878 45.4467 -3 44.4823 -3V3Z"
    fill="#364859" mask="url(#path-1-inside-1)" />
  <path d="M71 70V37.8664C71 36.2833 69.7167 35 68.1336 35H19.8664C18.2833 35 17 36.2833 17 37.8664V70" stroke="#56928A"
    stroke-width="3" />
  <path d="M18.0391 47.3516H71.0006" stroke="#56928A" stroke-width="3" />
  <path d="M18.0391 59.6484H71.0006" stroke="#56928A" stroke-width="3" />
  <path d="M2 70.3242H86" stroke="#364859" stroke-width="3" stroke-linecap="round" stroke-linejoin="round" />
</svg>