<svg width="142" height="160" viewBox="0 0 142 160" fill="none" xmlns="http://www.w3.org/2000/svg">
  <path opacity="0.8"
    d="M69.0186 1.12984C70.2467 0.429539 71.7533 0.429538 72.9814 1.12984L139.129 38.8489C140.378 39.5606 141.148 40.887 141.148 42.3237V117.676C141.148 119.113 140.378 120.439 139.129 121.151L72.9814 158.87C71.7533 159.57 70.2467 159.57 69.0186 158.87L2.87055 121.151C1.62247 120.439 0.851944 119.113 0.851944 117.676V42.3237C0.851944 40.887 1.62247 39.5606 2.87055 38.8489L69.0186 1.12984Z"
    fill="#669C95" />
  <path
    d="M69.7641 9.42854C70.5304 8.99271 71.4696 8.99271 72.2359 9.42854L132.322 43.6014C133.103 44.0458 133.586 44.8755 133.586 45.7745V114.017C133.586 114.916 133.103 115.745 132.322 116.19L72.2359 150.363C71.4696 150.798 70.5304 150.798 69.7641 150.363L9.67819 116.19C8.89677 115.745 8.41412 114.916 8.41412 114.017V45.7745C8.41412 44.8755 8.89677 44.0458 9.67819 43.6014L69.7641 9.42854Z"
    fill="#669C95" stroke="white" stroke-width="3" />
</svg>