<svg width="115" height="124" viewBox="0 0 115 124" fill="none" xmlns="http://www.w3.org/2000/svg">
  <path d="M57 2V11" stroke="#364859" stroke-width="3" stroke-linecap="round" stroke-linejoin="round" />
  <path d="M57.5 105V122" stroke="#364859" stroke-width="3" stroke-linecap="round" stroke-linejoin="round" />
  <path
    d="M50.1127 85.4315C50.1127 85.6931 50.2538 85.9344 50.4818 86.0627L57.8687 90.2178C58.0892 90.3418 58.3584 90.3418 58.5788 90.2178L65.9657 86.0627C66.1938 85.9344 66.3349 85.6931 66.3349 85.4315V81.4607C66.3349 81.1977 66.4775 80.9553 66.7074 80.8276L67.5764 80.3448C68.0591 80.0766 68.6523 80.4257 68.6523 80.9779V86.7868C68.6523 87.0484 68.5112 87.2897 68.2832 87.418L58.5788 92.8767C58.3584 93.0007 58.0892 93.0007 57.8687 92.8767L48.1644 87.418C47.9363 87.2897 47.7952 87.0484 47.7952 86.7868V80.9779C47.7952 80.4257 48.3884 80.0766 48.8711 80.3448L49.7402 80.8276C49.9701 80.9553 50.1127 81.1977 50.1127 81.4607V85.4315Z"
    fill="white" />
  <path
    d="M57.5564 67.3457C57.9744 67.1289 58.4718 67.1289 58.8898 67.3457L73.6636 75.0062C74.1439 75.2552 74.4453 75.7511 74.4453 76.292V76.5678C74.4453 77.0938 74.1601 77.5785 73.7003 77.8339L58.9265 86.0414C58.489 86.2844 57.9571 86.2844 57.5197 86.0414L44.5335 78.8271C44.437 78.7734 44.3183 78.8432 44.3183 78.9537V83.9481C44.3183 84.588 43.7996 85.1068 43.1596 85.1068C42.5197 85.1068 42.0009 84.588 42.0009 83.9481V76.292C42.0009 75.7511 42.3023 75.2552 42.7826 75.0062L57.5564 67.3457ZM46.6358 77.3439L48.9533 78.6313L57.5197 83.3907C57.9571 83.6338 58.4891 83.6338 58.9265 83.3907L67.4929 78.6313L69.8104 77.3439L70.8271 76.7791C71.0795 76.6388 71.0742 76.274 70.8179 76.1411L58.8898 69.9562C58.4718 69.7394 57.9744 69.7394 57.5564 69.9562L45.6283 76.1411C45.372 76.274 45.3667 76.6388 45.6191 76.7791L46.6358 77.3439Z"
    fill="white" />
  <path
    d="M60.25 49H53.75C53.1755 48.9994 52.6248 48.771 52.2186 48.3648C51.8124 47.9586 51.5839 47.4078 51.5833 46.8333V41.4167H46.1667C45.5922 41.4161 45.0414 41.1876 44.6352 40.7814C44.229 40.3752 44.0006 39.8245 44 39.25V32.75C44.0006 32.1755 44.229 31.6248 44.6352 31.2186C45.0414 30.8124 45.5922 30.5839 46.1667 30.5833H51.5833V25.1667C51.5839 24.5922 51.8124 24.0414 52.2186 23.6352C52.6248 23.229 53.1755 23.0006 53.75 23H60.25C60.8245 23.0006 61.3752 23.229 61.7814 23.6352C62.1876 24.0414 62.4161 24.5922 62.4167 25.1667V30.5833H67.8333C68.4078 30.5839 68.9586 30.8124 69.3648 31.2186C69.771 31.6248 69.9994 32.1755 70 32.75V39.25C69.9991 39.8244 69.7706 40.375 69.3645 40.7811C68.9583 41.1873 68.4077 41.4158 67.8333 41.4167H62.4167V46.8333C62.4158 47.4077 62.1873 47.9583 61.7811 48.3645C61.375 48.7706 60.8244 48.9991 60.25 49ZM46.1667 32.75V39.25H53.75V46.8333H60.25V39.25H67.8333V32.75H60.25V25.1667H53.75V32.75H46.1667Z"
    fill="white" />
  <path
    d="M16.5 65C16.5 63.6193 17.6193 62.5 19 62.5H96.5212C97.2411 62.5 97.926 62.8103 98.4007 63.3514L111.559 78.3514C112.386 79.2947 112.386 80.7053 111.559 81.6486L98.4007 96.6486C97.926 97.1897 97.2411 97.5 96.5212 97.5H19C17.6193 97.5 16.5 96.3807 16.5 95V65Z"
    stroke="#364859" stroke-width="3" />
  <path
    d="M98.5 21C98.5 19.6193 97.3807 18.5 96 18.5H18.4788C17.7589 18.5 17.074 18.8103 16.5993 19.3514L3.44146 34.3514C2.61399 35.2947 2.61399 36.7053 3.44146 37.6486L16.5993 52.6486C17.074 53.1897 17.7589 53.5 18.4788 53.5H96C97.3807 53.5 98.5 52.3807 98.5 51V21Z"
    stroke="#364859" stroke-width="3" />
</svg>