<svg width="162" height="176" viewBox="0 0 162 176" fill="none" xmlns="http://www.w3.org/2000/svg">
  <g filter="url(#filter0_d)">
    <path
      d="M79.0186 7.12984C80.2467 6.42954 81.7533 6.42954 82.9814 7.12984L149.129 44.8489C150.378 45.5606 151.148 46.887 151.148 48.3237V123.676C151.148 125.113 150.378 126.439 149.129 127.151L82.9814 164.87C81.7533 165.57 80.2467 165.57 79.0186 164.87L12.8705 127.151C11.6225 126.439 10.8519 125.113 10.8519 123.676V48.3237C10.8519 46.887 11.6225 45.5606 12.8705 44.8489L79.0186 7.12984Z"
      fill="#569289" />
  </g>
  <path d="M80 31V40" stroke="#364859" stroke-width="3" stroke-linecap="round" stroke-linejoin="round" />
  <path d="M80.5 134V151" stroke="#364859" stroke-width="3" stroke-linecap="round" stroke-linejoin="round" />
  <path
    d="M73.1107 114.431C73.1107 114.693 73.2518 114.934 73.4799 115.063L80.8668 119.218C81.0872 119.342 81.3564 119.342 81.5769 119.218L88.9638 115.063C89.1918 114.934 89.3329 114.693 89.3329 114.431V110.461C89.3329 110.198 89.4755 109.955 89.7054 109.828L90.5745 109.345C91.0572 109.077 91.6504 109.426 91.6504 109.978V115.787C91.6504 116.048 91.5093 116.29 91.2812 116.418L81.5769 121.877C81.3564 122.001 81.0872 122.001 80.8668 121.877L71.1624 116.418C70.9344 116.29 70.7933 116.048 70.7933 115.787V109.978C70.7933 109.426 71.3865 109.077 71.8692 109.345L72.7382 109.828C72.9681 109.955 73.1107 110.198 73.1107 110.461V114.431Z"
    fill="white" />
  <path
    d="M80.5554 96.3457C80.9734 96.1289 81.4708 96.1289 81.8888 96.3457L96.6627 104.006C97.1429 104.255 97.4443 104.751 97.4443 105.292V105.568C97.4443 106.094 97.1591 106.578 96.6993 106.834L81.9255 115.041C81.4881 115.284 80.9562 115.284 80.5187 115.041L67.5325 107.827C67.436 107.773 67.3174 107.843 67.3174 107.954V112.948C67.3174 113.588 66.7986 114.107 66.1586 114.107C65.5187 114.107 64.9999 113.588 64.9999 112.948V105.292C64.9999 104.751 65.3014 104.255 65.7816 104.006L80.5554 96.3457ZM69.6348 106.344L71.9523 107.631L80.5187 112.391C80.9561 112.634 81.4881 112.634 81.9256 112.391L90.492 107.631L92.8094 106.344L93.8261 105.779C94.0785 105.639 94.0733 105.274 93.8169 105.141L81.8888 98.9562C81.4708 98.7394 80.9734 98.7394 80.5554 98.9562L68.6273 105.141C68.371 105.274 68.3657 105.639 68.6182 105.779L69.6348 106.344Z"
    fill="white" />
  <path
    d="M83.25 78H76.75C76.1755 77.9994 75.6248 77.771 75.2186 77.3648C74.8124 76.9586 74.5839 76.4078 74.5833 75.8333V70.4167H69.1667C68.5922 70.4161 68.0414 70.1876 67.6352 69.7814C67.229 69.3752 67.0006 68.8245 67 68.25V61.75C67.0006 61.1755 67.229 60.6248 67.6352 60.2186C68.0414 59.8124 68.5922 59.5839 69.1667 59.5833H74.5833V54.1667C74.5839 53.5922 74.8124 53.0414 75.2186 52.6352C75.6248 52.229 76.1755 52.0006 76.75 52H83.25C83.8245 52.0006 84.3752 52.229 84.7814 52.6352C85.1876 53.0414 85.4161 53.5922 85.4167 54.1667V59.5833H90.8333C91.4078 59.5839 91.9586 59.8124 92.3648 60.2186C92.771 60.6248 92.9994 61.1755 93 61.75V68.25C92.9991 68.8244 92.7706 69.375 92.3645 69.7811C91.9583 70.1873 91.4077 70.4158 90.8333 70.4167H85.4167V75.8333C85.4158 76.4077 85.1873 76.9583 84.7811 77.3645C84.375 77.7706 83.8244 77.9991 83.25 78ZM69.1667 61.75V68.25H76.75V75.8333H83.25V68.25H90.8333V61.75H83.25V54.1667H76.75V61.75H69.1667Z"
    fill="white" />
  <path
    d="M39.5 94C39.5 92.6193 40.6193 91.5 42 91.5H119.521C120.241 91.5 120.926 91.8103 121.401 92.3514L134.559 107.351C135.386 108.295 135.386 109.705 134.559 110.649L121.401 125.649C120.926 126.19 120.241 126.5 119.521 126.5H42C40.6193 126.5 39.5 125.381 39.5 124V94Z"
    stroke="#364859" stroke-width="3" />
  <path
    d="M121.5 50C121.5 48.6193 120.381 47.5 119 47.5H41.4788C40.7589 47.5 40.074 47.8103 39.5993 48.3514L26.4415 63.3514C25.614 64.2947 25.614 65.7053 26.4415 66.6486L39.5993 81.6486C40.074 82.1897 40.7589 82.5 41.4788 82.5H119C120.381 82.5 121.5 81.3807 121.5 80V50Z"
    stroke="#364859" stroke-width="3" />
  <defs>
    <filter id="filter0_d" x="2.8519" y="0.604614" width="156.296" height="174.79" filterUnits="userSpaceOnUse"
      color-interpolation-filters="sRGB">
      <feFlood flood-opacity="0" result="BackgroundImageFix" />
      <feColorMatrix in="SourceAlpha" type="matrix" values="0 0 0 0 0 0 0 0 0 0 0 0 0 0 0 0 0 0 127 0" />
      <feOffset dy="2" />
      <feGaussianBlur stdDeviation="4" />
      <feColorMatrix type="matrix" values="0 0 0 0 0 0 0 0 0 0 0 0 0 0 0 0 0 0 0.25 0" />
      <feBlend mode="normal" in2="BackgroundImageFix" result="effect1_dropShadow" />
      <feBlend mode="normal" in="SourceGraphic" in2="effect1_dropShadow" result="shape" />
    </filter>
  </defs>
</svg>