<svg width="162" height="160" viewBox="0 0 162 160" fill="none" xmlns="http://www.w3.org/2000/svg">
  <path opacity="0.8"
    d="M79.0186 1.12984C80.2467 0.429539 81.7533 0.429538 82.9814 1.12984L149.129 38.8489C150.378 39.5606 151.148 40.887 151.148 42.3237V117.676C151.148 119.113 150.378 120.439 149.129 121.151L82.9814 158.87C81.7533 159.57 80.2467 159.57 79.0186 158.87L12.8705 121.151C11.6225 120.439 10.8519 119.113 10.8519 117.676V42.3237C10.8519 40.887 11.6225 39.5606 12.8705 38.8489L79.0186 1.12984Z"
    fill="#669C95" />
  <path
    d="M79.7627 9.43091C80.5297 8.99407 81.4703 8.99407 82.2373 9.43091L142.323 43.6527C143.104 44.0973 143.586 44.9267 143.586 45.8251V114.175C143.586 115.073 143.104 115.903 142.323 116.347L82.2373 150.569C81.4703 151.006 80.5297 151.006 79.7627 150.569L19.6769 116.347C18.8962 115.903 18.4141 115.073 18.4141 114.175V45.8251C18.4141 44.9267 18.8962 44.0974 19.6769 43.6527L79.7627 9.43091Z"
    fill="#669C95" stroke="white" stroke-width="3" />
  <mask id="path-3-inside-1" fill="white">
    <path fill-rule="evenodd" clip-rule="evenodd"
      d="M65.2619 50.1741C65.4534 49.9969 65.7047 49.8984 65.9656 49.8984C66.2265 49.8984 66.4777 49.9969 66.6692 50.1741L94.2778 75.7265C95.613 76.9623 94.7386 79.1943 92.9193 79.1943H89.0963V100.792C89.0963 101.897 88.2009 102.792 87.0963 102.792H44.0222C42.9176 102.792 42.0222 101.897 42.0222 100.792V79.1943H39.0118C37.1925 79.1943 36.3181 76.9623 37.6533 75.7265L44.0002 69.8523V58.8846C44.0002 57.78 44.8957 56.8846 46.0002 56.8846H51.0002C52.1048 56.8846 53.0002 57.78 53.0002 58.8846V61.5226L65.2619 50.1741Z" />
  </mask>
  <path fill-rule="evenodd" clip-rule="evenodd"
    d="M65.2619 50.1741C65.4534 49.9969 65.7047 49.8984 65.9656 49.8984C66.2265 49.8984 66.4777 49.9969 66.6692 50.1741L94.2778 75.7265C95.613 76.9623 94.7386 79.1943 92.9193 79.1943H89.0963V100.792C89.0963 101.897 88.2009 102.792 87.0963 102.792H44.0222C42.9176 102.792 42.0222 101.897 42.0222 100.792V79.1943H39.0118C37.1925 79.1943 36.3181 76.9623 37.6533 75.7265L44.0002 69.8523V58.8846C44.0002 57.78 44.8957 56.8846 46.0002 56.8846H51.0002C52.1048 56.8846 53.0002 57.78 53.0002 58.8846V61.5226L65.2619 50.1741Z"
    fill="#669C95" />
  <path
    d="M65.2619 50.1741L67.2997 52.3758L67.2997 52.3758L65.2619 50.1741ZM66.6692 50.1741L64.6315 52.3758L64.6315 52.3758L66.6692 50.1741ZM94.2778 75.7265L92.2401 77.9282V77.9282L94.2778 75.7265ZM89.0963 79.1943V76.1943H86.0963V79.1943H89.0963ZM42.0222 79.1943H45.0222V76.1943H42.0222V79.1943ZM37.6533 75.7265L35.6156 73.5248L35.6156 73.5248L37.6533 75.7265ZM44.0002 69.8523L46.038 72.054L47.0002 71.1634V69.8523H44.0002ZM53.0002 61.5226H50.0002V68.3869L55.038 63.7243L53.0002 61.5226ZM65.9656 46.8984C64.9492 46.8984 63.9701 47.282 63.2242 47.9724L67.2997 52.3758C66.9367 52.7118 66.4602 52.8984 65.9656 52.8984V46.8984ZM68.707 47.9724C67.961 47.282 66.982 46.8984 65.9656 46.8984V52.8984C65.4709 52.8984 64.9945 52.7118 64.6315 52.3758L68.707 47.9724ZM96.3156 73.5248L68.707 47.9724L64.6315 52.3758L92.2401 77.9282L96.3156 73.5248ZM92.9193 82.1943C97.4677 82.1943 99.6536 76.6142 96.3156 73.5248L92.2401 77.9282C91.5725 77.3103 92.0096 76.1943 92.9193 76.1943V82.1943ZM89.0963 82.1943H92.9193V76.1943H89.0963V82.1943ZM92.0963 100.792V79.1943H86.0963V100.792H92.0963ZM87.0963 105.792C89.8577 105.792 92.0963 103.554 92.0963 100.792H86.0963C86.0963 100.24 86.544 99.7923 87.0963 99.7923V105.792ZM44.0222 105.792H87.0963V99.7923H44.0222V105.792ZM39.0222 100.792C39.0222 103.554 41.2608 105.792 44.0222 105.792V99.7923C44.5745 99.7923 45.0222 100.24 45.0222 100.792H39.0222ZM39.0222 79.1943V100.792H45.0222V79.1943H39.0222ZM39.0118 82.1943H42.0222V76.1943H39.0118V82.1943ZM35.6156 73.5248C32.2775 76.6142 34.4635 82.1943 39.0118 82.1943V76.1943C39.9215 76.1943 40.3587 77.3103 39.6911 77.9282L35.6156 73.5248ZM41.9625 67.6506L35.6156 73.5248L39.6911 77.9282L46.038 72.054L41.9625 67.6506ZM47.0002 69.8523V58.8846H41.0002V69.8523H47.0002ZM47.0002 58.8846C47.0002 59.4369 46.5525 59.8846 46.0002 59.8846V53.8846C43.2388 53.8846 41.0002 56.1232 41.0002 58.8846H47.0002ZM46.0002 59.8846H51.0002V53.8846H46.0002V59.8846ZM51.0002 59.8846C50.4479 59.8846 50.0002 59.4369 50.0002 58.8846H56.0002C56.0002 56.1232 53.7616 53.8846 51.0002 53.8846V59.8846ZM50.0002 58.8846V61.5226H56.0002V58.8846H50.0002ZM63.2242 47.9724L50.9625 59.3209L55.038 63.7243L67.2997 52.3758L63.2242 47.9724Z"
    fill="#364859" mask="url(#path-3-inside-1)" />
  <mask id="path-5-inside-2" fill="white">
    <rect x="58.2539" y="84.8926" width="14.6092" height="17.903" rx="2" />
  </mask>
  <rect x="58.2539" y="84.8926" width="14.6092" height="17.903" rx="2" stroke="#364859" stroke-width="6"
    mask="url(#path-5-inside-2)" />
  <mask id="path-6-inside-3" fill="white">
    <path fill-rule="evenodd" clip-rule="evenodd"
      d="M93.4721 50.8984C93.1826 50.8984 92.9038 51.0079 92.6916 51.2049L61.6238 80.045C60.2915 81.2817 61.1666 83.5108 62.9845 83.5108H66.8989V107.782C66.8989 108.886 67.7943 109.782 68.8989 109.782H117.146C118.25 109.782 119.146 108.886 119.146 107.782V83.5108H123.96C125.778 83.5108 126.653 81.2817 125.32 80.045L94.2526 51.2049C94.0405 51.0079 93.7617 50.8984 93.4721 50.8984Z" />
  </mask>
  <path fill-rule="evenodd" clip-rule="evenodd"
    d="M93.4721 50.8984C93.1826 50.8984 92.9038 51.0079 92.6916 51.2049L61.6238 80.045C60.2915 81.2817 61.1666 83.5108 62.9845 83.5108H66.8989V107.782C66.8989 108.886 67.7943 109.782 68.8989 109.782H117.146C118.25 109.782 119.146 108.886 119.146 107.782V83.5108H123.96C125.778 83.5108 126.653 81.2817 125.32 80.045L94.2526 51.2049C94.0405 51.0079 93.7617 50.8984 93.4721 50.8984Z"
    fill="#669C95" />
  <path
    d="M92.6916 51.2049L94.7327 53.4035L94.7327 53.4035L92.6916 51.2049ZM61.6238 80.045L59.5828 77.8463L61.6238 80.045ZM66.8989 83.5108H69.8989V80.5108H66.8989V83.5108ZM119.146 83.5108V80.5108H116.146V83.5108H119.146ZM125.32 80.045L123.279 82.2436L125.32 80.045ZM94.2526 51.2049L92.2116 53.4035L92.2116 53.4035L94.2526 51.2049ZM94.7327 53.4035C94.39 53.7217 93.9397 53.8984 93.4721 53.8984V47.8984C92.4256 47.8984 91.4177 48.2941 90.6506 49.0062L94.7327 53.4035ZM63.6648 82.2436L94.7327 53.4035L90.6506 49.0062L59.5828 77.8463L63.6648 82.2436ZM62.9845 80.5108C63.8934 80.5108 64.331 81.6252 63.6648 82.2436L59.5828 77.8463C56.252 80.9382 58.4398 86.5108 62.9845 86.5108V80.5108ZM66.8989 80.5108H62.9845V86.5108H66.8989V80.5108ZM69.8989 107.782V83.5108H63.8989V107.782H69.8989ZM68.8989 106.782C69.4512 106.782 69.8989 107.23 69.8989 107.782H63.8989C63.8989 110.543 66.1375 112.782 68.8989 112.782V106.782ZM117.146 106.782H68.8989V112.782H117.146V106.782ZM116.146 107.782C116.146 107.23 116.593 106.782 117.146 106.782V112.782C119.907 112.782 122.146 110.543 122.146 107.782H116.146ZM116.146 83.5108V107.782H122.146V83.5108H116.146ZM123.96 80.5108H119.146V86.5108H123.96V80.5108ZM123.279 82.2436C122.613 81.6253 123.051 80.5108 123.96 80.5108V86.5108C128.505 86.5108 130.692 80.9382 127.362 77.8463L123.279 82.2436ZM92.2116 53.4035L123.279 82.2436L127.362 77.8463L96.2937 49.0062L92.2116 53.4035ZM93.4721 53.8984C93.0046 53.8984 92.5543 53.7217 92.2116 53.4035L96.2937 49.0062C95.5266 48.2941 94.5187 47.8984 93.4721 47.8984V53.8984Z"
    fill="#364859" mask="url(#path-6-inside-3)" />
  <mask id="path-8-inside-4" fill="white">
    <rect x="84.9141" y="89.8535" width="16.2145" height="19.9297" rx="2" />
  </mask>
  <rect x="84.9141" y="89.8535" width="16.2145" height="19.9297" rx="2" stroke="#364859" stroke-width="6"
    mask="url(#path-8-inside-4)" />
</svg>