<svg width="162" height="176" viewBox="0 0 162 176" fill="none" xmlns="http://www.w3.org/2000/svg">
  <g filter="url(#filter0_d)">
    <path
      d="M79.0186 7.12984C80.2467 6.42954 81.7533 6.42954 82.9814 7.12984L149.129 44.8489C150.378 45.5606 151.148 46.887 151.148 48.3237V123.676C151.148 125.113 150.378 126.439 149.129 127.151L82.9814 164.87C81.7533 165.57 80.2467 165.57 79.0186 164.87L12.8705 127.151C11.6225 126.439 10.8519 125.113 10.8519 123.676V48.3237C10.8519 46.887 11.6225 45.5606 12.8705 44.8489L79.0186 7.12984Z"
      fill="#569289" />
  </g>
  <path
    d="M58.1639 58H39C36.7909 58 35 59.7909 35 62V126C35 128.209 36.7909 130 39 130H123.656C125.865 130 127.656 128.209 127.656 126V62C127.656 59.7909 125.865 58 123.656 58H104.492"
    stroke="#364859" stroke-width="3" stroke-linecap="round" stroke-linejoin="round" />
  <path d="M36.5 80.5H61V89.5" stroke="#364859" stroke-width="3" stroke-linecap="round" stroke-linejoin="round" />
  <path d="M37 111H61.5V102" stroke="#364859" stroke-width="3" stroke-linecap="round" stroke-linejoin="round" />
  <path d="M125.5 81H101V100" stroke="#364859" stroke-width="3" stroke-linecap="round" stroke-linejoin="round" />
  <path d="M76 111H101H92.1765V117V129" stroke="#364859" stroke-width="3" stroke-linecap="round"
    stroke-linejoin="round" />
  <path
    d="M88.5385 72.0476C88.5385 73.3611 87.9874 74.6207 87.0064 75.5495C86.0254 76.4782 84.695 77 83.3077 77H80.6923C79.305 77 77.9746 76.4782 76.9936 75.5495C76.0126 74.6207 75.4615 73.3611 75.4615 72.0476H78.0769C78.0769 72.7044 78.3525 73.3342 78.843 73.7986C79.3334 74.2629 79.9987 74.5238 80.6923 74.5238H83.3077C84.0013 74.5238 84.6666 74.2629 85.157 73.7986C85.6475 73.3342 85.9231 72.7044 85.9231 72.0476H88.5385ZM91.1538 65.6646C91.1538 66.978 90.6027 68.2377 89.6218 69.1664C88.6408 70.0952 87.3104 70.6169 85.9231 70.6169H78.0769C76.6896 70.6169 75.3592 70.0952 74.3782 69.1664C73.3973 68.2377 72.8462 66.978 72.8462 65.6646V60.6577C69.7479 58.7833 67.375 56.0084 66.0834 52.7491C64.7918 49.4898 64.6511 45.922 65.6824 42.5806C66.7137 39.2393 68.8615 36.3045 71.8035 34.2166C74.7455 32.1286 78.3232 31 82 31C85.6768 31 89.2545 32.1286 92.1965 34.2166C95.1385 36.3045 97.2863 39.2393 98.3176 42.5806C99.3489 45.922 99.2082 49.4898 97.9166 52.7491C96.625 56.0084 94.2521 58.7833 91.1538 60.6577V65.6646ZM75.4615 65.6646C75.4615 66.3213 75.7371 66.9511 76.2276 67.4155C76.718 67.8799 77.3833 68.1407 78.0769 68.1407H85.9231C86.6167 68.1407 87.282 67.8799 87.7724 67.4155C88.2629 66.9511 88.5385 66.3213 88.5385 65.6646V59.2265C91.4158 57.8363 93.7151 55.5697 95.0661 52.7917C96.4171 50.0137 96.7412 46.886 95.9861 43.9124C95.231 40.9387 93.4408 38.2923 90.9037 36.3992C88.3666 34.5062 85.2303 33.4768 82 33.4768C78.7697 33.4768 75.6334 34.5062 73.0963 36.3992C70.5592 38.2923 68.769 40.9387 68.0139 43.9124C67.2588 46.886 67.5829 50.0137 68.9339 52.7917C70.2849 55.5697 72.5842 57.8363 75.4615 59.2265V65.6646Z"
    fill="white" />
  <defs>
    <filter id="filter0_d" x="2.8519" y="0.604614" width="156.296" height="174.79" filterUnits="userSpaceOnUse"
      color-interpolation-filters="sRGB">
      <feFlood flood-opacity="0" result="BackgroundImageFix" />
      <feColorMatrix in="SourceAlpha" type="matrix" values="0 0 0 0 0 0 0 0 0 0 0 0 0 0 0 0 0 0 127 0" />
      <feOffset dy="2" />
      <feGaussianBlur stdDeviation="4" />
      <feColorMatrix type="matrix" values="0 0 0 0 0 0 0 0 0 0 0 0 0 0 0 0 0 0 0.25 0" />
      <feBlend mode="normal" in2="BackgroundImageFix" result="effect1_dropShadow" />
      <feBlend mode="normal" in="SourceGraphic" in2="effect1_dropShadow" result="shape" />
    </filter>
  </defs>
</svg>