<svg width="97" height="101" viewBox="0 0 97 101" fill="none" xmlns="http://www.w3.org/2000/svg">
  <path
    d="M25.1639 27H6C3.79086 27 2 28.7909 2 31V95C2 97.2091 3.79086 99 6 99H90.6557C92.8649 99 94.6557 97.2091 94.6557 95V31C94.6557 28.7909 92.8649 27 90.6557 27H71.4918"
    stroke="#364859" stroke-width="3" stroke-linecap="round" stroke-linejoin="round" />
  <path d="M3.5 49.5H28V58.5" stroke="#364859" stroke-width="3" stroke-linecap="round" stroke-linejoin="round" />
  <path d="M4 80H28.5V71" stroke="#364859" stroke-width="3" stroke-linecap="round" stroke-linejoin="round" />
  <path d="M92.5 50H68V69" stroke="#364859" stroke-width="3" stroke-linecap="round" stroke-linejoin="round" />
  <path d="M43 80H68H59.1765V86V98" stroke="#364859" stroke-width="3" stroke-linecap="round" stroke-linejoin="round" />
  <path
    d="M55.5385 41.0476C55.5385 42.3611 54.9874 43.6207 54.0064 44.5495C53.0254 45.4782 51.695 46 50.3077 46H47.6923C46.305 46 44.9746 45.4782 43.9936 44.5495C43.0126 43.6207 42.4615 42.3611 42.4615 41.0476H45.0769C45.0769 41.7044 45.3525 42.3342 45.843 42.7986C46.3334 43.2629 46.9987 43.5238 47.6923 43.5238H50.3077C51.0013 43.5238 51.6666 43.2629 52.157 42.7986C52.6475 42.3342 52.9231 41.7044 52.9231 41.0476H55.5385ZM58.1538 34.6646C58.1538 35.978 57.6027 37.2377 56.6218 38.1664C55.6408 39.0952 54.3104 39.6169 52.9231 39.6169H45.0769C43.6896 39.6169 42.3592 39.0952 41.3782 38.1664C40.3973 37.2377 39.8462 35.978 39.8462 34.6646V29.6577C36.7479 27.7833 34.375 25.0084 33.0834 21.7491C31.7918 18.4898 31.6511 14.922 32.6824 11.5806C33.7137 8.23925 35.8615 5.30451 38.8035 3.21656C41.7455 1.12861 45.3232 0 49 0C52.6768 0 56.2545 1.12861 59.1965 3.21656C62.1385 5.30451 64.2863 8.23925 65.3176 11.5806C66.3489 14.922 66.2082 18.4898 64.9166 21.7491C63.625 25.0084 61.2521 27.7833 58.1538 29.6577V34.6646ZM42.4615 34.6646C42.4615 35.3213 42.7371 35.9511 43.2276 36.4155C43.718 36.8799 44.3833 37.1407 45.0769 37.1407H52.9231C53.6167 37.1407 54.282 36.8799 54.7724 36.4155C55.2629 35.9511 55.5385 35.3213 55.5385 34.6646V28.2265C58.4158 26.8363 60.7151 24.5697 62.0661 21.7917C63.4171 19.0137 63.7412 15.886 62.9861 12.9124C62.231 9.93872 60.4408 7.29227 57.9037 5.39924C55.3666 3.5062 52.2303 2.47679 49 2.47679C45.7697 2.47679 42.6334 3.5062 40.0963 5.39924C37.5592 7.29227 35.769 9.93872 35.0139 12.9124C34.2588 15.886 34.5829 19.0137 35.9339 21.7917C37.2849 24.5697 39.5842 26.8363 42.4615 28.2265V34.6646Z"
    fill="white" />
</svg>