<svg width="45" height="52" viewBox="0 0 45 52" fill="none" xmlns="http://www.w3.org/2000/svg">
  <path d="M44.1323 13.3685L22.5 0.999553L0.867722 13.3685V38.0917L22.5 50.4606L44.1323 38.0917V13.3685Z"
    stroke="#364859" stroke-width="1.73545" />
  <path d="M24.2333 10.6088V49.0899L38.7358 40.7996V18.8991L24.2333 10.6088Z" stroke="#364859" stroke-width="1.73545" />
  <path d="M24.2333 17.1283V49.0955L38.7358 40.8052V25.4187L24.2333 17.1283Z" stroke="#364859" stroke-width="1.73545" />
  <path d="M24.2333 23.6322V49.0854L38.7358 40.7951V31.9226L24.2333 23.6322Z" stroke="#364859" stroke-width="1.73545" />
  <path d="M24.2333 30.1518V49.091L38.7358 40.8007V38.4421L24.2333 30.1518Z" stroke="#364859" stroke-width="1.73545" />
  <path d="M35.1013 42.8761L31.0539 40.5625L24.2333 36.6635V49.0888L35.1013 42.8761Z" stroke="#364859"
    stroke-width="1.73545" />
  <path d="M20.7648 49.0955L6.26225 40.8052V25.4187L20.7648 17.1283V49.0955Z" stroke="#56928A" stroke-width="1.73545" />
</svg>