<svg width="45" height="52" viewBox="0 0 45 52" fill="none" xmlns="http://www.w3.org/2000/svg">
  <path d="M44.1323 13.3685L22.5 0.999512L0.867737 13.3685V38.0917L22.5 50.4606L44.1323 38.0917V13.3685Z"
    stroke="#364859" stroke-width="1.73545" />
  <path
    d="M22.9921 14.3899C22.6871 14.216 22.3129 14.216 22.0079 14.3899L4.43885 24.4086C4.12887 24.5853 3.9375 24.9147 3.9375 25.2716V45.1467C3.9375 45.5753 4.21234 45.9556 4.61927 46.0901L22.1883 51.8957C22.3908 51.9626 22.6093 51.9626 22.8118 51.8957L40.3807 46.0901C40.7877 45.9556 41.0625 45.5753 41.0625 45.1467V25.2716C41.0625 24.9147 40.8711 24.5853 40.5612 24.4086L22.9921 14.3899Z"
    fill="white" />
  <path d="M24.2333 10.6088V49.0899L38.7358 40.7996V18.8991L24.2333 10.6088Z" stroke="#364859" stroke-width="1.73545" />
  <path d="M24.2333 17.1283V49.0955L38.7358 40.8052V25.4187L24.2333 17.1283Z" stroke="#364859" stroke-width="1.73545" />
  <path d="M24.2333 23.6322V49.0854L38.7358 40.7951V31.9226L24.2333 23.6322Z" stroke="#364859" stroke-width="1.73545" />
  <path d="M24.2333 30.1519V49.0911L38.7358 40.8008V38.4422L24.2333 30.1519Z" stroke="#364859" stroke-width="1.73545" />
  <path d="M35.1013 42.876L31.0539 40.5625L24.2333 36.6635V49.0887L35.1013 42.876Z" stroke="#364859"
    stroke-width="1.73545" />
  <path d="M20.7658 49.0955L6.26324 40.8052V25.4187L20.7658 17.1283V49.0955Z" stroke="#56928A" stroke-width="1.73545" />
</svg>