<svg width="42" height="42" viewBox="0 0 42 42" fill="none" xmlns="http://www.w3.org/2000/svg">
  <path
    d="M20.775 1.2846C20.9142 1.20422 21.0858 1.20422 21.225 1.2846L37.9615 10.9474C38.1008 11.0278 38.1865 11.1764 38.1865 11.3372V30.6628C38.1865 30.8236 38.1008 30.9722 37.9615 31.0526L21.225 40.7154C21.0858 40.7958 20.9142 40.7958 20.775 40.7154L4.03847 31.0526C3.89924 30.9722 3.81347 30.8236 3.81347 30.6628V11.3372C3.81347 11.1764 3.89924 11.0278 4.03847 10.9474L20.775 1.2846Z"
    fill="white" stroke="#56928A" stroke-width="2" />
  <path
    d="M20 28C24.4183 28 28 24.4183 28 20C28 15.5817 24.4183 12 20 12C15.5817 12 12 15.5817 12 20C12 24.4183 15.5817 28 20 28Z"
    stroke="#364859" stroke-width="2" stroke-linecap="round" stroke-linejoin="round" />
  <path d="M29.9984 30.0023L25.6484 25.6523" stroke="#364859" stroke-width="2" stroke-linecap="round"
    stroke-linejoin="round" />
</svg>