<svg width="162" height="176" viewBox="0 0 162 176" fill="none" xmlns="http://www.w3.org/2000/svg">
  <g filter="url(#filter0_d)">
    <path
      d="M79.0186 7.12984C80.2467 6.42954 81.7533 6.42954 82.9814 7.12984L149.129 44.8489C150.378 45.5606 151.148 46.887 151.148 48.3237V123.676C151.148 125.113 150.378 126.439 149.129 127.151L82.9814 164.87C81.7533 165.57 80.2467 165.57 79.0186 164.87L12.8705 127.151C11.6225 126.439 10.8519 125.113 10.8519 123.676V48.3237C10.8519 46.887 11.6225 45.5606 12.8705 44.8489L79.0186 7.12984Z"
      fill="#569289" />
  </g>
  <path
    d="M79.875 60.9998C78.268 60.9998 76.6971 60.5232 75.361 59.6305C74.0248 58.7377 72.9834 57.4687 72.3685 55.9841C71.7535 54.4994 71.5926 52.8657 71.9061 51.2897C72.2196 49.7136 72.9935 48.2658 74.1298 47.1295C75.2661 45.9932 76.7138 45.2194 78.2899 44.9059C79.866 44.5924 81.4997 44.7533 82.9843 45.3682C84.469 45.9832 85.7379 47.0246 86.6307 48.3608C87.5235 49.6969 88 51.2678 88 52.8748C87.9974 55.0289 87.1406 57.094 85.6174 58.6172C84.0942 60.1403 82.0291 60.9972 79.875 60.9998ZM79.875 47.9998C78.9108 47.9998 77.9683 48.2857 77.1666 48.8213C76.3649 49.357 75.7401 50.1184 75.3711 51.0092C75.0021 51.9 74.9056 52.8802 75.0937 53.8258C75.2818 54.7715 75.7461 55.6401 76.4279 56.3219C77.1096 57.0037 77.9783 57.468 78.9239 57.6561C79.8696 57.8442 80.8498 57.7477 81.7406 57.3787C82.6314 57.0097 83.3927 56.3849 83.9284 55.5832C84.4641 54.7815 84.75 53.8389 84.75 52.8748C84.7487 51.5822 84.2347 50.343 83.3207 49.429C82.4068 48.5151 81.1675 48.0011 79.875 47.9998Z"
    fill="white" />
  <path
    d="M79.875 80.4998L66.1665 64.3326C65.976 64.0899 65.7875 63.8456 65.601 63.5998C63.2594 60.5152 61.9943 56.7475 62 52.8748C62 48.134 63.8833 43.5874 67.2355 40.2352C70.5877 36.883 75.1343 34.9998 79.875 34.9998C84.6158 34.9998 89.1623 36.883 92.5146 40.2352C95.8668 43.5874 97.75 48.134 97.75 52.8748C97.7557 56.7457 96.4912 60.5117 94.1506 63.5949L94.149 63.5998C94.149 63.5998 93.6615 64.24 93.5884 64.3261L79.875 80.4998ZM68.1945 61.6416C68.1978 61.6416 68.5748 62.1421 68.6609 62.2494L79.875 75.4753L91.1038 62.2315C91.1753 62.1421 91.5555 61.6384 91.5571 61.6368C93.47 59.1166 94.5038 56.0387 94.5 52.8748C94.5 48.996 92.9592 45.276 90.2165 42.5333C87.4737 39.7906 83.7538 38.2498 79.875 38.2498C75.9962 38.2498 72.2763 39.7906 69.5336 42.5333C66.7909 45.276 65.25 48.996 65.25 52.8748C65.2466 56.0406 66.2815 59.1203 68.1961 61.6416H68.1945Z"
    fill="white" />
  <path
    d="M57.1639 57.9998H38C35.7909 57.9998 34 59.7906 34 61.9998V126C34 128.209 35.7909 130 38 130H122.656C124.865 130 126.656 128.209 126.656 126V61.9998C126.656 59.7906 124.865 57.9998 122.656 57.9998H103.492"
    stroke="#364859" stroke-width="3" stroke-linecap="round" stroke-linejoin="round" />
  <mask id="mask0" mask-type="alpha" maskUnits="userSpaceOnUse" x="34" y="57" width="93" height="73">
    <path
      d="M35.5 61.9998C35.5 60.619 36.6193 59.4998 38 59.4998H122.656C124.036 59.4998 125.156 60.619 125.156 61.9998V126C125.156 127.38 124.036 128.5 122.656 128.5H38C36.6193 128.5 35.5 127.38 35.5 126V61.9998Z"
      fill="#C4C4C4" stroke="#364859" stroke-width="3" />
  </mask>
  <g mask="url(#mask0)">
    <path
      d="M147.809 115.652L107.096 86.9094C105.968 86.113 104.408 86.3819 103.612 87.5098L92.9092 102.67C92.1129 103.798 92.3817 105.358 93.5096 106.154L134.222 134.897C135.35 135.693 136.91 135.424 137.706 134.296L148.409 119.136C149.205 118.009 148.936 116.449 147.809 115.652Z"
      stroke="#364859" stroke-width="3" />
    <path
      d="M103.71 148.855L62.9978 120.112C61.8699 119.316 60.31 119.584 59.5136 120.712L49.3359 135.128C48.5395 136.256 48.8084 137.816 49.9363 138.613L90.6485 167.355C91.7764 168.152 93.3363 167.883 94.1326 166.755L104.31 152.339C105.107 151.211 104.838 149.651 103.71 148.855Z"
      stroke="#364859" stroke-width="3" />
    <path
      d="M48.2354 107.98L7.5232 79.237C6.39527 78.4407 4.83535 78.7095 4.03902 79.8374L-6.13875 94.2535C-6.93508 95.3814 -6.66625 96.9413 -5.53832 97.7376L35.1739 126.481C36.3018 127.277 37.8617 127.008 38.658 125.88L48.8358 111.464C49.6321 110.336 49.3633 108.776 48.2354 107.98Z"
      stroke="#364859" stroke-width="3" />
    <path
      d="M117.96 129.754L36.3757 72.155C35.2478 71.3587 33.6879 71.6275 32.8916 72.7554L28.3178 79.2338C27.5214 80.3618 27.7903 81.9217 28.9182 82.718L110.503 140.317C111.63 141.113 113.19 140.844 113.987 139.716L118.56 133.238C119.357 132.11 119.088 130.55 117.96 129.754Z"
      stroke="#364859" stroke-width="3" />
  </g>
  <defs>
    <filter id="filter0_d" x="2.85193" y="0.604614" width="156.296" height="174.79" filterUnits="userSpaceOnUse"
      color-interpolation-filters="sRGB">
      <feFlood flood-opacity="0" result="BackgroundImageFix" />
      <feColorMatrix in="SourceAlpha" type="matrix" values="0 0 0 0 0 0 0 0 0 0 0 0 0 0 0 0 0 0 127 0" />
      <feOffset dy="2" />
      <feGaussianBlur stdDeviation="4" />
      <feColorMatrix type="matrix" values="0 0 0 0 0 0 0 0 0 0 0 0 0 0 0 0 0 0 0.25 0" />
      <feBlend mode="normal" in2="BackgroundImageFix" result="effect1_dropShadow" />
      <feBlend mode="normal" in="SourceGraphic" in2="effect1_dropShadow" result="shape" />
    </filter>
  </defs>
</svg>