<svg width="97" height="97" viewBox="0 0 97 97" fill="none" xmlns="http://www.w3.org/2000/svg">
  <path
    d="M25.1639 23H6C3.79086 23 2 24.7909 2 27V91C2 93.2091 3.79086 95 6 95H90.6557C92.8649 95 94.6557 93.2091 94.6557 91V27C94.6557 24.7909 92.8649 23 90.6557 23H71.4918"
    stroke="#364859" stroke-width="3" stroke-linecap="round" stroke-linejoin="round" />
  <mask id="mask0" mask-type="alpha" maskUnits="userSpaceOnUse" x="2" y="23" width="93" height="72">
    <path
      d="M3.5 27C3.5 25.6193 4.61929 24.5 6 24.5H90.6557C92.0364 24.5 93.1557 25.6193 93.1557 27V91C93.1557 92.3807 92.0364 93.5 90.6557 93.5H6C4.61929 93.5 3.5 92.3807 3.5 91V27Z"
      fill="#C4C4C4" stroke="#364859" stroke-width="3" />
  </mask>
  <g mask="url(#mask0)">
    <rect x="73.0556" y="50.4675" width="54.8361" height="23.5574" rx="2.5" transform="rotate(35.2222 73.0556 50.4675)"
      stroke="#364859" stroke-width="3" />
    <rect x="28.954" y="83.6706" width="54.8361" height="22.6468" rx="2.5" transform="rotate(35.2222 28.954 83.6706)"
      stroke="#364859" stroke-width="3" />
    <rect x="-26.5186" y="42.7956" width="54.8361" height="22.6468" rx="2.5"
      transform="rotate(35.2222 -26.5186 42.7956)" stroke="#364859" stroke-width="3" />
    <rect x="2.33292" y="35.7136" width="104.868" height="12.9303" rx="2.5" transform="rotate(35.2222 2.33292 35.7136)"
      stroke="#364859" stroke-width="3" />
  </g>
  <path
    d="M47.875 26C46.268 26 44.6971 25.5235 43.361 24.6307C42.0248 23.7379 40.9834 22.469 40.3685 20.9843C39.7535 19.4997 39.5926 17.866 39.9061 16.2899C40.2196 14.7138 40.9935 13.2661 42.1298 12.1298C43.2661 10.9935 44.7138 10.2196 46.2899 9.90612C47.866 9.59262 49.4997 9.75352 50.9843 10.3685C52.469 10.9834 53.7379 12.0248 54.6307 13.361C55.5235 14.6971 56 16.268 56 17.875C55.9974 20.0291 55.1406 22.0942 53.6174 23.6174C52.0942 25.1406 50.0291 25.9974 47.875 26ZM47.875 13C46.9108 13 45.9683 13.2859 45.1666 13.8216C44.3649 14.3573 43.7401 15.1186 43.3711 16.0094C43.0021 16.9002 42.9056 17.8804 43.0937 18.8261C43.2818 19.7717 43.7461 20.6404 44.4279 21.3222C45.1096 22.0039 45.9783 22.4682 46.9239 22.6563C47.8696 22.8444 48.8498 22.7479 49.7406 22.3789C50.6314 22.0099 51.3927 21.3851 51.9284 20.5834C52.4641 19.7817 52.75 18.8392 52.75 17.875C52.7487 16.5825 52.2347 15.3432 51.3207 14.4293C50.4068 13.5153 49.1675 13.0013 47.875 13Z"
    fill="white" />
  <path
    d="M47.875 45.5L34.1665 29.3329C33.976 29.0901 33.7875 28.8458 33.601 28.6C31.2594 25.5154 29.9943 21.7477 30 17.875C30 13.1343 31.8833 8.58768 35.2355 5.23547C38.5877 1.88325 43.1343 0 47.875 0C52.6158 0 57.1623 1.88325 60.5146 5.23547C63.8668 8.58768 65.75 13.1343 65.75 17.875C65.7557 21.746 64.4912 25.5119 62.1506 28.5951L62.149 28.6C62.149 28.6 61.6615 29.2403 61.5884 29.3264L47.875 45.5ZM36.1945 26.6419C36.1978 26.6419 36.5748 27.1424 36.6609 27.2496L47.875 40.4755L59.1038 27.2317C59.1753 27.1424 59.5555 26.6386 59.5571 26.637C61.47 24.1168 62.5038 21.0389 62.5 17.875C62.5 13.9962 60.9592 10.2763 58.2165 7.53356C55.4737 4.79084 51.7538 3.25 47.875 3.25C43.9962 3.25 40.2763 4.79084 37.5336 7.53356C34.7909 10.2763 33.25 13.9962 33.25 17.875C33.2466 21.0409 34.2815 24.1205 36.1961 26.6419H36.1945Z"
    fill="white" />
</svg>