<svg width="162" height="160" viewBox="0 0 162 160" fill="none" xmlns="http://www.w3.org/2000/svg">
<path opacity="0.8" d="M79.0186 1.12984C80.2467 0.429539 81.7533 0.429538 82.9814 1.12984L149.129 38.8489C150.378 39.5606 151.148 40.887 151.148 42.3237V117.676C151.148 119.113 150.378 120.439 149.129 121.151L82.9814 158.87C81.7533 159.57 80.2467 159.57 79.0186 158.87L12.8705 121.151C11.6225 120.439 10.8519 119.113 10.8519 117.676V42.3237C10.8519 40.887 11.6225 39.5606 12.8705 38.8489L79.0186 1.12984Z" fill="#669C95"/>
<path d="M79.7627 9.43091C80.5297 8.99407 81.4703 8.99407 82.2373 9.43091L142.323 43.6527C143.104 44.0973 143.586 44.9267 143.586 45.8251V114.175C143.586 115.073 143.104 115.903 142.323 116.347L82.2373 150.569C81.4703 151.006 80.5297 151.006 79.7627 150.569L19.6769 116.347C18.8962 115.903 18.4141 115.073 18.4141 114.175V45.8251C18.4141 44.9267 18.8962 44.0974 19.6769 43.6527L79.7627 9.43091Z" fill="#669C95" stroke="white" stroke-width="3"/>
<path d="M79.0914 113.002V111.661H77.7508H41.094C38.4738 111.661 36.3407 109.528 36.3407 106.908V54.0948C36.3422 52.8344 36.8435 51.626 37.7348 50.7348C38.626 49.8435 39.8344 49.3422 41.0948 49.3407H120.907C122.167 49.3422 123.376 49.8435 124.267 50.7348C125.158 51.6262 125.66 52.8348 125.661 54.0954V106.906C125.66 108.167 125.158 109.376 124.267 110.267C123.376 111.158 122.167 111.66 120.906 111.661H84.251H82.9103V113.002V119.502V120.843H84.251H94.0013C95.0559 120.843 95.9108 121.698 95.9108 122.752C95.9108 123.807 95.0559 124.662 94.0013 124.662H68.0004C66.9459 124.662 66.091 123.807 66.091 122.752C66.091 121.698 66.9459 120.843 68.0004 120.843H77.7508H79.0914V119.502V113.002Z" stroke="#364859" stroke-width="2.68134"/>
<path d="M52.4453 88.3887H76.8856" stroke="#364859" stroke-linecap="round" stroke-linejoin="round"/>
<path d="M52.4453 91.3438H72.0295" stroke="#364859" stroke-linecap="round" stroke-linejoin="round"/>
<mask id="path-6-inside-1" fill="white">
<rect x="47" y="88" width="3.47764" height="3.47764" rx="0.793632"/>
</mask>
<rect x="47" y="88" width="3.47764" height="3.47764" rx="0.793632" stroke="#364859" stroke-width="2" mask="url(#path-6-inside-1)"/>
<mask id="path-7-inside-2" fill="white">
<rect x="48" y="60" width="67" height="6" rx="0.793632"/>
</mask>
<rect x="48" y="60" width="67" height="6" rx="0.793632" stroke="#364859" stroke-width="4" mask="url(#path-7-inside-2)"/>
<mask id="path-8-inside-3" fill="white">
<rect x="48" y="71" width="67" height="11" rx="0.793632"/>
</mask>
<rect x="48" y="71" width="67" height="11" rx="0.793632" stroke="#364859" stroke-width="4" mask="url(#path-8-inside-3)"/>
<mask id="path-9-inside-4" fill="white">
<rect x="81" y="87.3223" width="33.7292" height="12.8671" rx="1"/>
</mask>
<rect x="81" y="87.3223" width="33.7292" height="12.8671" rx="1" stroke="white" stroke-width="4" mask="url(#path-9-inside-4)"/>
<path d="M110.618 102.803L111.209 103.128L110.618 102.803C110.801 102.471 111.074 102.197 111.407 102.014L116.509 99.208L102.92 94.3158L107.812 107.905L110.618 102.803Z" fill="white" stroke="#364859" stroke-width="2"/>
<path d="M117.208 107.321C117.598 107.712 117.598 108.345 117.208 108.735C116.817 109.126 116.184 109.126 115.794 108.735L117.208 107.321ZM111.77 101.883L117.208 107.321L115.794 108.735L110.355 103.297L111.77 101.883Z" fill="#364859"/>
</svg>
