<svg width="142" height="160" viewBox="0 0 142 160" fill="none" xmlns="http://www.w3.org/2000/svg">
  <path
    d="M69.0186 1.12984C70.2467 0.429539 71.7533 0.429538 72.9814 1.12984L139.129 38.8489C140.378 39.5606 141.148 40.887 141.148 42.3237V117.676C141.148 119.113 140.378 120.439 139.129 121.151L72.9814 158.87C71.7533 159.57 70.2467 159.57 69.0186 158.87L2.87055 121.151C1.62247 120.439 0.851944 119.113 0.851944 117.676V42.3237C0.851944 40.887 1.62247 39.5606 2.87055 38.8489L69.0186 1.12984Z"
    fill="#669C95" />
  <path d="M74.9638 102.816L69.8057 116.167M69.8057 116.167L64.6476 102.816M69.8057 116.167V131.641H78.3014H60.7031"
    stroke="#364859" stroke-width="3" stroke-linecap="round" stroke-linejoin="round" />
  <mask id="nature-path-3-inside-1" fill="white">
    <path fill-rule="evenodd" clip-rule="evenodd"
      d="M86.0556 47.1625C86.1414 46.5095 86.1856 45.8434 86.1856 45.167C86.1856 36.7884 79.3934 29.9961 71.0147 29.9961C62.636 29.9961 55.8438 36.7884 55.8438 45.167C55.8438 45.7919 55.8815 46.408 55.9549 47.013C54.5757 46.6005 53.114 46.3789 51.6006 46.3789C43.2219 46.3789 36.4297 53.1712 36.4297 61.5498C36.4297 65.6528 38.0584 69.3753 40.7046 72.1061C36.7664 73.7564 34 77.6475 34 82.1848C34 88.2174 38.8904 93.1079 44.9231 93.1079C46.0477 93.1079 47.1327 92.9379 48.1536 92.6223C48.3604 93.0007 48.576 93.3726 48.8001 93.7375C47.8786 95.3392 47.3516 97.1965 47.3516 99.177C47.3516 105.21 52.242 110.1 58.2746 110.1C62.3202 110.1 65.8521 107.901 67.7399 104.632C71.9677 104.558 75.9116 103.188 79.2628 100.866C81.2552 103.524 84.4312 105.245 88.009 105.245C94.0417 105.245 98.9321 100.354 98.9321 94.3215C98.9321 92.8126 98.6261 91.3751 98.0728 90.0677C102.241 87.3638 104.998 82.6694 104.998 77.3311C104.998 71.5786 101.796 66.5739 97.0779 64.0017C98.2488 62.2617 98.9321 60.1663 98.9321 57.9114C98.9321 51.8787 94.0417 46.9883 88.009 46.9883C87.3422 46.9883 86.6894 47.048 86.0556 47.1625Z" />
  </mask>
  <path fill-rule="evenodd" clip-rule="evenodd"
    d="M86.0556 47.1625C86.1414 46.5095 86.1856 45.8434 86.1856 45.167C86.1856 36.7884 79.3934 29.9961 71.0147 29.9961C62.636 29.9961 55.8438 36.7884 55.8438 45.167C55.8438 45.7919 55.8815 46.408 55.9549 47.013C54.5757 46.6005 53.114 46.3789 51.6006 46.3789C43.2219 46.3789 36.4297 53.1712 36.4297 61.5498C36.4297 65.6528 38.0584 69.3753 40.7046 72.1061C36.7664 73.7564 34 77.6475 34 82.1848C34 88.2174 38.8904 93.1079 44.9231 93.1079C46.0477 93.1079 47.1327 92.9379 48.1536 92.6223C48.3604 93.0007 48.576 93.3726 48.8001 93.7375C47.8786 95.3392 47.3516 97.1965 47.3516 99.177C47.3516 105.21 52.242 110.1 58.2746 110.1C62.3202 110.1 65.8521 107.901 67.7399 104.632C71.9677 104.558 75.9116 103.188 79.2628 100.866C81.2552 103.524 84.4312 105.245 88.009 105.245C94.0417 105.245 98.9321 100.354 98.9321 94.3215C98.9321 92.8126 98.6261 91.3751 98.0728 90.0677C102.241 87.3638 104.998 82.6694 104.998 77.3311C104.998 71.5786 101.796 66.5739 97.0779 64.0017C98.2488 62.2617 98.9321 60.1663 98.9321 57.9114C98.9321 51.8787 94.0417 46.9883 88.009 46.9883C87.3422 46.9883 86.6894 47.048 86.0556 47.1625Z"
    fill="#569289" />
  <path
    d="M86.0556 47.1625L83.0811 46.7717L82.546 50.8446L86.5886 50.1147L86.0556 47.1625ZM55.9549 47.013L55.0952 49.8872L59.4849 51.2002L58.9331 46.6518L55.9549 47.013ZM40.7046 72.1061L41.8641 74.873L45.9173 73.1745L42.859 70.0184L40.7046 72.1061ZM48.1536 92.6223L50.7863 91.1839L49.6105 89.0317L47.2675 89.7561L48.1536 92.6223ZM48.8001 93.7375L51.4005 95.2336L52.2901 93.6874L51.3564 92.1674L48.8001 93.7375ZM67.7399 104.632L67.6869 101.633L65.9907 101.663L65.1421 103.132L67.7399 104.632ZM79.2628 100.866L81.6634 99.0669L79.93 96.754L77.5542 98.4003L79.2628 100.866ZM98.0728 90.0677L96.4401 87.5509L94.3296 88.9201L95.3101 91.2369L98.0728 90.0677ZM97.0779 64.0017L94.589 62.3269L92.7503 65.0594L95.6421 66.6358L97.0779 64.0017ZM83.1856 45.167C83.1856 45.7124 83.1499 46.2479 83.0811 46.7717L89.03 47.5533C89.1328 46.7711 89.1856 45.9745 89.1856 45.167H83.1856ZM71.0147 32.9961C77.7365 32.9961 83.1856 38.4452 83.1856 45.167H89.1856C89.1856 35.1315 81.0502 26.9961 71.0147 26.9961V32.9961ZM58.8438 45.167C58.8438 38.4452 64.2929 32.9961 71.0147 32.9961V26.9961C60.9792 26.9961 52.8438 35.1315 52.8438 45.167H58.8438ZM58.9331 46.6518C58.8742 46.1663 58.8438 45.6709 58.8438 45.167H52.8438C52.8438 45.9129 52.8889 46.6496 52.9768 47.3743L58.9331 46.6518ZM51.6006 49.3789C52.8198 49.3789 53.992 49.5572 55.0952 49.8872L56.8146 44.1389C55.1594 43.6438 53.4083 43.3789 51.6006 43.3789V49.3789ZM39.4297 61.5498C39.4297 54.828 44.8788 49.3789 51.6006 49.3789V43.3789C41.5651 43.3789 33.4297 51.5143 33.4297 61.5498H39.4297ZM42.859 70.0184C40.7333 67.8247 39.4297 64.8426 39.4297 61.5498H33.4297C33.4297 66.463 35.3836 70.9259 38.5502 74.1938L42.859 70.0184ZM37 82.1848C37 78.8984 39.0016 76.0725 41.8641 74.873L39.5451 69.3392C34.5313 71.4403 31 76.3967 31 82.1848H37ZM44.9231 90.1079C40.5473 90.1079 37 86.5606 37 82.1848H31C31 89.8743 37.2336 96.1079 44.9231 96.1079V90.1079ZM47.2675 89.7561C46.5303 89.984 45.7439 90.1079 44.9231 90.1079V96.1079C46.3515 96.1079 47.735 95.8918 49.0397 95.4884L47.2675 89.7561ZM51.3564 92.1674C51.1589 91.8458 50.9688 91.5179 50.7863 91.1839L45.5209 94.0606C45.752 94.4835 45.9931 94.8994 46.2439 95.3077L51.3564 92.1674ZM50.3516 99.177C50.3516 97.7354 50.7338 96.3923 51.4005 95.2336L46.1998 92.2414C45.0234 94.286 44.3516 96.6576 44.3516 99.177H50.3516ZM58.2746 107.1C53.8988 107.1 50.3516 103.553 50.3516 99.177H44.3516C44.3516 106.866 50.5851 113.1 58.2746 113.1V107.1ZM65.1421 103.132C63.7683 105.51 61.2053 107.1 58.2746 107.1V113.1C63.4351 113.1 67.9359 110.291 70.3377 106.133L65.1421 103.132ZM77.5542 98.4003C74.6594 100.406 71.286 101.569 67.6869 101.633L67.7929 107.632C72.6494 107.546 77.1638 105.97 80.9715 103.332L77.5542 98.4003ZM88.009 102.245C85.4158 102.245 83.1137 101.002 81.6634 99.0669L76.8622 102.665C79.3967 106.047 83.4467 108.245 88.009 108.245V102.245ZM95.9321 94.3215C95.9321 98.6973 92.3848 102.245 88.009 102.245V108.245C95.6985 108.245 101.932 102.011 101.932 94.3215H95.9321ZM95.3101 91.2369C95.7096 92.1811 95.9321 93.2215 95.9321 94.3215H101.932C101.932 92.4037 101.543 90.5691 100.836 88.8985L95.3101 91.2369ZM101.998 77.3311C101.998 81.6107 99.7916 85.3767 96.4401 87.5509L99.7055 92.5845C104.69 89.3509 107.998 83.7281 107.998 77.3311H101.998ZM95.6421 66.6358C99.4352 68.7035 101.998 72.7202 101.998 77.3311H107.998C107.998 70.437 104.158 64.4443 98.5138 61.3677L95.6421 66.6358ZM95.9321 57.9114C95.9321 59.5512 95.4371 61.0664 94.589 62.3269L99.5669 65.6766C101.06 63.457 101.932 60.7814 101.932 57.9114H95.9321ZM88.009 49.9883C92.3848 49.9883 95.9321 53.5356 95.9321 57.9114H101.932C101.932 50.2219 95.6985 43.9883 88.009 43.9883V49.9883ZM86.5886 50.1147C87.0473 50.0319 87.5218 49.9883 88.009 49.9883V43.9883C87.1627 43.9883 86.3315 44.0641 85.5226 44.2102L86.5886 50.1147Z"
    fill="#364859" mask="url(#nature-path-3-inside-1)" />
  <mask id="nature-path-5-inside-2" fill="white">
    <path
      d="M67.1377 79.2311C67.4847 78.7325 67.3643 78.0393 66.823 77.7636C65.2715 76.9735 63.4949 76.7044 61.7616 77.0151C59.6652 77.391 57.8039 78.5842 56.5873 80.3324C55.3707 82.0806 54.8983 84.2404 55.2742 86.3368C55.5849 88.0701 56.4544 89.6426 57.7343 90.823C58.1809 91.2348 58.8727 91.1069 59.2198 90.6083C59.5668 90.1096 59.4344 89.4302 59.0097 88.9958C58.1986 88.1663 57.6473 87.1069 57.4396 85.9486C57.1668 84.4265 57.5097 82.8583 58.393 81.5891C59.2764 80.3199 60.6277 79.4535 62.1498 79.1806C63.3081 78.973 64.4931 79.1219 65.5527 79.5942C66.1076 79.8416 66.7906 79.7298 67.1377 79.2311Z" />
  </mask>
  <path
    d="M67.1377 79.2311C67.4847 78.7325 67.3643 78.0393 66.823 77.7636C65.2715 76.9735 63.4949 76.7044 61.7616 77.0151C59.6652 77.391 57.8039 78.5842 56.5873 80.3324C55.3707 82.0806 54.8983 84.2404 55.2742 86.3368C55.5849 88.0701 56.4544 89.6426 57.7343 90.823C58.1809 91.2348 58.8727 91.1069 59.2198 90.6083C59.5668 90.1096 59.4344 89.4302 59.0097 88.9958C58.1986 88.1663 57.6473 87.1069 57.4396 85.9486C57.1668 84.4265 57.5097 82.8583 58.393 81.5891C59.2764 80.3199 60.6277 79.4535 62.1498 79.1806C63.3081 78.973 64.4931 79.1219 65.5527 79.5942C66.1076 79.8416 66.7906 79.7298 67.1377 79.2311Z"
    stroke="white" stroke-width="6" mask="url(#nature-path-5-inside-2)" />
  <mask id="nature-path-6-inside-3" fill="white">
    <path
      d="M76.7798 57.3951C76.5209 57.0231 76.6107 56.5059 77.0146 56.3002C78.1722 55.7106 79.4977 55.5099 80.791 55.7418C82.3551 56.0222 83.7438 56.9125 84.6516 58.2168C85.5593 59.5211 85.9117 61.1326 85.6313 62.6968C85.3995 63.99 84.7507 65.1633 83.7958 66.044C83.4626 66.3513 82.9464 66.2558 82.6874 65.8838C82.4285 65.5117 82.5273 65.0048 82.8442 64.6807C83.4493 64.0618 83.8607 63.2714 84.0156 62.4071C84.2192 61.2715 83.9634 60.1014 83.3043 59.1544C82.6452 58.2074 81.637 57.561 80.5013 57.3574C79.6371 57.2025 78.753 57.3136 77.9624 57.6661C77.5484 57.8506 77.0387 57.7672 76.7798 57.3951Z" />
  </mask>
  <path
    d="M76.7798 57.3951C76.5209 57.0231 76.6107 56.5059 77.0146 56.3002C78.1722 55.7106 79.4977 55.5099 80.791 55.7418C82.3551 56.0222 83.7438 56.9125 84.6516 58.2168C85.5593 59.5211 85.9117 61.1326 85.6313 62.6968C85.3995 63.99 84.7507 65.1633 83.7958 66.044C83.4626 66.3513 82.9464 66.2558 82.6874 65.8838C82.4285 65.5117 82.5273 65.0048 82.8442 64.6807C83.4493 64.0618 83.8607 63.2714 84.0156 62.4071C84.2192 61.2715 83.9634 60.1014 83.3043 59.1544C82.6452 58.2074 81.637 57.561 80.5013 57.3574C79.6371 57.2025 78.753 57.3136 77.9624 57.6661C77.5484 57.8506 77.0387 57.7672 76.7798 57.3951Z"
    stroke="white" stroke-width="6" mask="url(#nature-path-6-inside-3)" />
  <mask id="nature-path-7-inside-4" fill="white">
    <path
      d="M78.0095 86.7178C78.4405 87.1459 79.1441 87.1474 79.5093 86.662C80.0235 85.9787 80.4267 85.2158 80.7016 84.4011C81.0941 83.2379 81.2147 82.0002 81.0541 80.783C80.8935 79.5659 80.4561 78.4019 79.7753 77.3803C79.0945 76.3586 78.1886 75.5067 77.1271 74.8899C76.0657 74.2732 74.8769 73.908 73.6522 73.8224C72.4276 73.7368 71.1996 73.9332 70.0627 74.3964C68.9258 74.8596 67.9102 75.5772 67.0939 76.4943C66.5223 77.1365 66.0591 77.8646 65.7201 78.6496C65.4792 79.2074 65.8289 79.8179 66.4143 79.9803C66.9997 80.1427 67.597 79.7929 67.8663 79.2484C68.0968 78.7824 68.3894 78.3478 68.7373 77.9569C69.3299 77.2911 70.0672 76.7701 70.8927 76.4338C71.7182 76.0975 72.6097 75.9549 73.4989 76.017C74.3881 76.0792 75.2512 76.3443 76.0218 76.7921C76.7925 77.2399 77.4503 77.8585 77.9445 78.6002C78.4388 79.342 78.7564 80.1871 78.873 81.0708C78.9896 81.9545 78.9021 82.8531 78.6171 83.6977C78.4498 84.1934 78.2171 84.6628 77.9263 85.0939C77.5866 85.5975 77.5785 86.2896 78.0095 86.7178Z" />
  </mask>
  <path
    d="M78.0095 86.7178C78.4405 87.1459 79.1441 87.1474 79.5093 86.662C80.0235 85.9787 80.4267 85.2158 80.7016 84.4011C81.0941 83.2379 81.2147 82.0002 81.0541 80.783C80.8935 79.5659 80.4561 78.4019 79.7753 77.3803C79.0945 76.3586 78.1886 75.5067 77.1271 74.8899C76.0657 74.2732 74.8769 73.908 73.6522 73.8224C72.4276 73.7368 71.1996 73.9332 70.0627 74.3964C68.9258 74.8596 67.9102 75.5772 67.0939 76.4943C66.5223 77.1365 66.0591 77.8646 65.7201 78.6496C65.4792 79.2074 65.8289 79.8179 66.4143 79.9803C66.9997 80.1427 67.597 79.7929 67.8663 79.2484C68.0968 78.7824 68.3894 78.3478 68.7373 77.9569C69.3299 77.2911 70.0672 76.7701 70.8927 76.4338C71.7182 76.0975 72.6097 75.9549 73.4989 76.017C74.3881 76.0792 75.2512 76.3443 76.0218 76.7921C76.7925 77.2399 77.4503 77.8585 77.9445 78.6002C78.4388 79.342 78.7564 80.1871 78.873 81.0708C78.9896 81.9545 78.9021 82.8531 78.6171 83.6977C78.4498 84.1934 78.2171 84.6628 77.9263 85.0939C77.5866 85.5975 77.5785 86.2896 78.0095 86.7178Z"
    stroke="white" stroke-width="6" mask="url(#nature-path-7-inside-4)" />
  <mask id="nature-path-8-inside-5" fill="white">
    <path
      d="M68.6688 62.9806C68.3472 63.3001 67.8223 63.3012 67.5498 62.939C67.1661 62.4292 66.8653 61.86 66.6602 61.2521C66.3673 60.3842 66.2774 59.4608 66.3972 58.5527C66.517 57.6446 66.8434 56.776 67.3513 56.0138C67.8593 55.2516 68.5352 54.6159 69.3272 54.1557C70.1191 53.6955 71.0061 53.4231 71.9198 53.3592C72.8336 53.2954 73.7498 53.4419 74.5981 53.7875C75.4463 54.1331 76.2041 54.6685 76.8131 55.3527C77.2396 55.8319 77.5852 56.3752 77.8381 56.9609C78.0178 57.377 77.7569 57.8325 77.3202 57.9537C76.8834 58.0749 76.4377 57.8139 76.2368 57.4076C76.0648 57.0599 75.8465 56.7357 75.587 56.4441C75.1448 55.9473 74.5946 55.5585 73.9788 55.3076C73.3629 55.0567 72.6976 54.9503 72.0342 54.9967C71.3708 55.043 70.7268 55.2409 70.1518 55.575C69.5768 55.9091 69.0861 56.3706 68.7173 56.924C68.3485 57.4774 68.1115 58.108 68.0245 58.7674C67.9375 59.4267 68.0029 60.0972 68.2155 60.7273C68.3403 61.0972 68.5139 61.4474 68.7309 61.769C68.9843 62.1448 68.9904 62.6612 68.6688 62.9806Z" />
  </mask>
  <path
    d="M68.6688 62.9806C68.3472 63.3001 67.8223 63.3012 67.5498 62.939C67.1661 62.4292 66.8653 61.86 66.6602 61.2521C66.3673 60.3842 66.2774 59.4608 66.3972 58.5527C66.517 57.6446 66.8434 56.776 67.3513 56.0138C67.8593 55.2516 68.5352 54.6159 69.3272 54.1557C70.1191 53.6955 71.0061 53.4231 71.9198 53.3592C72.8336 53.2954 73.7498 53.4419 74.5981 53.7875C75.4463 54.1331 76.2041 54.6685 76.8131 55.3527C77.2396 55.8319 77.5852 56.3752 77.8381 56.9609C78.0178 57.377 77.7569 57.8325 77.3202 57.9537C76.8834 58.0749 76.4377 57.8139 76.2368 57.4076C76.0648 57.0599 75.8465 56.7357 75.587 56.4441C75.1448 55.9473 74.5946 55.5585 73.9788 55.3076C73.3629 55.0567 72.6976 54.9503 72.0342 54.9967C71.3708 55.043 70.7268 55.2409 70.1518 55.575C69.5768 55.9091 69.0861 56.3706 68.7173 56.924C68.3485 57.4774 68.1115 58.108 68.0245 58.7674C67.9375 59.4267 68.0029 60.0972 68.2155 60.7273C68.3403 61.0972 68.5139 61.4474 68.7309 61.769C68.9843 62.1448 68.9904 62.6612 68.6688 62.9806Z"
    stroke="white" stroke-width="6" mask="url(#nature-path-8-inside-5)" />
</svg>