<svg width="162" height="176" viewBox="0 0 162 176" fill="none" xmlns="http://www.w3.org/2000/svg">
  <g filter="url(#neigh-filter0_d)">
    <path
      d="M79.0196 7.12886C80.2477 6.42856 81.7543 6.42856 82.9824 7.12886L149.13 44.848C150.379 45.5597 151.149 46.886 151.149 48.3227V123.675C151.149 125.112 150.379 126.438 149.13 127.15L82.9824 164.869C81.7543 165.569 80.2477 165.569 79.0196 164.869L12.8715 127.15C11.6234 126.438 10.8529 125.112 10.8529 123.675V48.3227C10.8529 46.886 11.6234 45.5597 12.8715 44.848L79.0196 7.12886Z"
      fill="#669C95" />
  </g>
  <path
    d="M34.501 122.999L35.2807 124.705C39.4225 133.765 49.6005 138.395 59.1519 135.565L76.2135 130.51C80.605 129.209 85.3101 129.455 89.5423 131.206L101.513 136.159C108.018 138.851 115.459 137.924 121.105 133.72L135.501 122.999"
    stroke="white" stroke-width="2" stroke-linecap="round" stroke-linejoin="round" stroke-dasharray="2 5" />
  <path
    d="M34.001 53.499L34.7807 51.7934C38.9225 42.7333 49.1005 38.1026 58.6519 40.9326L75.7135 45.9879C80.105 47.2891 84.8101 47.0435 89.0423 45.2923L101.013 40.3391C107.518 37.6474 114.959 38.5739 120.605 42.7785L135.001 53.499"
    stroke="white" stroke-width="2" stroke-linecap="round" stroke-linejoin="round" stroke-dasharray="2 5" />
  <mask id="neigh-mask0" mask-type="alpha" maskUnits="userSpaceOnUse" x="79" y="59" width="59" height="54">
    <path fill-rule="evenodd" clip-rule="evenodd"
      d="M107.814 60.269C108.001 60.0931 108.247 59.9951 108.504 59.9951C108.76 59.9951 109.007 60.0931 109.194 60.269L116.33 66.9951H121.003C122.107 66.9951 123.003 67.8905 123.003 68.9951V73.2837L136.382 85.8936C137.699 87.1353 136.821 89.349 135.01 89.349H131.262V110.994C131.262 112.098 130.367 112.994 129.262 112.994H86.944C85.8395 112.994 84.944 112.098 84.944 110.994V89.349H81.9977C80.1872 89.349 79.3084 87.1353 80.6259 85.8936L107.814 60.269Z"
      fill="white" />
  </mask>
  <g mask="url(#neigh-mask0)">
    <path fill-rule="evenodd" clip-rule="evenodd"
      d="M107.814 60.269C108.001 60.0931 108.247 59.9951 108.504 59.9951C108.76 59.9951 109.007 60.0931 109.194 60.269L116.33 66.9951H121.003C122.107 66.9951 123.003 67.8905 123.003 68.9951V73.2837L136.382 85.8936C137.699 87.1353 136.821 89.349 135.01 89.349H131.262V110.994C131.262 112.098 130.367 112.994 129.262 112.994H86.944C85.8395 112.994 84.944 112.098 84.944 110.994V89.349H81.9977C80.1872 89.349 79.3084 87.1353 80.6259 85.8936L107.814 60.269Z"
      fill="#669C95" />
    <path
      d="M107.814 60.269L109.872 62.4521L107.814 60.269ZM109.194 60.269L107.136 62.4521L109.194 60.269ZM116.33 66.9951L114.273 69.1783L115.139 69.9951H116.33V66.9951ZM123.003 73.2837H120.003V74.5787L120.945 75.4669L123.003 73.2837ZM136.382 85.8936L138.439 83.7104L136.382 85.8936ZM131.262 89.349V86.349H128.262V89.349H131.262ZM84.944 89.349H87.944V86.349H84.944V89.349ZM80.6259 85.8936L82.6836 88.0767L80.6259 85.8936ZM108.504 56.9951C107.483 56.9951 106.5 57.3853 105.756 58.0858L109.872 62.4521C109.502 62.8009 109.012 62.9951 108.504 62.9951V56.9951ZM111.251 58.0858C110.508 57.3853 109.525 56.9951 108.504 56.9951V62.9951C107.995 62.9951 107.506 62.8009 107.136 62.4521L111.251 58.0858ZM118.388 64.812L111.251 58.0858L107.136 62.4521L114.273 69.1783L118.388 64.812ZM116.33 69.9951H121.003V63.9951H116.33V69.9951ZM121.003 69.9951C120.45 69.9951 120.003 69.5474 120.003 68.9951H126.003C126.003 66.2337 123.764 63.9951 121.003 63.9951V69.9951ZM120.003 68.9951V73.2837H126.003V68.9951H120.003ZM138.439 83.7104L125.06 71.1006L120.945 75.4669L134.324 88.0767L138.439 83.7104ZM135.01 92.349C139.536 92.349 141.733 86.8148 138.439 83.7104L134.324 88.0767C133.665 87.4559 134.105 86.349 135.01 86.349V92.349ZM131.262 92.349H135.01V86.349H131.262V92.349ZM134.262 110.994V89.349H128.262V110.994H134.262ZM129.262 115.994C132.024 115.994 134.262 113.755 134.262 110.994H128.262C128.262 110.441 128.71 109.994 129.262 109.994V115.994ZM86.944 115.994H129.262V109.994H86.944V115.994ZM81.944 110.994C81.944 113.755 84.1826 115.994 86.944 115.994V109.994C87.4963 109.994 87.944 110.441 87.944 110.994H81.944ZM81.944 89.349V110.994H87.944V89.349H81.944ZM81.9977 92.349H84.944V86.349H81.9977V92.349ZM78.5683 83.7104C75.2745 86.8148 77.4714 92.349 81.9977 92.349V86.349C82.9029 86.349 83.3423 87.4559 82.6836 88.0767L78.5683 83.7104ZM105.756 58.0858L78.5683 83.7104L82.6836 88.0767L109.872 62.4521L105.756 58.0858Z"
      fill="#364859" />
  </g>
  <mask id="neigh-mask1" mask-type="alpha" maskUnits="userSpaceOnUse" x="100" y="95" width="16" height="18">
    <path
      d="M113.292 95.0586H102.917C101.812 95.0586 100.917 95.954 100.917 97.0586V110.997C100.917 112.102 101.812 112.997 102.917 112.997H113.292C114.396 112.997 115.292 112.102 115.292 110.997V97.0586C115.292 95.954 114.396 95.0586 113.292 95.0586Z"
      fill="white" />
  </mask>
  <g mask="url(#neigh-mask1)">
    <path
      d="M113.292 95.0586H102.917C101.812 95.0586 100.917 95.954 100.917 97.0586V110.997C100.917 112.102 101.812 112.997 102.917 112.997H113.292C114.396 112.997 115.292 112.102 115.292 110.997V97.0586C115.292 95.954 114.396 95.0586 113.292 95.0586Z"
      stroke="#364859" stroke-width="6" />
  </g>
  <mask id="neigh-mask2" mask-type="alpha" maskUnits="userSpaceOnUse" x="26" y="59" width="58" height="54">
    <path fill-rule="evenodd" clip-rule="evenodd"
      d="M54.2638 60.2711C54.455 60.0937 54.7063 59.9951 54.9671 59.9951C55.228 59.9951 55.4792 60.0937 55.6705 60.2711L83.2882 85.8825C84.6215 87.119 83.7466 89.349 81.9283 89.349H78.0954V110.994C78.0954 112.098 77.2 112.994 76.0954 112.994H33.0213C31.9167 112.994 31.0213 112.098 31.0213 110.994V89.349H28.006C26.1876 89.349 25.3127 87.119 26.646 85.8825L33.0018 79.9885V68.9951C33.0018 67.8905 33.8972 66.9951 35.0018 66.9951H40.0018C41.1063 66.9951 42.0018 67.8905 42.0018 68.9951V71.6423L54.2638 60.2711Z"
      fill="white" />
  </mask>
  <g mask="url(#neigh-mask2)">
    <path fill-rule="evenodd" clip-rule="evenodd"
      d="M54.2638 60.2711C54.455 60.0937 54.7063 59.9951 54.9671 59.9951C55.228 59.9951 55.4792 60.0937 55.6705 60.2711L83.2882 85.8825C84.6215 87.119 83.7466 89.349 81.9283 89.349H78.0954V110.994C78.0954 112.098 77.2 112.994 76.0954 112.994H33.0213C31.9167 112.994 31.0213 112.098 31.0213 110.994V89.349H28.006C26.1876 89.349 25.3127 87.119 26.646 85.8825L33.0018 79.9885V68.9951C33.0018 67.8905 33.8972 66.9951 35.0018 66.9951H40.0018C41.1063 66.9951 42.0018 67.8905 42.0018 68.9951V71.6423L54.2638 60.2711Z"
      fill="#669C95" />
    <path
      d="M54.2638 60.2711L56.3037 62.4708L54.2638 60.2711ZM55.6705 60.2711L57.7104 58.0713L55.6705 60.2711ZM83.2882 85.8825L81.2483 88.0823L83.2882 85.8825ZM78.0954 89.349V86.349H75.0954V89.349H78.0954ZM31.0213 89.349H34.0213V86.349H31.0213V89.349ZM26.646 85.8825L24.6061 83.6828L26.646 85.8825ZM33.0018 79.9885L35.0417 82.1882L36.0018 81.2979V79.9885H33.0018ZM42.0018 71.6423H39.0018V78.5158L44.0417 73.842L42.0018 71.6423ZM54.9671 56.9951C53.9497 56.9951 52.9698 57.3795 52.2238 58.0714L56.3037 62.4708C55.9402 62.8078 55.4628 62.9951 54.9671 62.9951V56.9951ZM57.7104 58.0713C56.9644 57.3795 55.9845 56.9951 54.9671 56.9951V62.9951C54.4714 62.9951 53.994 62.8078 53.6306 62.4708L57.7104 58.0713ZM85.3281 83.6828L57.7104 58.0713L53.6306 62.4708L81.2483 88.0823L85.3281 83.6828ZM81.9283 92.349C86.4742 92.349 88.6614 86.7739 85.3281 83.6828L81.2483 88.0823C80.5816 87.464 81.0191 86.349 81.9283 86.349V92.349ZM78.0954 92.349H81.9283V86.349H78.0954V92.349ZM81.0954 110.994V89.349H75.0954V110.994H81.0954ZM76.0954 115.994C78.8568 115.994 81.0954 113.755 81.0954 110.994H75.0954C75.0954 110.441 75.5431 109.994 76.0954 109.994V115.994ZM33.0213 115.994H76.0954V109.994H33.0213V115.994ZM28.0213 110.994C28.0213 113.755 30.2599 115.994 33.0213 115.994V109.994C33.5736 109.994 34.0213 110.441 34.0213 110.994H28.0213ZM28.0213 89.349V110.994H34.0213V89.349H28.0213ZM28.006 92.349H31.0213V86.349H28.006V92.349ZM24.6061 83.6828C21.2729 86.7739 23.4601 92.349 28.006 92.349V86.349C28.9152 86.349 29.3526 87.464 28.686 88.0823L24.6061 83.6828ZM30.9618 77.7888L24.6061 83.6828L28.686 88.0823L35.0417 82.1882L30.9618 77.7888ZM36.0018 79.9885V68.9951H30.0018V79.9885H36.0018ZM36.0018 68.9951C36.0018 69.5474 35.5541 69.9951 35.0018 69.9951V63.9951C32.2403 63.9951 30.0018 66.2337 30.0018 68.9951H36.0018ZM35.0018 69.9951H40.0018V63.9951H35.0018V69.9951ZM40.0018 69.9951C39.4495 69.9951 39.0018 69.5474 39.0018 68.9951H45.0018C45.0018 66.2337 42.7632 63.9951 40.0018 63.9951V69.9951ZM39.0018 68.9951V71.6423H45.0018V68.9951H39.0018ZM52.2238 58.0713L39.9619 69.4426L44.0417 73.842L56.3037 62.4708L52.2238 58.0713Z"
      fill="#364859" />
  </g>
  <mask id="neigh-mask3" mask-type="alpha" maskUnits="userSpaceOnUse" x="47" y="95" width="15" height="18">
    <path
      d="M59.8651 95.0586H49.2559C48.1514 95.0586 47.2559 95.954 47.2559 97.0586V110.997C47.2559 112.102 48.1514 112.997 49.2559 112.997H59.8651C60.9697 112.997 61.8651 112.102 61.8651 110.997V97.0586C61.8651 95.954 60.9697 95.0586 59.8651 95.0586Z"
      fill="white" />
  </mask>
  <g mask="url(#neigh-mask3)">
    <path
      d="M59.8651 95.0586H49.2559C48.1514 95.0586 47.2559 95.954 47.2559 97.0586V110.997C47.2559 112.102 48.1514 112.997 49.2559 112.997H59.8651C60.9697 112.997 61.8651 112.102 61.8651 110.997V97.0586C61.8651 95.954 60.9697 95.0586 59.8651 95.0586Z"
      stroke="#364859" stroke-width="6" />
  </g>
  <mask id="neigh-mask4" mask-type="alpha" maskUnits="userSpaceOnUse" x="49" y="60" width="66" height="60">
    <path fill-rule="evenodd" clip-rule="evenodd"
      d="M82.4737 60.9951C82.1842 60.9951 81.9054 61.1047 81.6935 61.3019L50.6165 90.2076C49.2861 91.445 50.1617 93.672 51.9786 93.672H55.8996V117.994C55.8996 119.099 56.7951 119.994 57.8996 119.994H106.146C107.251 119.994 108.146 119.099 108.146 117.994V93.672H112.969C114.786 93.672 115.661 91.445 114.331 90.2076L83.2539 61.3019C83.0419 61.1047 82.7631 60.9951 82.4737 60.9951Z"
      fill="white" />
  </mask>
  <g mask="url(#neigh-mask4)">
    <path fill-rule="evenodd" clip-rule="evenodd"
      d="M82.4737 60.9951C82.1842 60.9951 81.9054 61.1047 81.6935 61.3019L50.6165 90.2076C49.2861 91.445 50.1617 93.672 51.9786 93.672H55.8996V117.994C55.8996 119.099 56.7951 119.994 57.8996 119.994H106.146C107.251 119.994 108.146 119.099 108.146 117.994V93.672H112.969C114.786 93.672 115.661 91.445 114.331 90.2076L83.2539 61.3019C83.0419 61.1047 82.7631 60.9951 82.4737 60.9951Z"
      fill="#669C95" />
    <path
      d="M81.6935 61.3019L83.7367 63.4985L81.6935 61.3019ZM50.6165 90.2076L48.5733 88.0109L50.6165 90.2076ZM55.8996 93.672H58.8996V90.672H55.8996V93.672ZM108.146 93.672V90.672H105.146V93.672H108.146ZM114.331 90.2076L116.374 88.0109L114.331 90.2076ZM83.2539 61.3019L81.2107 63.4985L83.2539 61.3019ZM83.7367 63.4985C83.3935 63.8177 82.9423 63.9951 82.4737 63.9951V57.9951C81.4261 57.9951 80.4173 58.3917 79.6503 59.1052L83.7367 63.4985ZM52.6597 92.4043L83.7367 63.4985L79.6503 59.1052L48.5733 88.0109L52.6597 92.4043ZM51.9786 90.672C52.8871 90.672 53.3249 91.7855 52.6597 92.4043L48.5733 88.0109C45.2473 91.1045 47.4364 96.672 51.9786 96.672V90.672ZM55.8996 90.672H51.9786V96.672H55.8996V90.672ZM58.8996 117.994V93.672H52.8996V117.994H58.8996ZM57.8996 116.994C58.4519 116.994 58.8996 117.442 58.8996 117.994H52.8996C52.8996 120.756 55.1382 122.994 57.8996 122.994V116.994ZM106.146 116.994H57.8996V122.994H106.146V116.994ZM105.146 117.994C105.146 117.442 105.594 116.994 106.146 116.994V122.994C108.908 122.994 111.146 120.756 111.146 117.994H105.146ZM105.146 93.672V117.994H111.146V93.672H105.146ZM112.969 90.672H108.146V96.672H112.969V90.672ZM112.288 92.4043C111.622 91.7856 112.06 90.672 112.969 90.672V96.672C117.511 96.672 119.7 91.1045 116.374 88.0109L112.288 92.4043ZM81.2107 63.4985L112.288 92.4043L116.374 88.0109L85.2971 59.1052L81.2107 63.4985ZM82.4737 63.9951C82.0051 63.9951 81.5538 63.8177 81.2107 63.4985L85.2971 59.1052C84.53 58.3917 83.5212 57.9951 82.4737 57.9951V63.9951Z"
      fill="#364859" />
  </g>
  <mask id="neigh-mask5" mask-type="alpha" maskUnits="userSpaceOnUse" x="73" y="100" width="18" height="20">
    <path
      d="M88.1295 100.027H75.915C74.8104 100.027 73.915 100.922 73.915 102.027V117.996C73.915 119.101 74.8104 119.996 75.915 119.996H88.1295C89.234 119.996 90.1295 119.101 90.1295 117.996V102.027C90.1295 100.922 89.234 100.027 88.1295 100.027Z"
      fill="white" />
  </mask>
  <g mask="url(#neigh-mask5)">
    <path
      d="M88.1295 100.027H75.915C74.8104 100.027 73.915 100.922 73.915 102.027V117.996C73.915 119.101 74.8104 119.996 75.915 119.996H88.1295C89.234 119.996 90.1295 119.101 90.1295 117.996V102.027C90.1295 100.922 89.234 100.027 88.1295 100.027Z"
      stroke="#364859" stroke-width="6" />
  </g>
  <defs>
    <filter id="neigh-filter0_d" x="2.85291" y="0.603638" width="156.296" height="174.79" filterUnits="userSpaceOnUse"
      color-interpolation-filters="sRGB">
      <feFlood flood-opacity="0" result="BackgroundImageFix" />
      <feColorMatrix in="SourceAlpha" type="matrix" values="0 0 0 0 0 0 0 0 0 0 0 0 0 0 0 0 0 0 127 0" />
      <feOffset dy="2" />
      <feGaussianBlur stdDeviation="4" />
      <feColorMatrix type="matrix" values="0 0 0 0 0 0 0 0 0 0 0 0 0 0 0 0 0 0 0.25 0" />
      <feBlend mode="normal" in2="BackgroundImageFix" result="effect1_dropShadow" />
      <feBlend mode="normal" in="SourceGraphic" in2="effect1_dropShadow" result="shape" />
    </filter>
  </defs>
</svg>