<svg width="162" height="160" viewBox="0 0 162 160" fill="none" xmlns="http://www.w3.org/2000/svg">
<path opacity="0.8" d="M79.0186 1.12984C80.2467 0.429539 81.7533 0.429538 82.9814 1.12984L149.129 38.8489C150.378 39.5606 151.148 40.887 151.148 42.3237V117.676C151.148 119.113 150.378 120.439 149.129 121.151L82.9814 158.87C81.7533 159.57 80.2467 159.57 79.0186 158.87L12.8705 121.151C11.6225 120.439 10.8519 119.113 10.8519 117.676V42.3237C10.8519 40.887 11.6225 39.5606 12.8705 38.8489L79.0186 1.12984Z" fill="#669C95"/>
<path d="M79.7627 9.43091C80.5297 8.99407 81.4703 8.99407 82.2373 9.43091L142.323 43.6527C143.104 44.0973 143.586 44.9267 143.586 45.8251V114.175C143.586 115.073 143.104 115.903 142.323 116.347L82.2373 150.569C81.4703 151.006 80.5297 151.006 79.7627 150.569L19.6769 116.347C18.8962 115.903 18.4141 115.073 18.4141 114.175V45.8251C18.4141 44.9267 18.8962 44.0974 19.6769 43.6527L79.7627 9.43091Z" fill="#669C95" stroke="white" stroke-width="3"/>
<path d="M86.41 77.5003C86.41 82.1449 82.6449 85.91 78.0003 85.91C73.3558 85.91 69.5907 82.1449 69.5907 77.5003C69.5907 72.8558 73.3558 69.0907 78.0003 69.0907C82.6449 69.0907 86.41 72.8558 86.41 77.5003Z" stroke="white" stroke-width="2.68134"/>
<path d="M76.0914 104.002V102.661H74.7508H58.094C55.4738 102.661 53.3407 100.528 53.3407 97.9078V58.0948C53.3422 56.8344 53.8435 55.626 54.7348 54.7348C55.626 53.8435 56.8344 53.3422 58.0948 53.3407H97.907C99.1674 53.3422 100.376 53.8435 101.267 54.7348C102.158 55.6262 102.66 56.8348 102.661 58.0954V97.9064C102.66 99.167 102.158 100.376 101.267 101.267C100.376 102.158 99.167 102.66 97.9064 102.661H81.251H79.9103V104.002V110.502V111.843H81.251H91.0013C92.0559 111.843 92.9108 112.698 92.9108 113.752C92.9108 114.807 92.0559 115.662 91.0013 115.662H65.0004C63.9459 115.662 63.091 114.807 63.091 113.752C63.091 112.698 63.9459 111.843 65.0004 111.843H74.7508H76.0914V110.502V104.002ZM60.4097 78.0009C60.4097 87.7019 68.2999 95.5921 78.0009 95.5921C87.7019 95.5921 95.5921 87.7019 95.5921 78.0009C95.5921 68.2999 87.7019 60.4097 78.0009 60.4097C68.2999 60.4097 60.4097 68.2999 60.4097 78.0009Z" stroke="#364859" stroke-width="2.68134"/>
<path d="M110.5 56.5C110.5 54.9898 110.203 53.4944 109.625 52.0991C109.047 50.7039 108.2 49.4361 107.132 48.3683C106.064 47.3004 104.796 46.4533 103.401 45.8754C102.006 45.2975 100.51 45 99 45" stroke="white" stroke-width="3" stroke-linecap="round" stroke-linejoin="round"/>
<path d="M121 57C121 54.1109 120.431 51.2501 119.325 48.581C118.22 45.9118 116.599 43.4865 114.556 41.4437C112.513 39.4008 110.088 37.7803 107.419 36.6747C104.75 35.569 101.889 35 99 35" stroke="white" stroke-width="3" stroke-linecap="round" stroke-linejoin="round"/>
</svg>
