<svg width="92" height="89" viewBox="0 0 92 89" fill="none" xmlns="http://www.w3.org/2000/svg">
<path d="M6.99364 18.0293H78.0821C81.4436 18.0293 84.1687 20.7543 84.1687 24.1159V29.1915H85.619C88.0386 29.1915 90 31.153 90 33.5725V82.3843C90 84.8038 88.0386 86.7653 85.619 86.7653H6.38095C3.96142 86.7653 2 84.8038 2 82.3843V23.0229C2 20.265 4.23573 18.0293 6.99364 18.0293Z" fill="white"/>
<path d="M84.1687 29.1915H85.619C88.0386 29.1915 90 31.153 90 33.5725V82.3843C90 84.8038 88.0386 86.7653 85.6191 86.7653H6.38095C3.96142 86.7653 2 84.8038 2 82.3843V23.0229M84.1687 29.1915H8.16861C4.76178 29.1915 2 26.4298 2 23.0229V23.0229M84.1687 29.1915V24.1159C84.1687 20.7543 81.4436 18.0293 78.0821 18.0293H6.99364C4.23573 18.0293 2 20.265 2 23.0229V23.0229" stroke="#364859" stroke-width="3"/>
<path d="M9.23563 33.7931L54.2722 2.57103C54.5856 2.35376 54.9851 2.45039 55.1646 2.78685L65.5393 22.2345L19.9353 53.8499L9.23563 33.7931Z" fill="white" stroke="#364859" stroke-width="3"/>
<path d="M10.1372 31.9009L70.3958 13.4947C70.7605 13.3833 71.1269 13.594 71.2141 13.9652L76.4027 36.0395L15.4837 54.6474L10.1372 31.9009Z" fill="white" stroke="#364859" stroke-width="3"/>
<path d="M84.1687 28.7518H85.619C88.0386 28.7518 90 30.7132 90 33.1328V82.3839C90 84.8035 88.0386 86.7649 85.619 86.7649H6.38095C3.96142 86.7649 2 84.8035 2 82.3839V22.5361C2 25.969 4.78285 28.7518 8.21568 28.7518H84.1687Z" fill="white" stroke="#364859" stroke-width="3"/>
<path d="M59.6562 57.777C59.6562 51.6012 64.6627 46.5947 70.8385 46.5947H89.5018V68.9592H70.8385C64.6627 68.9592 59.6562 63.9528 59.6562 57.777Z" fill="white" stroke="#364859" stroke-width="3"/>
<path d="M70.8332 57.7773C70.8332 59.6464 69.5329 60.9095 68.2201 60.9095C66.9073 60.9095 65.607 59.6464 65.607 57.7773C65.607 55.9082 66.9073 54.645 68.2201 54.645C69.5329 54.645 70.8332 55.9082 70.8332 57.7773Z" fill="white" stroke="#364859" stroke-width="2.19048"/>
</svg>
