<svg width="92" height="89" viewBox="0 0 92 89" fill="none" xmlns="http://www.w3.org/2000/svg">
  <path
    d="M6.99364 18.0293H78.0821C81.4436 18.0293 84.1687 20.7543 84.1687 24.1159V29.1915H85.619C88.0386 29.1915 90 31.153 90 33.5725V82.3843C90 84.8038 88.0386 86.7653 85.619 86.7653H6.38095C3.96142 86.7653 2 84.8038 2 82.3843V23.0229C2 20.265 4.23573 18.0293 6.99364 18.0293Z"
    fill="white" />
  <path
    d="M84.1687 29.1915V24.1159C84.1687 20.7543 81.4436 18.0293 78.0821 18.0293H6.99364C4.23573 18.0293 2 20.265 2 23.0229M84.1687 29.1915H85.619C88.0386 29.1915 90 31.153 90 33.5725V82.3843C90 84.8038 88.0386 86.7653 85.6191 86.7653H6.38095C3.96142 86.7653 2 84.8038 2 82.3843V23.0229L84.1687 29.1915ZM84.1687 29.1915H8.16861C4.76178 29.1915 2 26.4298 2 23.0229L84.1687 29.1915Z"
    stroke="#364859" stroke-width="3" />
  <path
    d="M9.23759 33.7936L54.2741 2.5715C54.5875 2.35424 54.9871 2.45086 55.1666 2.78733L65.5412 22.235L19.9373 53.8504L9.23759 33.7936Z"
    fill="white" stroke="#364859" stroke-width="3" />
  <path
    d="M10.1352 31.9007L70.3938 13.4945C70.7585 13.3831 71.1249 13.5937 71.2122 13.9649L76.4007 36.0392L15.4818 54.6471L10.1352 31.9007Z"
    fill="white" stroke="#364859" stroke-width="3" />
  <path
    d="M84.1687 28.7521H85.619C88.0386 28.7521 90 30.7135 90 33.133V82.3842C90 84.8037 88.0386 86.7651 85.619 86.7651H6.38095C3.96142 86.7651 2 84.8037 2 82.3842V22.5364C2 25.9692 4.78285 28.7521 8.21568 28.7521H84.1687Z"
    fill="white" stroke="#364859" stroke-width="3" />
  <path
    d="M59.6543 57.777C59.6543 51.6012 64.6608 46.5947 70.8365 46.5947H89.4998V68.9592H70.8365C64.6608 68.9592 59.6543 63.9528 59.6543 57.777Z"
    fill="white" stroke="#364859" stroke-width="3" />
  <path
    d="M70.8332 57.7773C70.8332 59.6464 69.5329 60.9095 68.2201 60.9095C66.9073 60.9095 65.607 59.6464 65.607 57.7773C65.607 55.9082 66.9073 54.645 68.2201 54.645C69.5329 54.645 70.8332 55.9082 70.8332 57.7773Z"
    fill="white" stroke="#364859" stroke-width="2.19048" />
</svg>