<svg width="77" height="72" viewBox="0 0 77 72" fill="none" xmlns="http://www.w3.org/2000/svg">
  <mask id="security-path-1-inside-1" fill="white">
    <path fill-rule="evenodd" clip-rule="evenodd"
      d="M37.5584 0.369725C37.8104 0.132255 38.1435 0 38.4897 0C38.836 0 39.1691 0.132256 39.4211 0.369726L53.3633 13.5101V12.1493C53.3633 10.6581 54.5721 9.44922 56.0633 9.44922H62.8135C64.3047 9.44922 65.5136 10.6581 65.5136 12.1493V24.9617L76.1259 34.9637C77.9046 36.6402 76.7182 39.6287 74.274 39.6287H69.2141V68.8497C69.2141 70.341 68.0053 71.5498 66.5141 71.5498H9.38323C7.89202 71.5498 6.68316 70.341 6.68316 68.8497V39.6287H2.7055C0.261282 39.6287 -0.925116 36.6402 0.853597 34.9637L37.5584 0.369725Z" />
  </mask>
  <path fill-rule="evenodd" clip-rule="evenodd"
    d="M37.5584 0.369725C37.8104 0.132255 38.1435 0 38.4897 0C38.836 0 39.1691 0.132256 39.4211 0.369726L53.3633 13.5101V12.1493C53.3633 10.6581 54.5721 9.44922 56.0633 9.44922H62.8135C64.3047 9.44922 65.5136 10.6581 65.5136 12.1493V24.9617L76.1259 34.9637C77.9046 36.6402 76.7182 39.6287 74.274 39.6287H69.2141V68.8497C69.2141 70.341 68.0053 71.5498 66.5141 71.5498H9.38323C7.89202 71.5498 6.68316 70.341 6.68316 68.8497V39.6287H2.7055C0.261282 39.6287 -0.925116 36.6402 0.853597 34.9637L37.5584 0.369725Z"
    fill="white" />
  <path
    d="M37.5584 0.369725L35.5008 -1.81344L35.5008 -1.81344L37.5584 0.369725ZM39.4211 0.369726L37.3635 2.55288L37.3635 2.55289L39.4211 0.369726ZM53.3633 13.5101L51.3057 15.6933L56.3633 20.4601V13.5101H53.3633ZM65.5136 24.9617H62.5136V26.2567L63.4559 27.1449L65.5136 24.9617ZM76.1259 34.9637L78.1835 32.7806V32.7806L76.1259 34.9637ZM69.2141 39.6287V36.6287H66.2141V39.6287H69.2141ZM6.68316 39.6287H9.68316V36.6287H6.68316V39.6287ZM0.853597 34.9637L-1.20402 32.7806L-1.20402 32.7806L0.853597 34.9637ZM38.4897 -3C37.3786 -3 36.3094 -2.57556 35.5008 -1.81344L39.616 2.55289C39.3113 2.84007 38.9084 3 38.4897 3V-3ZM41.4787 -1.81343C40.6701 -2.57556 39.6009 -3 38.4897 -3V3C38.0711 3 37.6682 2.84007 37.3635 2.55288L41.4787 -1.81343ZM55.4209 11.327L41.4787 -1.81344L37.3635 2.55289L51.3057 15.6933L55.4209 11.327ZM56.3633 13.5101V12.1493H50.3633V13.5101H56.3633ZM56.3633 12.1493C56.3633 12.3149 56.229 12.4492 56.0633 12.4492V6.44922C52.9153 6.44922 50.3633 9.00122 50.3633 12.1493H56.3633ZM56.0633 12.4492H62.8135V6.44922H56.0633V12.4492ZM62.8135 12.4492C62.6479 12.4492 62.5136 12.3149 62.5136 12.1493H68.5136C68.5136 9.00123 65.9616 6.44922 62.8135 6.44922V12.4492ZM62.5136 12.1493V24.9617H68.5136V12.1493H62.5136ZM78.1835 32.7806L67.5712 22.7785L63.4559 27.1449L74.0683 37.1469L78.1835 32.7806ZM74.274 42.6287C79.4339 42.6287 81.9385 36.3197 78.1835 32.7806L74.0683 37.1469C74.0516 37.1312 74.0044 37.0678 73.9862 36.9747C73.9714 36.8989 73.9838 36.8468 73.9952 36.818C74.0067 36.7891 74.0335 36.7427 74.0962 36.6978C74.1733 36.6425 74.2511 36.6287 74.274 36.6287V42.6287ZM69.2141 42.6287H74.274V36.6287H69.2141V42.6287ZM72.2141 68.8497V39.6287H66.2141V68.8497H72.2141ZM66.5141 74.5498C69.6621 74.5498 72.2141 71.9978 72.2141 68.8497H66.2141C66.2141 68.6841 66.3484 68.5498 66.5141 68.5498V74.5498ZM9.38323 74.5498H66.5141V68.5498H9.38323V74.5498ZM3.68316 68.8497C3.68316 71.9978 6.23517 74.5498 9.38323 74.5498V68.5498C9.54888 68.5498 9.68316 68.6841 9.68316 68.8497H3.68316ZM3.68316 39.6287V68.8497H9.68316V39.6287H3.68316ZM2.7055 42.6287H6.68316V36.6287H2.7055V42.6287ZM-1.20402 32.7806C-4.95904 36.3197 -2.45444 42.6287 2.7055 42.6287V36.6287C2.72841 36.6287 2.80623 36.6425 2.88333 36.6978C2.94604 36.7427 2.97282 36.7891 2.98427 36.818C2.99573 36.8468 3.00805 36.8989 2.99326 36.9747C2.97508 37.0678 2.92788 37.1312 2.91122 37.1469L-1.20402 32.7806ZM35.5008 -1.81344L-1.20402 32.7806L2.91121 37.1469L39.616 2.55289L35.5008 -1.81344Z"
    fill="#364859" mask="url(#security-path-1-inside-1)" />
  <g clip-path="url(#security-clip0)">
    <path
      d="M39 25.334C36.4722 25.334 34.2847 26.2576 32.4375 28.1048C30.5903 29.952 29.6667 32.1395 29.6667 34.6673V39.334C28.3542 39.334 27.2483 39.7836 26.349 40.6829C25.4497 41.5822 25 42.6882 25 44.0007V58.0006C25 59.3131 25.4497 60.4191 26.349 61.3184C27.2483 62.2177 28.3542 62.6673 29.6667 62.6673H48.3333C49.6458 62.6673 50.7517 62.2177 51.651 61.3184C52.5503 60.4191 53 59.3131 53 58.0006V44.0007C53 42.6882 52.5503 41.5822 51.651 40.6829C50.7517 39.7836 49.6458 39.334 48.3333 39.334V34.6673C48.3333 32.1395 47.4097 29.952 45.5625 28.1048C43.7153 26.2576 41.5278 25.334 39 25.334ZM49.8646 44.0007V58.0006C49.8646 59.0215 49.3542 59.5319 48.3333 59.5319H29.6667C28.6458 59.5319 28.1354 59.0215 28.1354 58.0006V44.0007C28.1354 42.9798 28.6458 42.4694 29.6667 42.4694H48.3333C49.3542 42.4694 49.8646 42.9798 49.8646 44.0007ZM32.8021 39.334V34.6673C32.8021 32.9659 33.4097 31.5076 34.625 30.2923C35.8403 29.077 37.2986 28.4694 39 28.4694C40.7014 28.4694 42.1597 29.077 43.375 30.2923C44.5903 31.5076 45.1979 32.9659 45.1979 34.6673V39.334H32.8021Z"
      fill="#56928A" />
    <path d="M39 52.499V55.499" stroke="#56928A" stroke-width="2" stroke-linecap="round" stroke-linejoin="round" />
    <circle cx="39" cy="49.999" r="3" fill="white" stroke="#56928A" stroke-width="2" />
  </g>
  <defs>
    <clipPath id="security-clip0">
      <rect width="28" height="37.3333" fill="white" transform="translate(25 25.335)" />
    </clipPath>
  </defs>
</svg>