<svg width="90" height="71" viewBox="0 0 90 71" fill="none" xmlns="http://www.w3.org/2000/svg">
  <mask id="path-1-inside-1" fill="white">
    <path
      d="M75.9499 16.5044C75.7229 15.2446 74.6265 14.3281 73.3465 14.3281H16.0557C14.8013 14.3281 13.7193 15.2092 13.4652 16.4377L9.33887 36.3861C9.29742 36.5865 9.27937 36.7909 9.28504 36.9954L10.1301 67.4268C10.1698 68.8587 11.342 69.9988 12.7744 69.9988H76.6124C78.0734 69.9988 79.2578 68.8144 79.2578 67.3534V35.0988C79.2578 34.9415 79.2438 34.7845 79.2159 34.6297L75.9499 16.5044Z" />
  </mask>
  <path
    d="M79.2159 34.6297L81.9407 34.1387L79.2159 34.6297ZM9.33887 36.3861L12.0502 36.947L9.33887 36.3861ZM9.28504 36.9954L6.51741 37.0723L9.28504 36.9954ZM10.1301 67.4268L12.8977 67.35L10.1301 67.4268ZM13.4652 16.4377L10.7539 15.8768L13.4652 16.4377ZM75.9499 16.5044L73.2251 16.9954L75.9499 16.5044ZM73.3465 17.0968H16.0557V11.5594H73.3465V17.0968ZM12.7744 67.2301H76.6124V72.7675H12.7744V67.2301ZM16.1765 16.9985L12.0502 36.947L6.62756 35.8253L10.7539 15.8768L16.1765 16.9985ZM12.0527 36.9186L12.8977 67.35L7.36245 67.5037L6.51741 37.0723L12.0527 36.9186ZM76.4891 67.3534V35.0988H82.0265V67.3534H76.4891ZM76.4911 35.1207L73.2251 16.9954L78.6747 16.0134L81.9407 34.1387L76.4911 35.1207ZM76.4891 35.0988C76.4891 35.1061 76.4898 35.1135 76.4911 35.1207L81.9407 34.1387C81.9978 34.4556 82.0265 34.7769 82.0265 35.0988H76.4891ZM12.0502 36.947C12.0521 36.9376 12.0529 36.9281 12.0527 36.9186L6.51741 37.0723C6.50579 36.6538 6.54276 36.2353 6.62756 35.8253L12.0502 36.947ZM76.6124 67.2301C76.5443 67.2301 76.4891 67.2853 76.4891 67.3534H82.0265C82.0265 70.3435 79.6026 72.7675 76.6124 72.7675V67.2301ZM12.7744 72.7675C9.84286 72.7675 7.44382 70.4341 7.36245 67.5037L12.8977 67.35C12.8959 67.2832 12.8412 67.2301 12.7744 67.2301V72.7675ZM16.0557 17.0968C16.1142 17.0968 16.1646 17.0558 16.1765 16.9985L10.7539 15.8768C11.2739 13.3626 13.4883 11.5594 16.0557 11.5594V17.0968ZM73.3465 11.5594C75.9662 11.5594 78.2102 13.4352 78.6747 16.0134L73.2251 16.9954C73.2357 17.0541 73.2868 17.0968 73.3465 17.0968V11.5594Z"
    fill="#364859" mask="url(#path-1-inside-1)" />
  <path
    d="M77.2289 1.85136C77.2289 1.59344 77.0198 1.38435 76.7619 1.38435H12.3347C12.0768 1.38435 11.8677 1.59344 11.8677 1.85136V14.5867H77.2289V1.85136Z"
    fill="white" stroke="#364859" stroke-width="2.7687" />
  <path
    d="M19.1361 27.5964L20.2995 10.5064H4.47677C4.23723 10.5064 4.03652 10.6877 4.01219 10.926L2.44622 26.2621C1.97243 30.902 5.61386 34.9342 10.2779 34.9342H11.2818C15.4221 34.9342 18.8549 31.7272 19.1361 27.5964Z"
    fill="white" stroke="#56928A" stroke-width="2.7687" />
  <path
    d="M35.6664 10.5064H20.2934L19.2028 26.5271C18.8932 31.0749 22.4988 34.9342 27.057 34.9342H27.794C32.1418 34.9342 35.6664 31.4096 35.6664 27.0618V10.5064Z"
    fill="white" stroke="#56928A" stroke-width="2.7687" />
  <path
    d="M53.35 10.5064H36.2166V27.0618C36.2166 31.4096 39.7412 34.9342 44.0891 34.9342H45.4776C49.8254 34.9342 53.35 31.4096 53.35 27.0618V10.5064Z"
    fill="white" stroke="#56928A" stroke-width="2.7687" />
  <path
    d="M70.3561 26.5271L69.2655 10.5064H53.8924V27.0618C53.8924 31.4096 57.417 34.9342 61.7648 34.9342H62.5018C67.0601 34.9342 70.6656 31.0749 70.3561 26.5271Z"
    fill="white" stroke="#56928A" stroke-width="2.7687" />
  <path
    d="M85.1836 10.926C85.1592 10.6877 84.9585 10.5064 84.719 10.5064H68.8963L70.0597 27.5964C70.3409 31.7272 73.7736 34.9342 77.9139 34.9342H78.9178C83.5819 34.9342 87.2233 30.902 86.7495 26.2621L85.1836 10.926Z"
    fill="white" stroke="#56928A" stroke-width="2.7687" />
  <path
    d="M33.8994 68.1675V47.2762C33.8994 45.8152 35.0838 44.6309 36.5448 44.6309H52.6007C54.0617 44.6309 55.2461 45.8152 55.2461 47.2762V68.1675"
    stroke="#364859" stroke-width="2.7687" />
  <path d="M83.3359 68.7207H5.81235" stroke="#364859" stroke-width="2.7687" stroke-linecap="round"
    stroke-linejoin="round" />
  <path d="M83.3359 68.7207H5.81235" stroke="#364859" stroke-width="2.7687" stroke-linecap="round"
    stroke-linejoin="round" />
  <path d="M83.3359 68.7227H5.81235" stroke="#364859" stroke-width="2.7687" stroke-linecap="round"
    stroke-linejoin="round" />
</svg>