<svg width="72" height="72" viewBox="0 0 72 72" fill="none" xmlns="http://www.w3.org/2000/svg">
<path d="M35.9277 2.18422C35.9725 2.1584 36.0276 2.1584 36.0723 2.18422L65.2492 19.0295C65.2939 19.0553 65.3215 19.1031 65.3215 19.1547V52.8453C65.3215 52.8969 65.2939 52.9447 65.2492 52.9705L36.0723 69.8158C36.0275 69.8416 35.9724 69.8416 35.9277 69.8158L6.75081 52.9705C6.70609 52.9447 6.67854 52.8969 6.67854 52.8453V19.1547C6.67854 19.1031 6.70609 19.0553 6.75081 19.0295L35.9277 2.18422Z" fill="white" stroke="#56928A" stroke-width="3.7109"/>
<path d="M28.5 24.5L24.75 29.5V47C24.75 47.663 25.0134 48.2989 25.4822 48.7678C25.9511 49.2366 26.587 49.5 27.25 49.5H44.75C45.413 49.5 46.0489 49.2366 46.5178 48.7678C46.9866 48.2989 47.25 47.663 47.25 47V29.5L43.5 24.5H28.5Z" stroke="#364859" stroke-width="2" stroke-linecap="round" stroke-linejoin="round"/>
<path d="M24.75 29.5H47.25" stroke="#364859" stroke-width="2" stroke-linecap="round" stroke-linejoin="round"/>
<path d="M41 34.5C41 35.8261 40.4732 37.0979 39.5355 38.0355C38.5979 38.9732 37.3261 39.5 36 39.5C34.6739 39.5 33.4021 38.9732 32.4645 38.0355C31.5268 37.0979 31 35.8261 31 34.5" stroke="#364859" stroke-width="2" stroke-linecap="round" stroke-linejoin="round"/>
</svg>
