<svg width="162" height="160" viewBox="0 0 162 160" fill="none" xmlns="http://www.w3.org/2000/svg">
  <path opacity="0.8"
    d="M79.0186 1.12984C80.2467 0.429539 81.7533 0.429538 82.9814 1.12984L149.129 38.8489C150.378 39.5606 151.148 40.887 151.148 42.3237V117.676C151.148 119.113 150.378 120.439 149.129 121.151L82.9814 158.87C81.7533 159.57 80.2467 159.57 79.0186 158.87L12.8705 121.151C11.6225 120.439 10.8519 119.113 10.8519 117.676V42.3237C10.8519 40.887 11.6225 39.5606 12.8705 38.8489L79.0186 1.12984Z"
    fill="#669C95" />
  <path
    d="M79.7627 9.43091C80.5297 8.99407 81.4703 8.99407 82.2373 9.43091L142.323 43.6527C143.104 44.0973 143.586 44.9267 143.586 45.8251V114.175C143.586 115.073 143.104 115.903 142.323 116.347L82.2373 150.569C81.4703 151.006 80.5297 151.006 79.7627 150.569L19.6769 116.347C18.8962 115.903 18.4141 115.073 18.4141 114.175V45.8251C18.4141 44.9267 18.8962 44.0974 19.6769 43.6527L79.7627 9.43091Z"
    fill="#669C95" stroke="white" stroke-width="3" />
  <path
    d="M79.7669 25.8347C80.5317 25.401 81.4683 25.401 82.2331 25.8347L128.463 52.0487C129.246 52.4927 129.729 53.3233 129.729 54.2234V106.527C129.729 107.428 129.246 108.258 128.463 108.702L82.2331 134.916C81.4683 135.35 80.5317 135.35 79.7669 134.916L33.5374 108.702C32.7544 108.258 32.2705 107.428 32.2705 106.527V54.2234C32.2705 53.3233 32.7544 52.4927 33.5374 52.0487L79.7669 25.8347Z"
    fill="white" stroke="#364859" stroke-width="3" />
  <path
    d="M58.34 63.5753C58.34 61.0528 60.3849 59.008 62.9073 59.008H99.0927C101.615 59.008 103.66 61.0528 103.66 63.5753V104C103.66 104.364 103.365 104.66 103 104.66H59C58.6355 104.66 58.34 104.364 58.34 104V63.5753Z"
    fill="white" stroke="#364859" stroke-width="2.68" />
  <path
    d="M58.34 61.668C58.34 60.1989 59.5309 59.008 61 59.008H101C102.469 59.008 103.66 60.1989 103.66 61.668V67.4272H93H81H58.34V61.668Z"
    fill="white" stroke="#364859" stroke-width="2.68" />
  <rect x="67.7617" y="55" width="2.44043" height="7.17982" rx="1.22022" fill="white" stroke="#364859"
    stroke-width="2" />
  <rect x="92.168" y="55.001" width="2.44043" height="7.17982" rx="1.22022" fill="white" stroke="#364859"
    stroke-width="2" />
  <mask id="path-8-inside-1" fill="white">
    <rect x="88.1562" y="88.1934" width="11.0239" height="11.1002" rx="0.836682" />
  </mask>
  <rect x="88.1562" y="88.1934" width="11.0239" height="11.1002" rx="0.836682" stroke="#364859" stroke-width="4"
    mask="url(#path-8-inside-1)" />
</svg>