<svg width="72" height="72" viewBox="0 0 72 72" fill="none" xmlns="http://www.w3.org/2000/svg">
<path d="M35.9277 2.18422C35.9725 2.1584 36.0276 2.1584 36.0723 2.18422L65.2492 19.0295C65.2939 19.0553 65.3215 19.1031 65.3215 19.1547V52.8453C65.3215 52.8969 65.2939 52.9447 65.2492 52.9705L36.0723 69.8158C36.0275 69.8416 35.9724 69.8416 35.9277 69.8158L6.75081 52.9705C6.70609 52.9447 6.67854 52.8969 6.67854 52.8453V19.1547C6.67854 19.1031 6.70609 19.0553 6.75081 19.0295L35.9277 2.18422Z" fill="white" stroke="#56928A" stroke-width="3.7109"/>
<path d="M30.0938 21L28.6337 21.721C28.08 21.9944 27.8518 22.6641 28.1233 23.2187C28.3961 23.776 29.0698 24.0056 29.6262 23.7309L30.6562 23.2222H41.3438L42.3747 23.731C42.9312 24.0057 43.6049 23.7758 43.8775 23.2184C44.1485 22.6639 43.9203 21.9946 43.3669 21.7213L41.9062 21H30.0938ZM35.9861 24.3333C35.3725 24.3333 34.875 24.8308 34.875 25.4444H31.5C27.7875 25.4444 24.75 28.4444 24.75 32.1111V45.4444C24.75 47.2722 26.2744 48.7778 28.125 48.7778L27.4805 49.4143C26.8913 49.9963 27.3034 51 28.1316 51C28.3753 51 28.6092 50.904 28.7827 50.7327L30.762 48.7778H41.238L43.2173 50.7327C43.3908 50.904 43.6247 51 43.8684 51C44.6966 51 45.1087 49.9963 44.5195 49.4143L43.875 48.7778C45.7256 48.7778 47.25 47.2722 47.25 45.4444V32.1111C47.25 28.4444 44.2125 25.4444 40.5 25.4444H37.125C37.125 24.8308 36.6275 24.3333 36.0139 24.3333H35.9861ZM31.5 27.6667H40.5C42.9964 27.6667 45 29.6456 45 32.1111V36.5556H27V32.1111C27 29.6456 29.0036 27.6667 31.5 27.6667ZM27 38.7778H45V45.4444C45 46.0733 44.5117 46.5556 43.875 46.5556H28.125C27.4883 46.5556 27 46.0733 27 45.4444V38.7778ZM30.9375 41C30.4899 41 30.0607 41.1756 29.7443 41.4882C29.4278 41.8007 29.25 42.2246 29.25 42.6667C29.25 43.1087 29.4278 43.5326 29.7443 43.8452C30.0607 44.1577 30.4899 44.3333 30.9375 44.3333C31.3851 44.3333 31.8143 44.1577 32.1307 43.8452C32.4472 43.5326 32.625 43.1087 32.625 42.6667C32.625 42.2246 32.4472 41.8007 32.1307 41.4882C31.8143 41.1756 31.3851 41 30.9375 41ZM41.0625 41C40.6149 41 40.1857 41.1756 39.8693 41.4882C39.5528 41.8007 39.375 42.2246 39.375 42.6667C39.375 43.1087 39.5528 43.5326 39.8693 43.8452C40.1857 44.1577 40.6149 44.3333 41.0625 44.3333C41.5101 44.3333 41.9393 44.1577 42.2557 43.8452C42.5722 43.5326 42.75 43.1087 42.75 42.6667C42.75 42.2246 42.5722 41.8007 42.2557 41.4882C41.9393 41.1756 41.5101 41 41.0625 41Z" fill="#364859"/>
</svg>
