<svg width="65" height="104" viewBox="0 0 65 104" fill="none" xmlns="http://www.w3.org/2000/svg">
  <path d="M34.9599 72.8203L29.8018 86.1707M29.8018 86.1707L24.6437 72.8203M29.8018 86.1707V101.645H38.2975H20.6992"
    stroke="#364859" stroke-width="3" stroke-linecap="round" stroke-linejoin="round" />
  <mask id="path-2-inside-1" fill="white">
    <path fill-rule="evenodd" clip-rule="evenodd"
      d="M8.79927 63.7395C7.87758 65.3412 7.3504 67.1988 7.3504 69.1794C7.3504 75.2121 12.2408 80.1025 18.2735 80.1025C22.3178 80.1025 25.8488 77.9045 27.737 74.6379C31.9663 74.564 35.9116 73.1944 39.2639 70.8716C41.2564 73.5288 44.4317 75.248 48.0085 75.248C54.0412 75.248 58.9316 70.3576 58.9316 64.3249C58.9316 62.8162 58.6257 61.3788 58.0725 60.0716C62.2418 57.3679 65 52.6728 65 47.3335C65 41.5806 61.7979 36.5756 57.0787 34.0036C58.2491 32.2638 58.9321 30.1688 58.9321 27.9143C58.9321 21.8816 54.0417 16.9912 48.009 16.9912C47.3431 16.9912 46.6912 17.0508 46.0581 17.1649C46.1438 16.5124 46.188 15.8468 46.188 15.1709C46.188 6.79226 39.3957 0 31.0171 0C22.6384 0 15.8461 6.79226 15.8461 15.1709C15.8461 15.6114 15.8649 16.0475 15.9017 16.4784C8.32157 17.3219 2.42735 23.7504 2.42735 31.5556C2.42735 35.3797 3.84226 38.8733 6.17713 41.5416C6.07851 41.8539 5.98536 42.1691 5.89779 42.487C2.3938 44.3058 0 47.9674 0 52.188C0 57.2942 3.50364 61.582 8.23801 62.7786C8.4186 63.1039 8.60575 63.4243 8.79927 63.7395Z" />
  </mask>
  <path fill-rule="evenodd" clip-rule="evenodd"
    d="M8.79927 63.7395C7.87758 65.3412 7.3504 67.1988 7.3504 69.1794C7.3504 75.2121 12.2408 80.1025 18.2735 80.1025C22.3178 80.1025 25.8488 77.9045 27.737 74.6379C31.9663 74.564 35.9116 73.1944 39.2639 70.8716C41.2564 73.5288 44.4317 75.248 48.0085 75.248C54.0412 75.248 58.9316 70.3576 58.9316 64.3249C58.9316 62.8162 58.6257 61.3788 58.0725 60.0716C62.2418 57.3679 65 52.6728 65 47.3335C65 41.5806 61.7979 36.5756 57.0787 34.0036C58.2491 32.2638 58.9321 30.1688 58.9321 27.9143C58.9321 21.8816 54.0417 16.9912 48.009 16.9912C47.3431 16.9912 46.6912 17.0508 46.0581 17.1649C46.1438 16.5124 46.188 15.8468 46.188 15.1709C46.188 6.79226 39.3957 0 31.0171 0C22.6384 0 15.8461 6.79226 15.8461 15.1709C15.8461 15.6114 15.8649 16.0475 15.9017 16.4784C8.32157 17.3219 2.42735 23.7504 2.42735 31.5556C2.42735 35.3797 3.84226 38.8733 6.17713 41.5416C6.07851 41.8539 5.98536 42.1691 5.89779 42.487C2.3938 44.3058 0 47.9674 0 52.188C0 57.2942 3.50364 61.582 8.23801 62.7786C8.4186 63.1039 8.60575 63.4243 8.79927 63.7395Z"
    fill="white" />
  <path
    d="M8.79927 63.7395L11.3995 65.2357L12.2891 63.6897L11.3558 62.1697L8.79927 63.7395ZM27.737 74.6379L27.6846 71.6384L25.9886 71.668L25.1397 73.1366L27.737 74.6379ZM39.2639 70.8716L41.6641 69.0718L39.9305 66.7599L37.5553 68.4057L39.2639 70.8716ZM58.0725 60.0716L56.4403 57.5545L54.3292 58.9235L55.3097 61.2407L58.0725 60.0716ZM57.0787 34.0036L54.5895 32.3291L52.7512 35.0617L55.643 36.6377L57.0787 34.0036ZM46.0581 17.1649L43.0837 16.7744L42.5491 20.8459L46.5904 20.1173L46.0581 17.1649ZM15.9017 16.4784L16.2335 19.46L19.1395 19.1366L18.8908 16.2233L15.9017 16.4784ZM6.17713 41.5416L9.03792 42.4448L9.54595 40.8358L8.43479 39.566L6.17713 41.5416ZM5.89779 42.487L7.2799 45.1497L8.44228 44.5463L8.79007 43.2837L5.89779 42.487ZM8.23801 62.7786L10.8609 61.3225L10.2311 60.1881L8.97314 59.8701L8.23801 62.7786ZM6.19903 62.2432C5.02241 64.288 4.3504 66.6598 4.3504 69.1794H10.3504C10.3504 67.7377 10.7327 66.3944 11.3995 65.2357L6.19903 62.2432ZM4.3504 69.1794C4.3504 76.8689 10.584 83.1025 18.2735 83.1025V77.1025C13.8977 77.1025 10.3504 73.5552 10.3504 69.1794H4.3504ZM18.2735 83.1025C23.4324 83.1025 27.932 80.2952 30.3343 76.1392L25.1397 73.1366C23.7656 75.5138 21.2033 77.1025 18.2735 77.1025V83.1025ZM37.5553 68.4057C34.6596 70.4122 31.285 71.5755 27.6846 71.6384L27.7894 77.6374C32.6476 77.5526 37.1637 75.9767 40.9725 73.3375L37.5553 68.4057ZM36.8637 72.6714C39.3984 76.0516 43.4474 78.248 48.0085 78.248V72.248C45.416 72.248 43.1144 71.006 41.6641 69.0718L36.8637 72.6714ZM48.0085 78.248C55.698 78.248 61.9316 72.0144 61.9316 64.3249H55.9316C55.9316 68.7007 52.3843 72.248 48.0085 72.248V78.248ZM61.9316 64.3249C61.9316 62.4073 61.5422 60.5729 60.8354 58.9025L55.3097 61.2407C55.7092 62.1847 55.9316 63.225 55.9316 64.3249H61.9316ZM59.7048 62.5886C64.6909 59.3553 68 53.7317 68 47.3335H62C62 51.6139 59.7928 55.3805 56.4403 57.5545L59.7048 62.5886ZM68 47.3335C68 40.4389 64.159 34.4458 58.5143 31.3694L55.643 36.6377C59.4367 38.7053 62 42.7223 62 47.3335H68ZM59.5679 35.6781C61.0608 33.4588 61.9321 30.7838 61.9321 27.9143H55.9321C55.9321 29.5538 55.4374 31.0687 54.5895 32.3291L59.5679 35.6781ZM61.9321 27.9143C61.9321 20.2248 55.6985 13.9912 48.009 13.9912V19.9912C52.3848 19.9912 55.9321 23.5385 55.9321 27.9143H61.9321ZM48.009 13.9912C47.1638 13.9912 46.3337 14.0669 45.5258 14.2125L46.5904 20.1173C47.0486 20.0347 47.5224 19.9912 48.009 19.9912V13.9912ZM49.0326 17.5554C49.1352 16.7738 49.188 15.9778 49.188 15.1709H43.188C43.188 15.7159 43.1524 16.251 43.0837 16.7744L49.0326 17.5554ZM49.188 15.1709C49.188 5.13541 41.0526 -3 31.0171 -3V3C37.7389 3 43.188 8.44912 43.188 15.1709H49.188ZM31.0171 -3C20.9815 -3 12.8461 5.13541 12.8461 15.1709H18.8461C18.8461 8.44912 24.2952 3 31.0171 3V-3ZM12.8461 15.1709C12.8461 15.6967 12.8685 16.2179 12.9126 16.7336L18.8908 16.2233C18.8613 15.8771 18.8461 15.5261 18.8461 15.1709H12.8461ZM15.5699 13.4968C6.48767 14.5075 -0.572649 22.2049 -0.572649 31.5556H5.42735C5.42735 25.2959 10.1555 20.1364 16.2335 19.46L15.5699 13.4968ZM-0.572649 31.5556C-0.572649 36.1338 1.12438 40.323 3.91947 43.5172L8.43479 39.566C6.56014 37.4237 5.42735 34.6256 5.42735 31.5556H-0.572649ZM8.79007 43.2837C8.8678 43.0015 8.95046 42.7219 9.03792 42.4448L3.31633 40.6383C3.20656 40.986 3.10291 41.3367 3.00551 41.6903L8.79007 43.2837ZM4.51568 39.8244C0.0568374 42.1388 -3 46.8039 -3 52.188H3C3 49.1308 4.73077 46.4729 7.2799 45.1497L4.51568 39.8244ZM-3 52.188C-3 58.7007 1.4687 64.162 7.50287 65.6872L8.97314 59.8701C5.53858 59.002 3 55.8877 3 52.188H-3ZM11.3558 62.1697C11.1853 61.892 11.0203 61.6096 10.8609 61.3225L5.61508 64.2347C5.81692 64.5983 6.0262 64.9566 6.24273 65.3092L11.3558 62.1697Z"
    fill="#364859" mask="url(#path-2-inside-1)" />
  <mask id="path-4-inside-2" fill="white">
    <path
      d="M28.2082 49.6337C28.6707 49.0271 28.5576 48.148 27.8807 47.7962C26.4221 47.038 24.7548 46.7405 23.1037 46.9631C20.993 47.2478 19.0818 48.3592 17.7905 50.053C16.4993 51.7468 15.9338 53.8842 16.2184 55.9949C16.4411 57.646 17.1696 59.1749 18.287 60.3806C18.8056 60.9401 19.6832 60.8163 20.1457 60.2096C20.6082 59.603 20.4723 58.7441 20.0063 58.1401C19.4466 57.4148 19.0807 56.5494 18.9561 55.6257C18.7694 54.2411 19.1404 52.839 19.9875 51.7278C20.8345 50.6167 22.0883 49.8876 23.4729 49.7009C24.3966 49.5763 25.328 49.6999 26.1757 50.0475C26.8815 50.3369 27.7457 50.2404 28.2082 49.6337Z" />
  </mask>
  <path
    d="M28.2082 49.6337C28.6707 49.0271 28.5576 48.148 27.8807 47.7962C26.4221 47.038 24.7548 46.7405 23.1037 46.9631C20.993 47.2478 19.0818 48.3592 17.7905 50.053C16.4993 51.7468 15.9338 53.8842 16.2184 55.9949C16.4411 57.646 17.1696 59.1749 18.287 60.3806C18.8056 60.9401 19.6832 60.8163 20.1457 60.2096C20.6082 59.603 20.4723 58.7441 20.0063 58.1401C19.4466 57.4148 19.0807 56.5494 18.9561 55.6257C18.7694 54.2411 19.1404 52.839 19.9875 51.7278C20.8345 50.6167 22.0883 49.8876 23.4729 49.7009C24.3966 49.5763 25.328 49.6999 26.1757 50.0475C26.8815 50.3369 27.7457 50.2404 28.2082 49.6337Z"
    stroke="#56928A" stroke-width="6" mask="url(#path-4-inside-2)" />
  <mask id="path-5-inside-3" fill="white">
    <path
      d="M37.0631 27.8051C36.6477 27.2083 36.7922 26.3718 37.4653 26.0966C38.5098 25.6694 39.6627 25.5424 40.7909 25.7447C42.3551 26.0251 43.7438 26.9154 44.6516 28.2197C45.5593 29.5241 45.9117 31.1356 45.6313 32.6997C45.429 33.828 44.9094 34.865 44.146 35.696C43.6541 36.2315 42.8195 36.0765 42.4041 35.4796C41.9887 34.8827 42.1668 34.0686 42.5597 33.4567C42.7961 33.0885 42.9605 32.6741 43.0393 32.235C43.1964 31.3583 42.9989 30.4551 42.4901 29.724C41.9813 28.9929 41.203 28.4939 40.3262 28.3367C39.8872 28.258 39.4415 28.2683 39.014 28.362C38.3037 28.5178 37.4785 28.402 37.0631 27.8051Z" />
  </mask>
  <path
    d="M37.0631 27.8051C36.6477 27.2083 36.7922 26.3718 37.4653 26.0966C38.5098 25.6694 39.6627 25.5424 40.7909 25.7447C42.3551 26.0251 43.7438 26.9154 44.6516 28.2197C45.5593 29.5241 45.9117 31.1356 45.6313 32.6997C45.429 33.828 44.9094 34.865 44.146 35.696C43.6541 36.2315 42.8195 36.0765 42.4041 35.4796C41.9887 34.8827 42.1668 34.0686 42.5597 33.4567C42.7961 33.0885 42.9605 32.6741 43.0393 32.235C43.1964 31.3583 42.9989 30.4551 42.4901 29.724C41.9813 28.9929 41.203 28.4939 40.3262 28.3367C39.8872 28.258 39.4415 28.2683 39.014 28.362C38.3037 28.5178 37.4785 28.402 37.0631 27.8051Z"
    stroke="#56928A" stroke-width="6" mask="url(#path-5-inside-3)" />
  <mask id="path-6-inside-4" fill="white">
    <path
      d="M37.81 56.5215C38.3512 57.0591 39.2374 57.0616 39.6745 56.4363C40.1104 55.8127 40.4568 55.1284 40.7016 54.403C41.0941 53.2398 41.2147 52.0021 41.0541 50.785C40.8935 49.5679 40.4561 48.4038 39.7753 47.3822C39.0945 46.3606 38.1886 45.5087 37.1271 44.8919C36.0656 44.2751 34.8769 43.9099 33.6522 43.8244C32.4276 43.7388 31.1996 43.9352 30.0627 44.3983C28.9258 44.8615 27.9102 45.5792 27.0939 46.4962C26.585 47.068 26.162 47.7079 25.8361 48.3954C25.5093 49.0847 25.9503 49.8535 26.6853 50.0575C27.4204 50.2614 28.1674 49.8162 28.5549 49.1592C28.7279 48.8658 28.9296 48.5889 29.1575 48.3329C29.6929 47.7313 30.3591 47.2605 31.1049 46.9567C31.8508 46.6528 32.6563 46.524 33.4597 46.5802C34.2631 46.6363 35.0429 46.8759 35.7392 47.2805C36.4355 47.6851 37.0298 48.2439 37.4764 48.9141C37.923 49.5843 38.21 50.3479 38.3153 51.1464C38.4207 51.9448 38.3416 52.7567 38.0841 53.5198C37.9745 53.8446 37.8338 54.1568 37.6646 54.4524C37.2856 55.1145 37.2687 55.9839 37.81 56.5215Z" />
  </mask>
  <path
    d="M37.81 56.5215C38.3512 57.0591 39.2374 57.0616 39.6745 56.4363C40.1104 55.8127 40.4568 55.1284 40.7016 54.403C41.0941 53.2398 41.2147 52.0021 41.0541 50.785C40.8935 49.5679 40.4561 48.4038 39.7753 47.3822C39.0945 46.3606 38.1886 45.5087 37.1271 44.8919C36.0656 44.2751 34.8769 43.9099 33.6522 43.8244C32.4276 43.7388 31.1996 43.9352 30.0627 44.3983C28.9258 44.8615 27.9102 45.5792 27.0939 46.4962C26.585 47.068 26.162 47.7079 25.8361 48.3954C25.5093 49.0847 25.9503 49.8535 26.6853 50.0575C27.4204 50.2614 28.1674 49.8162 28.5549 49.1592C28.7279 48.8658 28.9296 48.5889 29.1575 48.3329C29.6929 47.7313 30.3591 47.2605 31.1049 46.9567C31.8508 46.6528 32.6563 46.524 33.4597 46.5802C34.2631 46.6363 35.0429 46.8759 35.7392 47.2805C36.4355 47.6851 37.0298 48.2439 37.4764 48.9141C37.923 49.5843 38.21 50.3479 38.3153 51.1464C38.4207 51.9448 38.3416 52.7567 38.0841 53.5198C37.9745 53.8446 37.8338 54.1568 37.6646 54.4524C37.2856 55.1145 37.2687 55.9839 37.81 56.5215Z"
    stroke="#56928A" stroke-width="6" mask="url(#path-6-inside-4)" />
  <mask id="path-7-inside-5" fill="white">
    <path
      d="M29.6009 32.1465C29.0195 32.5833 28.1784 32.4692 27.8788 31.8065C27.6844 31.3763 27.5408 30.9233 27.4521 30.4564C27.2812 29.5566 27.3189 28.6295 27.5623 27.7464C27.8056 26.8634 28.2482 26.0479 28.856 25.3626C29.4638 24.6774 30.2206 24.1406 31.0683 23.7935C31.9159 23.4464 32.8319 23.2983 33.7458 23.3605C34.6596 23.4228 35.547 23.6937 36.3398 24.1525C37.1326 24.6113 37.8096 25.2457 38.3189 26.0071C38.5831 26.402 38.7985 26.8257 38.9616 27.2687C39.2127 27.9512 38.6932 28.6224 37.9724 28.7188C37.2516 28.8152 36.6091 28.2844 36.2446 27.6552C36.2085 27.5927 36.1702 27.5314 36.13 27.4712C35.8446 27.0445 35.4651 26.6889 35.0208 26.4318C34.5764 26.1746 34.079 26.0228 33.5668 25.9879C33.0546 25.953 32.5412 26.036 32.0661 26.2305C31.591 26.4251 31.1668 26.7259 30.8262 27.11C30.4855 27.4941 30.2374 27.9512 30.101 28.4461C29.9646 28.9411 29.9435 29.4607 30.0393 29.9651C30.0528 30.0362 30.0686 30.1067 30.0866 30.1765C30.2681 30.8807 30.1823 31.7097 29.6009 32.1465Z" />
  </mask>
  <path
    d="M29.6009 32.1465C29.0195 32.5833 28.1784 32.4692 27.8788 31.8065C27.6844 31.3763 27.5408 30.9233 27.4521 30.4564C27.2812 29.5566 27.3189 28.6295 27.5623 27.7464C27.8056 26.8634 28.2482 26.0479 28.856 25.3626C29.4638 24.6774 30.2206 24.1406 31.0683 23.7935C31.9159 23.4464 32.8319 23.2983 33.7458 23.3605C34.6596 23.4228 35.547 23.6937 36.3398 24.1525C37.1326 24.6113 37.8096 25.2457 38.3189 26.0071C38.5831 26.402 38.7985 26.8257 38.9616 27.2687C39.2127 27.9512 38.6932 28.6224 37.9724 28.7188C37.2516 28.8152 36.6091 28.2844 36.2446 27.6552C36.2085 27.5927 36.1702 27.5314 36.13 27.4712C35.8446 27.0445 35.4651 26.6889 35.0208 26.4318C34.5764 26.1746 34.079 26.0228 33.5668 25.9879C33.0546 25.953 32.5412 26.036 32.0661 26.2305C31.591 26.4251 31.1668 26.7259 30.8262 27.11C30.4855 27.4941 30.2374 27.9512 30.101 28.4461C29.9646 28.9411 29.9435 29.4607 30.0393 29.9651C30.0528 30.0362 30.0686 30.1067 30.0866 30.1765C30.2681 30.8807 30.1823 31.7097 29.6009 32.1465Z"
    stroke="#56928A" stroke-width="6" mask="url(#path-7-inside-5)" />
</svg>