<svg width="42" height="42" viewBox="0 0 42 42" fill="none" xmlns="http://www.w3.org/2000/svg">
  <path
    d="M20.8398 0.839844C9.79401 0.839844 0.839844 9.79401 0.839844 20.8398C0.839844 31.8857 9.79401 40.8398 20.8398 40.8398C31.8857 40.8398 40.8398 31.8857 40.8398 20.8398C40.8398 9.79401 31.8857 0.839844 20.8398 0.839844ZM28.9753 17.2232C28.9836 17.394 28.9857 17.5648 28.9857 17.7315C28.9857 22.9398 25.0253 28.9419 17.7794 28.9419C15.6384 28.9455 13.5419 28.3306 11.7419 27.1711C12.0482 27.2086 12.3628 27.2232 12.6815 27.2232C14.5273 27.2232 16.2253 26.5961 17.5732 25.5378C16.7518 25.5216 15.9558 25.2496 15.2963 24.7597C14.6368 24.2697 14.1466 23.5862 13.894 22.8044C14.4839 22.9166 15.0916 22.8931 15.6711 22.7357C14.7795 22.5554 13.9778 22.0723 13.4017 21.3683C12.8257 20.6643 12.5109 19.7828 12.5107 18.8732V18.8253C13.0419 19.119 13.6503 19.2982 14.2961 19.319C13.4603 18.7626 12.8686 17.9079 12.642 16.9297C12.4155 15.9515 12.5712 14.9237 13.0773 14.0565C14.0668 15.2732 15.3008 16.2685 16.6994 16.978C18.0979 17.6875 19.6299 18.0954 21.1961 18.1753C20.997 17.3301 21.0827 16.4428 21.4399 15.6513C21.7971 14.8599 22.4057 14.2086 23.1712 13.7987C23.9368 13.3889 24.8162 13.2434 25.673 13.385C26.5297 13.5266 27.3156 13.9472 27.9086 14.5815C28.7902 14.4071 29.6356 14.0837 30.4086 13.6253C30.1148 14.538 29.4996 15.3131 28.6773 15.8065C29.4583 15.7125 30.2208 15.5025 30.9398 15.1836C30.4117 15.975 29.7464 16.6658 28.9753 17.2232Z"
    fill="#364859" />
</svg>