<svg width="388" height="321" viewBox="0 0 388 321" fill="none" xmlns="http://www.w3.org/2000/svg">
  <g opacity="0.75">
    <g filter="url(#filter0_d)">
      <path
        d="M98.9991 -6L185.965 -5.28272C188.161 -5.26461 189.932 -3.47912 189.932 -1.28286V47.924C189.932 49.362 189.16 50.6892 187.91 51.4005L100.978 100.874C99.7509 101.572 98.2472 101.572 97.0206 100.874L10.088 51.4005C8.83823 50.6892 8.06641 49.362 8.06641 47.924V-1.28285C8.06641 -3.47912 9.83722 -5.26461 12.0334 -5.28272L98.9991 -6Z"
        fill="white" />
    </g>
    <g filter="url(#filter1_d)">
      <path
        d="M193.022 58.1259C194.248 57.4279 195.752 57.4279 196.978 58.1259L283.911 107.6C285.161 108.311 285.933 109.638 285.933 111.076V209.924C285.933 211.362 285.161 212.689 283.911 213.4L196.978 262.874C195.752 263.572 194.248 263.572 193.022 262.874L106.089 213.4C104.839 212.689 104.067 211.362 104.067 209.924V111.076C104.067 109.638 104.839 108.311 106.089 107.6L193.022 58.1259Z"
        fill="white" />
    </g>
    <g filter="url(#filter2_d)">
      <path
        d="M287.021 220.126C288.247 219.428 289.751 219.428 290.978 220.126L377.91 269.6C379.16 270.311 379.932 271.638 379.932 273.076V321.239C379.932 323.452 378.134 325.245 375.921 325.239L288.999 325L202.077 325.239C199.864 325.245 198.066 323.452 198.066 321.239V273.076C198.066 271.638 198.838 270.311 200.088 269.6L287.021 220.126Z"
        fill="white" />
    </g>
  </g>
  <defs>
    <filter id="filter0_d" x="0.0664062" y="-12" width="197.865" height="123.398" filterUnits="userSpaceOnUse"
      color-interpolation-filters="sRGB">
      <feFlood flood-opacity="0" result="BackgroundImageFix" />
      <feColorMatrix in="SourceAlpha" type="matrix" values="0 0 0 0 0 0 0 0 0 0 0 0 0 0 0 0 0 0 127 0" />
      <feOffset dy="2" />
      <feGaussianBlur stdDeviation="4" />
      <feColorMatrix type="matrix" values="0 0 0 0 0 0 0 0 0 0 0 0 0 0 0 0 0 0 0.25 0" />
      <feBlend mode="normal" in2="BackgroundImageFix" result="effect1_dropShadow" />
      <feBlend mode="normal" in="SourceGraphic" in2="effect1_dropShadow" result="shape" />
    </filter>
    <filter id="filter1_d" x="96.0664" y="51.6016" width="197.865" height="221.795" filterUnits="userSpaceOnUse"
      color-interpolation-filters="sRGB">
      <feFlood flood-opacity="0" result="BackgroundImageFix" />
      <feColorMatrix in="SourceAlpha" type="matrix" values="0 0 0 0 0 0 0 0 0 0 0 0 0 0 0 0 0 0 127 0" />
      <feOffset dy="2" />
      <feGaussianBlur stdDeviation="4" />
      <feColorMatrix type="matrix" values="0 0 0 0 0 0 0 0 0 0 0 0 0 0 0 0 0 0 0.25 0" />
      <feBlend mode="normal" in2="BackgroundImageFix" result="effect1_dropShadow" />
      <feBlend mode="normal" in="SourceGraphic" in2="effect1_dropShadow" result="shape" />
    </filter>
    <filter id="filter2_d" x="190.066" y="213.602" width="197.865" height="121.637" filterUnits="userSpaceOnUse"
      color-interpolation-filters="sRGB">
      <feFlood flood-opacity="0" result="BackgroundImageFix" />
      <feColorMatrix in="SourceAlpha" type="matrix" values="0 0 0 0 0 0 0 0 0 0 0 0 0 0 0 0 0 0 127 0" />
      <feOffset dy="2" />
      <feGaussianBlur stdDeviation="4" />
      <feColorMatrix type="matrix" values="0 0 0 0 0 0 0 0 0 0 0 0 0 0 0 0 0 0 0.25 0" />
      <feBlend mode="normal" in2="BackgroundImageFix" result="effect1_dropShadow" />
      <feBlend mode="normal" in="SourceGraphic" in2="effect1_dropShadow" result="shape" />
    </filter>
  </defs>
</svg>