<svg width="89" height="143" viewBox="0 0 89 143" fill="none" xmlns="http://www.w3.org/2000/svg">
<g filter="url(#filter0_d)">
<path d="M-2.44418 139.684C-2.07821 139.889 -1.63197 139.889 -1.26599 139.684L25.3669 124.764C25.7475 124.551 25.9832 124.149 25.9832 123.713V93.9365C25.9832 93.5002 25.7475 93.098 25.3669 92.8848L-1.26599 77.9656C-1.63197 77.7605 -2.07821 77.7605 -2.44418 77.9656L-29.0771 92.8849C-29.4577 93.098 -29.6934 93.5002 -29.6934 93.9365V123.713C-29.6934 124.149 -29.4577 124.551 -29.0771 124.764L-2.44418 139.684Z" fill="white"/>
</g>
<g filter="url(#filter1_d)">
<path d="M26.9464 90.8653C27.3124 91.0703 27.7587 91.0703 28.1246 90.8653L54.7576 75.946C55.1382 75.7328 55.3738 75.3306 55.3738 74.8944V45.1181C55.3738 44.6819 55.1382 44.2797 54.7576 44.0665L28.1246 29.1472C27.7587 28.9422 27.3124 28.9422 26.9464 29.1472L0.313505 44.0665C-0.0670781 44.2797 -0.302773 44.6819 -0.302773 45.1181V74.8944C-0.302773 75.3306 -0.0670776 75.7328 0.313506 75.946L26.9464 90.8653Z" fill="white"/>
</g>
<g filter="url(#filter2_d)">
<path d="M55.7238 42.0489C56.0898 42.2539 56.536 42.2539 56.902 42.0489L83.5349 27.1296C83.9155 26.9164 84.1512 26.5142 84.1512 26.078V-3.6983C84.1512 -4.13453 83.9155 -4.53672 83.5349 -4.74992L56.902 -19.6692C56.536 -19.8742 56.0898 -19.8742 55.7238 -19.6692L29.0908 -4.74991C28.7103 -4.53672 28.4746 -4.13453 28.4746 -3.6983V26.078C28.4746 26.5142 28.7103 26.9164 29.0908 27.1296L55.7238 42.0489Z" fill="white"/>
</g>
<g filter="url(#filter3_d)">
<path d="M-2.44418 42.0489C-2.07821 42.2539 -1.63197 42.2539 -1.26599 42.0489L25.3669 27.1296C25.7475 26.9164 25.9832 26.5142 25.9832 26.078V-3.6983C25.9832 -4.13453 25.7475 -4.53672 25.3669 -4.74992L-1.26599 -19.6692C-1.63197 -19.8742 -2.07821 -19.8742 -2.44418 -19.6692L-29.0771 -4.74991C-29.4577 -4.53672 -29.6934 -4.13453 -29.6934 -3.6983V26.078C-29.6934 26.5142 -29.4577 26.9164 -29.0771 27.1296L-2.44418 42.0489Z" fill="white"/>
</g>
<defs>
<filter id="filter0_d" x="-32.1061" y="76.0044" width="60.4981" height="66.8471" filterUnits="userSpaceOnUse" color-interpolation-filters="sRGB">
<feFlood flood-opacity="0" result="BackgroundImageFix"/>
<feColorMatrix in="SourceAlpha" type="matrix" values="0 0 0 0 0 0 0 0 0 0 0 0 0 0 0 0 0 0 127 0"/>
<feOffset dy="0.602687"/>
<feGaussianBlur stdDeviation="1.20537"/>
<feColorMatrix type="matrix" values="0 0 0 0 0 0 0 0 0 0 0 0 0 0 0 0 0 0 0.25 0"/>
<feBlend mode="normal" in2="BackgroundImageFix" result="effect1_dropShadow"/>
<feBlend mode="normal" in="SourceGraphic" in2="effect1_dropShadow" result="shape"/>
</filter>
<filter id="filter1_d" x="-2.71544" y="27.1861" width="60.4981" height="66.8471" filterUnits="userSpaceOnUse" color-interpolation-filters="sRGB">
<feFlood flood-opacity="0" result="BackgroundImageFix"/>
<feColorMatrix in="SourceAlpha" type="matrix" values="0 0 0 0 0 0 0 0 0 0 0 0 0 0 0 0 0 0 127 0"/>
<feOffset dy="0.602687"/>
<feGaussianBlur stdDeviation="1.20537"/>
<feColorMatrix type="matrix" values="0 0 0 0 0 0 0 0 0 0 0 0 0 0 0 0 0 0 0.25 0"/>
<feBlend mode="normal" in2="BackgroundImageFix" result="effect1_dropShadow"/>
<feBlend mode="normal" in="SourceGraphic" in2="effect1_dropShadow" result="shape"/>
</filter>
<filter id="filter2_d" x="26.0619" y="-21.6303" width="60.4981" height="66.8471" filterUnits="userSpaceOnUse" color-interpolation-filters="sRGB">
<feFlood flood-opacity="0" result="BackgroundImageFix"/>
<feColorMatrix in="SourceAlpha" type="matrix" values="0 0 0 0 0 0 0 0 0 0 0 0 0 0 0 0 0 0 127 0"/>
<feOffset dy="0.602687"/>
<feGaussianBlur stdDeviation="1.20537"/>
<feColorMatrix type="matrix" values="0 0 0 0 0 0 0 0 0 0 0 0 0 0 0 0 0 0 0.25 0"/>
<feBlend mode="normal" in2="BackgroundImageFix" result="effect1_dropShadow"/>
<feBlend mode="normal" in="SourceGraphic" in2="effect1_dropShadow" result="shape"/>
</filter>
<filter id="filter3_d" x="-32.1061" y="-21.6303" width="60.4981" height="66.8471" filterUnits="userSpaceOnUse" color-interpolation-filters="sRGB">
<feFlood flood-opacity="0" result="BackgroundImageFix"/>
<feColorMatrix in="SourceAlpha" type="matrix" values="0 0 0 0 0 0 0 0 0 0 0 0 0 0 0 0 0 0 127 0"/>
<feOffset dy="0.602687"/>
<feGaussianBlur stdDeviation="1.20537"/>
<feColorMatrix type="matrix" values="0 0 0 0 0 0 0 0 0 0 0 0 0 0 0 0 0 0 0.25 0"/>
<feBlend mode="normal" in2="BackgroundImageFix" result="effect1_dropShadow"/>
<feBlend mode="normal" in="SourceGraphic" in2="effect1_dropShadow" result="shape"/>
</filter>
</defs>
</svg>
