<svg width="374" height="234" viewBox="0 0 374 234" fill="none" xmlns="http://www.w3.org/2000/svg">
  <path
    d="M275.222 181.575C276.945 180.598 279.055 180.598 280.778 181.575L371.148 232.845C372.911 233.845 374 235.715 374 237.741V255.945L278 255.999L182 255.945V237.741C182 235.715 183.089 233.845 184.852 232.845L275.222 181.575Z"
    fill="white" />
  <path
    d="M93.2204 50.7568C94.9442 51.7355 97.0558 51.7355 98.7796 50.7568L189.15 -0.553841C190.912 -1.55406 192 -3.42363 192 -5.44941V-23.6719L96 -23.7256L0 -23.6719V-5.4494C0 -3.42363 1.0884 -1.55406 2.85002 -0.553844L93.2204 50.7568Z"
    fill="white" />
  <path
    d="M181.216 17.5825C182.942 16.6007 185.058 16.6007 186.784 17.5825L269.489 64.63C271.248 65.6309 272.335 67.4992 272.335 69.5233V163.475C272.335 165.499 271.248 167.367 269.489 168.368L186.784 215.416C185.058 216.397 182.942 216.397 181.216 215.416L98.5114 168.368C96.7521 167.367 95.6654 165.499 95.6654 163.475V69.5233C95.6654 67.4992 96.7521 65.6309 98.5114 64.63L181.216 17.5825Z"
    fill="white" />
</svg>