<svg width="72" height="72" viewBox="0 0 72 72" fill="none" xmlns="http://www.w3.org/2000/svg">
  <path
    d="M35.9277 2.18422C35.9725 2.1584 36.0276 2.1584 36.0723 2.18422L65.2492 19.0295C65.2939 19.0553 65.3215 19.1031 65.3215 19.1547V52.8453C65.3215 52.8969 65.2939 52.9447 65.2492 52.9705L36.0723 69.8158C36.0275 69.8416 35.9724 69.8416 35.9277 69.8158L6.75081 52.9705C6.70609 52.9447 6.67854 52.8969 6.67854 52.8453V19.1547C6.67854 19.1031 6.70609 19.0553 6.75081 19.0295L35.9277 2.18422Z"
    fill="white" stroke="#ECE9E9" stroke-width="3.7109" />
  <path
    d="M35.75 1.87639C35.9047 1.78707 36.0953 1.78707 36.25 1.87639L65.4269 18.7217C65.5816 18.811 65.6769 18.9761 65.6769 19.1547V52.8453C65.6769 53.0239 65.5816 53.189 65.4269 53.2783L36.25 70.1236L37 71.4226L36.25 70.1236C36.0953 70.2129 35.9047 70.2129 35.75 70.1236L6.57309 53.2783C6.41839 53.189 6.32309 53.0239 6.32309 52.8453V19.1547C6.32309 18.9761 6.41839 18.811 6.57309 18.7217L35.75 1.87639Z"
    fill="#F8F7F7" stroke="#ECE9E9" stroke-width="3" />
  <path d="M47.1412 30.8571L35.9983 42L24.8555 30.8571" stroke="#364859" stroke-width="3" stroke-linecap="round"
    stroke-linejoin="round" />
</svg>