<svg width="401" height="234" viewBox="0 0 401 234" fill="none" xmlns="http://www.w3.org/2000/svg">
  <path opacity="0.75"
    d="M298.947 180.578C300.671 179.599 302.783 179.599 304.507 180.578L397.604 233.437C399.365 234.437 400.454 236.307 400.454 238.333V257.166L301.727 257.221L203 257.166V238.333C203 236.307 204.088 234.437 205.85 233.437L298.947 180.578Z"
    fill="white" />
  <path opacity="0.75"
    d="M95.9473 48.7538C97.6711 49.7326 99.7827 49.7326 101.507 48.7538L194.604 -4.10505C196.365 -5.10527 197.454 -6.97484 197.454 -9.00061V-27.8338L98.7269 -27.8891L0 -27.8338V-9.00062C0 -6.97485 1.0884 -5.10527 2.85002 -4.10505L95.9473 48.7538Z"
    fill="white" />
  <path
    d="M196.214 10.5842C197.941 9.60088 200.059 9.60088 201.786 10.5842L290.553 61.1286C292.311 62.1298 293.397 63.9975 293.397 66.0208V166.975C293.397 168.999 292.311 170.866 290.553 171.867L201.786 222.412C200.059 223.395 197.941 223.395 196.214 222.412L107.447 171.867C105.689 170.866 104.603 168.999 104.603 166.975V66.0208C104.603 63.9975 105.689 62.1298 107.447 61.1287L196.214 10.5842Z"
    fill="#F8F7F7" />
</svg>