<svg width="374" height="234" viewBox="0 0 374 234" fill="none" xmlns="http://www.w3.org/2000/svg">
  <path
    d="M275.222 181.576C276.945 180.599 279.055 180.599 280.778 181.576L371.148 232.846C372.911 233.846 374 235.716 374 237.742V255.946L278 256L182 255.946V237.742C182 235.716 183.089 233.846 184.852 232.846L275.222 181.576Z"
    fill="white" />
  <path
    d="M93.2204 50.7577C94.9442 51.7365 97.0558 51.7365 98.7796 50.7577L189.15 -0.552864C190.912 -1.55309 192 -3.42265 192 -5.44843V-23.6709L96 -23.7246L0 -23.6709V-5.44843C0 -3.42265 1.0884 -1.55309 2.85002 -0.552868L93.2204 50.7577Z"
    fill="white" />
  <path opacity="0.8"
    d="M182 19.1547C183.238 18.4402 184.762 18.4402 186 19.1547L267.737 66.3453C268.974 67.0598 269.737 68.3803 269.737 69.8094V164.191C269.737 165.62 268.974 166.94 267.737 167.655L186 214.845C184.762 215.56 183.238 215.56 182 214.845L100.263 167.655C99.0259 166.94 98.2635 165.62 98.2635 164.191V69.8094C98.2635 68.3803 99.0259 67.0598 100.263 66.3453L182 19.1547Z"
    fill="#669C95" />
  <path
    d="M182.75 29.4537C183.523 29.0072 184.477 29.0072 185.25 29.4537L259.192 72.1443C259.966 72.5909 260.442 73.4162 260.442 74.3094V159.691C260.442 160.584 259.966 161.409 259.192 161.856L185.25 204.546C184.476 204.993 183.523 204.993 182.75 204.546L108.808 161.856C108.034 161.409 107.558 160.584 107.558 159.691V74.3094C107.558 73.4162 108.034 72.5909 108.808 72.1443L182.75 29.4537Z"
    fill="#669C95" stroke="white" stroke-width="3" />
  <path d="M134.5 165.774V102.673L166.124 89.8719V152.973L134.5 165.774Z" fill="#669C95" stroke="#364859"
    stroke-width="3" stroke-linejoin="round" />
  <path
    d="M166.4 91.4246C165.631 91.1447 165.235 90.2948 165.515 89.5263C165.795 88.7578 166.645 88.3618 167.414 88.6418L166.4 91.4246ZM166.839 154.063C166.075 153.77 165.693 152.914 165.986 152.15C166.278 151.386 167.134 151.004 167.898 151.297L166.839 154.063ZM201.619 164.21C202.383 164.503 202.765 165.359 202.473 166.123C202.18 166.887 201.324 167.269 200.56 166.976L201.619 164.21ZM200.583 103.877L166.4 91.4246L167.414 88.6418L201.597 101.094L200.583 103.877ZM167.898 151.297L201.619 164.21L200.56 166.976L166.839 154.063L167.898 151.297Z"
    fill="#364859" />
  <path d="M201.875 165.774V102.673L233.499 89.8719V152.973L201.875 165.774Z" fill="#669C95" stroke="#364859"
    stroke-width="3" stroke-linejoin="round" />
  <path
    d="M207.613 85.1346C207.613 103.128 184.306 123.664 184.306 123.664C184.306 123.664 161 103.128 161 85.1346C161 78.999 163.455 73.1146 167.826 68.776C172.197 64.4374 178.125 62 184.306 62C190.488 62 196.416 64.4374 200.787 68.776C205.157 73.1146 207.613 78.999 207.613 85.1346Z"
    fill="#669C95" stroke="white" stroke-width="3" stroke-linecap="round" stroke-linejoin="round" />
  <path
    d="M184.397 93.7378C189.325 93.7378 193.321 89.7487 193.321 84.8279C193.321 79.9071 189.325 75.918 184.397 75.918C179.468 75.918 175.473 79.9071 175.473 84.8279C175.473 89.7487 179.468 93.7378 184.397 93.7378Z"
    fill="#669C95" stroke="white" stroke-width="3" stroke-linecap="round" stroke-linejoin="round" />
</svg>