<svg width="136" height="255" viewBox="0 0 136 255" fill="none" xmlns="http://www.w3.org/2000/svg">
  <g filter="url(#mmp-filter0_d)">
    <path
      d="M-3.04707 249.686C-2.47605 250.011 -1.776 250.011 -1.20499 249.686L39.2592 226.653C39.8409 226.322 40.2001 225.704 40.2001 225.035V179.015C40.2001 178.346 39.8409 177.728 39.2592 177.397L-1.20499 154.364C-1.776 154.039 -2.47605 154.039 -3.04707 154.364L-43.5113 177.397C-44.0929 177.728 -44.4521 178.346 -44.4521 179.015V225.035C-44.4521 225.704 -44.0929 226.322 -43.5113 226.653L-3.04707 249.686Z"
      fill="#F8F7F7" />
  </g>
  <g filter="url(#mmp-filter1_d)">
    <path
      d="M41.6385 174.266C42.2095 174.591 42.9095 174.591 43.4806 174.266L83.9448 151.233C84.5264 150.902 84.8856 150.284 84.8856 149.615V103.595C84.8856 102.926 84.5264 102.308 83.9448 101.977L43.4806 78.9443C42.9095 78.6193 42.2095 78.6193 41.6385 78.9443L1.17424 101.977C0.592612 102.308 0.233418 102.926 0.233418 103.595V149.615C0.233418 150.284 0.592613 150.902 1.17424 151.233L41.6385 174.266Z"
      fill="#F8F7F7" />
  </g>
  <g filter="url(#mmp-filter2_d)">
    <path
      d="M85.3924 98.8459C85.9634 99.1709 86.6635 99.1709 87.2345 98.8459L127.699 75.8131C128.28 75.4821 128.64 74.8643 128.64 74.1951V28.1752C128.64 27.5059 128.28 26.8882 127.699 26.5571L87.2345 3.52439C86.6635 3.19936 85.9634 3.19936 85.3924 3.52439L44.9282 26.5571C44.3465 26.8882 43.9873 27.5059 43.9873 28.1752V74.1951C43.9873 74.8643 44.3465 75.4821 44.9282 75.8131L85.3924 98.8459Z"
      fill="#F8F7F7" />
  </g>
  <g filter="url(#mmp-filter3_d)">
    <path
      d="M-3.04707 98.8459C-2.47605 99.1709 -1.776 99.1709 -1.20499 98.8459L39.2592 75.8131C39.8409 75.4821 40.2001 74.8643 40.2001 74.1951V28.1752C40.2001 27.5059 39.8409 26.8882 39.2592 26.5571L-1.20499 3.52439C-1.776 3.19936 -2.47605 3.19936 -3.04707 3.52439L-43.5113 26.5571C-44.0929 26.8882 -44.4521 27.5059 -44.4521 28.1752V74.1951C-44.4521 74.8643 -44.0929 75.4821 -43.5113 75.8131L-3.04707 98.8459Z"
      fill="#F8F7F7" />
  </g>
  <defs>
    <filter id="mmp-filter0_d" x="-48.1749" y="151.327" width="92.0997" height="103.256" filterUnits="userSpaceOnUse"
      color-interpolation-filters="sRGB">
      <feFlood flood-opacity="0" result="BackgroundImageFix" />
      <feColorMatrix in="SourceAlpha" type="matrix" values="0 0 0 0 0 0 0 0 0 0 0 0 0 0 0 0 0 0 127 0" />
      <feOffset dy="0.930933" />
      <feGaussianBlur stdDeviation="1.86187" />
      <feColorMatrix type="matrix" values="0 0 0 0 0 0 0 0 0 0 0 0 0 0 0 0 0 0 0.25 0" />
      <feBlend mode="normal" in2="BackgroundImageFix" result="effect1_dropShadow" />
      <feBlend mode="normal" in="SourceGraphic" in2="effect1_dropShadow" result="shape" />
    </filter>
    <filter id="mmp-filter1_d" x="-3.48936" y="75.9074" width="92.0997" height="103.256" filterUnits="userSpaceOnUse"
      color-interpolation-filters="sRGB">
      <feFlood flood-opacity="0" result="BackgroundImageFix" />
      <feColorMatrix in="SourceAlpha" type="matrix" values="0 0 0 0 0 0 0 0 0 0 0 0 0 0 0 0 0 0 127 0" />
      <feOffset dy="0.930933" />
      <feGaussianBlur stdDeviation="1.86187" />
      <feColorMatrix type="matrix" values="0 0 0 0 0 0 0 0 0 0 0 0 0 0 0 0 0 0 0.25 0" />
      <feBlend mode="normal" in2="BackgroundImageFix" result="effect1_dropShadow" />
      <feBlend mode="normal" in="SourceGraphic" in2="effect1_dropShadow" result="shape" />
    </filter>
    <filter id="mmp-filter2_d" x="40.2645" y="0.487475" width="92.0997" height="103.256" filterUnits="userSpaceOnUse"
      color-interpolation-filters="sRGB">
      <feFlood flood-opacity="0" result="BackgroundImageFix" />
      <feColorMatrix in="SourceAlpha" type="matrix" values="0 0 0 0 0 0 0 0 0 0 0 0 0 0 0 0 0 0 127 0" />
      <feOffset dy="0.930933" />
      <feGaussianBlur stdDeviation="1.86187" />
      <feColorMatrix type="matrix" values="0 0 0 0 0 0 0 0 0 0 0 0 0 0 0 0 0 0 0.25 0" />
      <feBlend mode="normal" in2="BackgroundImageFix" result="effect1_dropShadow" />
      <feBlend mode="normal" in="SourceGraphic" in2="effect1_dropShadow" result="shape" />
    </filter>
    <filter id="mmp-filter3_d" x="-48.1749" y="0.487475" width="92.0997" height="103.256" filterUnits="userSpaceOnUse"
      color-interpolation-filters="sRGB">
      <feFlood flood-opacity="0" result="BackgroundImageFix" />
      <feColorMatrix in="SourceAlpha" type="matrix" values="0 0 0 0 0 0 0 0 0 0 0 0 0 0 0 0 0 0 127 0" />
      <feOffset dy="0.930933" />
      <feGaussianBlur stdDeviation="1.86187" />
      <feColorMatrix type="matrix" values="0 0 0 0 0 0 0 0 0 0 0 0 0 0 0 0 0 0 0.25 0" />
      <feBlend mode="normal" in2="BackgroundImageFix" result="effect1_dropShadow" />
      <feBlend mode="normal" in="SourceGraphic" in2="effect1_dropShadow" result="shape" />
    </filter>
  </defs>
</svg>