<svg width="75" height="55" viewBox="0 0 75 55" fill="none" xmlns="http://www.w3.org/2000/svg">
  <g opacity="0.95">
    <path fill-rule="evenodd" clip-rule="evenodd"
      d="M74.5899 22.0165C75.4966 17.7558 74.9211 13.1476 72.6341 9.07277C67.7648 0.396789 56.9803 -2.57582 48.5463 2.43326C40.1123 7.44234 37.2226 18.5363 42.092 27.2123C45.6495 33.5509 52.3644 36.8452 59.0132 36.2068C58.0971 39.477 56.3819 42.3487 54.6328 43.8419C53.0228 45.2163 51.62 46.1265 49.1664 47.1875C48.6955 47.3912 48.4363 47.9143 48.5718 48.4101L49.904 53.2858C50.0495 53.818 50.5943 54.1264 51.1176 53.9577C55.2742 52.6181 59.1401 50.4565 62.4969 47.5909C66.1083 44.508 69.0497 40.679 71.1307 36.352C73.2118 32.025 74.3859 27.2966 74.5771 22.473C74.583 22.3217 74.5873 22.1695 74.5899 22.0165Z"
      fill="white" />
  </g>
  <g opacity="0.95">
    <path fill-rule="evenodd" clip-rule="evenodd"
      d="M34.8633 22.0165C35.77 17.7558 35.1946 13.1476 32.9076 9.07277C28.0382 0.396789 17.2537 -2.57582 8.81972 2.43326C0.385723 7.44234 -2.50398 18.5363 2.36539 27.2123C5.92293 33.5509 12.6378 36.8452 19.2866 36.2068C18.3706 39.477 16.6553 42.3487 14.9062 43.8419C13.2962 45.2163 11.8934 46.1265 9.43989 47.1875C8.9689 47.3912 8.70977 47.9143 8.84523 48.4101L10.1775 53.2858C10.3229 53.818 10.8677 54.1264 11.391 53.9577C15.5476 52.6181 19.4136 50.4565 22.7703 47.5909C26.3817 44.508 29.3232 40.679 31.4042 36.352C33.4852 32.025 34.6593 27.2966 34.8505 22.473C34.8565 22.3217 34.8607 22.1695 34.8633 22.0165Z"
      fill="white" />
  </g>
</svg>