<svg width="198" height="199" viewBox="0 0 198 199" fill="none" xmlns="http://www.w3.org/2000/svg">
  <path opacity="0.8"
    d="M97 1.15665C98.2376 0.442123 99.7624 0.442123 101 1.15665L182.737 48.3473C183.974 49.0618 184.737 50.3823 184.737 51.8114V146.193C184.737 147.622 183.974 148.942 182.737 149.657L101 196.847C99.7624 197.562 98.2376 197.562 97 196.847L15.2635 149.657C14.0259 148.942 13.2635 147.622 13.2635 146.193V51.8114C13.2635 50.3823 14.0259 49.0618 15.2635 48.3473L97 1.15665Z"
    fill="#669C95" />
  <path
    d="M97.75 11.4557C98.5235 11.0091 99.4765 11.0091 100.25 11.4557L174.192 54.1463C174.966 54.5929 175.442 55.4182 175.442 56.3114V141.693C175.442 142.586 174.966 143.411 174.192 143.858L100.25 186.548C99.4765 186.995 98.5235 186.995 97.75 186.548L23.8077 143.858C23.0342 143.411 22.5577 142.586 22.5577 141.693V56.3114C22.5577 55.4182 23.0342 54.5929 23.8077 54.1463L97.75 11.4557Z"
    fill="#669C95" stroke="white" stroke-width="3" />
  <path
    d="M133.958 75.997V73.8448L146.999 73.8555L147 73.8555L153.999 73.872L159.009 73.8838C159.581 73.8851 160.044 74.3491 160.044 74.9209C160.044 75.4928 159.581 75.9567 159.009 75.9581L147 75.9863L146.999 75.9864L133.958 75.997Z"
    fill="white" stroke="#364859" stroke-width="1.91453" />
  <path
    d="M114.865 80.4824V69.35L124.724 69.3837L134.861 71.6403V78.1921L124.724 80.4487L114.865 80.4824ZM124.807 80.4484H124.807H124.807Z"
    fill="#669C95" stroke="#364859" stroke-width="2.5" />
  <path
    d="M86.3877 74.9188C86.3877 68.5641 91.8946 63.6104 98.2138 64.2806L115.477 66.1116V83.726L98.2138 85.557C91.8946 86.2272 86.3877 81.2735 86.3877 74.9188Z"
    fill="white" stroke="#364859" stroke-width="2.5" />
  <mask id="path-6-inside-1" fill="white">
    <path fill-rule="evenodd" clip-rule="evenodd"
      d="M64.9145 59.002C56.1252 59.002 49 66.1271 49 74.9165C49 83.7058 56.1252 90.831 64.9146 90.831H71.0851C69.3644 94.0383 67.3905 98.1033 66.411 101.48C64.2248 109.018 64.576 121.463 64.576 121.463H86.8258C86.8258 121.463 85.0936 115.235 85.615 111.292C86.0754 107.811 88.1876 102.677 88.1876 102.677H91.9088C93.5932 102.677 94.5523 100.564 93.645 99.1452C92.6674 97.6162 91.7906 95.8076 91.7354 94.1812C91.6993 93.1162 92.0095 91.9534 92.4749 90.831H107.154C107.418 90.831 107.632 90.6167 107.632 90.3524V59.4806C107.632 59.2162 107.418 59.002 107.154 59.002H64.9145Z" />
  </mask>
  <path fill-rule="evenodd" clip-rule="evenodd"
    d="M64.9145 59.002C56.1252 59.002 49 66.1271 49 74.9165C49 83.7058 56.1252 90.831 64.9146 90.831H71.0851C69.3644 94.0383 67.3905 98.1033 66.411 101.48C64.2248 109.018 64.576 121.463 64.576 121.463H86.8258C86.8258 121.463 85.0936 115.235 85.615 111.292C86.0754 107.811 88.1876 102.677 88.1876 102.677H91.9088C93.5932 102.677 94.5523 100.564 93.645 99.1452C92.6674 97.6162 91.7906 95.8076 91.7354 94.1812C91.6993 93.1162 92.0095 91.9534 92.4749 90.831H107.154C107.418 90.831 107.632 90.6167 107.632 90.3524V59.4806C107.632 59.2162 107.418 59.002 107.154 59.002H64.9145Z"
    fill="#669C95" />
  <path
    d="M71.0851 90.831L73.2881 92.0129L75.2635 88.331H71.0851V90.831ZM66.411 101.48L64.01 100.784L66.411 101.48ZM64.576 121.463L62.0769 121.534L62.1455 123.963H64.576V121.463ZM86.8258 121.463V123.963H90.1159L89.2344 120.793L86.8258 121.463ZM85.615 111.292L83.1366 110.964V110.964L85.615 111.292ZM88.1876 102.677V100.177H86.5127L85.8756 101.726L88.1876 102.677ZM93.645 99.1452L95.7513 97.7985V97.7985L93.645 99.1452ZM91.7354 94.1812L89.2368 94.2659L89.2368 94.2659L91.7354 94.1812ZM92.4749 90.831V88.331H90.8052L90.1656 89.8734L92.4749 90.831ZM51.5 74.9165C51.5 67.5078 57.5059 61.502 64.9145 61.502V56.502C54.7445 56.502 46.5 64.7464 46.5 74.9165H51.5ZM64.9146 88.331C57.5059 88.331 51.5 82.3251 51.5 74.9165H46.5C46.5 85.0866 54.7445 93.331 64.9146 93.331V88.331ZM71.0851 88.331H64.9146V93.331H71.0851V88.331ZM68.8121 102.177C69.7142 99.0662 71.5813 95.1942 73.2881 92.0129L68.8822 89.6491C67.1475 92.8824 65.0667 97.1403 64.01 100.784L68.8121 102.177ZM64.576 121.463C67.075 121.393 67.075 121.393 67.075 121.393C67.075 121.393 67.075 121.393 67.075 121.393C67.075 121.393 67.075 121.393 67.0749 121.392C67.0749 121.391 67.0749 121.39 67.0748 121.387C67.0747 121.383 67.0745 121.375 67.0742 121.364C67.0737 121.343 67.0729 121.311 67.0719 121.267C67.07 121.179 67.0674 121.048 67.0649 120.876C67.0597 120.533 67.0546 120.031 67.0552 119.403C67.0565 118.147 67.0804 116.394 67.171 114.413C67.355 110.394 67.8059 105.646 68.8121 102.177L64.01 100.784C62.83 104.852 62.3633 110.096 62.1763 114.184C62.0814 116.256 62.0565 118.086 62.0552 119.398C62.0546 120.055 62.0599 120.584 62.0654 120.951C62.0682 121.135 62.071 121.278 62.0731 121.376C62.0742 121.426 62.0751 121.464 62.0758 121.49C62.0761 121.503 62.0764 121.514 62.0766 121.521C62.0767 121.525 62.0768 121.527 62.0768 121.53C62.0769 121.531 62.0769 121.532 62.0769 121.532C62.0769 121.533 62.0769 121.533 62.0769 121.533C62.0769 121.533 62.0769 121.534 64.576 121.463ZM86.8258 118.963H64.576V123.963H86.8258V118.963ZM83.1366 110.964C82.822 113.343 83.1893 116.209 83.5642 118.298C83.7584 119.38 83.9693 120.33 84.1317 121.009C84.2131 121.35 84.2829 121.625 84.333 121.818C84.3581 121.914 84.3783 121.99 84.3926 122.043C84.3998 122.07 84.4055 122.091 84.4097 122.106C84.4117 122.113 84.4134 122.119 84.4146 122.124C84.4153 122.126 84.4158 122.128 84.4162 122.13C84.4164 122.13 84.4166 122.131 84.4168 122.132C84.4169 122.132 84.417 122.132 84.417 122.132C84.4171 122.133 84.4172 122.133 86.8258 121.463C89.2344 120.793 89.2344 120.794 89.2345 120.794C89.2345 120.794 89.2346 120.794 89.2346 120.794C89.2347 120.794 89.2347 120.795 89.2347 120.795C89.2347 120.795 89.2346 120.794 89.2344 120.793C89.234 120.792 89.2332 120.789 89.232 120.785C89.2296 120.776 89.2256 120.761 89.2202 120.741C89.2095 120.702 89.193 120.64 89.1717 120.558C89.1292 120.395 89.0676 120.152 88.9948 119.847C88.8488 119.236 88.6592 118.382 88.4856 117.415C88.1247 115.404 87.8866 113.184 88.0934 111.62L83.1366 110.964ZM88.1876 102.677C85.8756 101.726 85.8755 101.726 85.8754 101.726C85.8753 101.726 85.8752 101.727 85.8752 101.727C85.875 101.727 85.8748 101.728 85.8746 101.728C85.8741 101.729 85.8735 101.731 85.8728 101.732C85.8714 101.736 85.8695 101.741 85.867 101.747C85.8622 101.758 85.8554 101.775 85.8467 101.797C85.8294 101.839 85.8047 101.901 85.7735 101.979C85.7112 102.135 85.6227 102.36 85.5158 102.639C85.3022 103.197 85.0126 103.978 84.7075 104.873C84.1126 106.619 83.4008 108.967 83.1366 110.964L88.0934 111.62C88.2897 110.137 88.8642 108.177 89.4404 106.485C89.7209 105.662 89.9882 104.942 90.185 104.428C90.2832 104.171 90.3634 103.968 90.4183 103.83C90.4458 103.761 90.4669 103.708 90.4808 103.674C90.4877 103.657 90.4928 103.645 90.496 103.637C90.4976 103.633 90.4987 103.63 90.4993 103.629C90.4996 103.628 90.4998 103.628 90.4998 103.627C90.4998 103.627 90.4998 103.627 90.4998 103.627C90.4998 103.628 90.4997 103.628 90.4997 103.628C90.4997 103.628 90.4996 103.628 88.1876 102.677ZM91.9088 100.177H88.1876V105.177H91.9088V100.177ZM91.5387 100.492C91.5017 100.434 91.4949 100.384 91.4944 100.367C91.4942 100.36 91.495 100.358 91.4944 100.361C91.4937 100.364 91.4928 100.366 91.4928 100.366C91.4929 100.366 91.4965 100.358 91.5079 100.344C91.5194 100.33 91.5417 100.307 91.5785 100.281C91.6632 100.221 91.7857 100.177 91.9088 100.177V105.177C93.9073 105.177 95.343 103.906 96.0048 102.521C96.658 101.153 96.7363 99.3391 95.7513 97.7985L91.5387 100.492ZM89.2368 94.2659C89.3159 96.5976 90.5118 98.8857 91.5387 100.492L95.7513 97.7985C94.8231 96.3467 94.2652 95.0177 94.234 94.0964L89.2368 94.2659ZM90.1656 89.8734C89.6345 91.1542 89.1836 92.696 89.2368 94.2659L94.234 94.0964C94.215 93.5364 94.3845 92.7526 94.7842 91.7886L90.1656 89.8734ZM107.154 88.331H92.4749V93.331H107.154V88.331ZM105.132 90.3524C105.132 89.236 106.038 88.331 107.154 88.331V93.331C108.799 93.331 110.132 91.9975 110.132 90.3524H105.132ZM105.132 59.4806V90.3524H110.132V59.4806H105.132ZM107.154 61.502C106.037 61.502 105.132 60.597 105.132 59.4806H110.132C110.132 57.8355 108.799 56.502 107.154 56.502V61.502ZM64.9145 61.502H107.154V56.502H64.9145V61.502Z"
    fill="#364859" mask="url(#path-6-inside-1)" />
  <path
    d="M55.0352 128.407C55.0352 123.81 58.7613 120.084 63.3578 120.084H98.0587C102.655 120.084 106.381 123.81 106.381 128.407V137.022C106.381 141.618 102.655 145.345 98.0587 145.345H63.3578C58.7613 145.345 55.0352 141.618 55.0352 137.022V128.407Z"
    fill="white" stroke="#364859" stroke-width="2.5" />
  <path
    d="M59.5742 67.9103C59.5742 66.9805 60.3287 66.2271 61.2585 66.2284L69.3394 66.2398L69.342 66.2398L74.724 66.2615L77.4817 66.2727C78.3835 66.2763 79.1127 67.0084 79.1127 67.9103C79.1127 68.8121 78.3835 69.5442 77.4817 69.5479L69.342 69.5808L69.3394 69.5808L61.2585 69.5922C60.3287 69.5935 59.5742 68.8401 59.5742 67.9103Z"
    fill="white" stroke="#364859" stroke-width="2" />
  <path
    d="M59.5742 74.3966C59.5742 73.4668 60.3287 72.7134 61.2585 72.7147L69.3394 72.7261L69.342 72.7261L74.724 72.7479L77.4817 72.759C78.3835 72.7627 79.1127 73.4948 79.1127 74.3966C79.1127 75.2984 78.3835 76.0305 77.4817 76.0342L69.342 76.0671L69.3394 76.0671L61.2585 76.0785C60.3287 76.0798 59.5742 75.3264 59.5742 74.3966Z"
    fill="white" stroke="#364859" stroke-width="2" />
  <path
    d="M59.5742 80.8986C59.5742 79.9687 60.3287 79.2154 61.2585 79.2167L69.3394 79.228L69.342 79.228L74.724 79.2498L77.4817 79.261C78.3835 79.2646 79.1127 79.9967 79.1127 80.8986C79.1127 81.8004 78.3835 82.5325 77.4817 82.5361L69.342 82.5691L69.3394 82.5691L61.2585 82.5804C60.3287 82.5817 59.5742 81.8284 59.5742 80.8986Z"
    fill="white" stroke="#364859" stroke-width="2" />
  <g clip-path="url(#clip0)">
    <path
      d="M143.59 96.3698L134 90.8332C133.839 90.7395 133.654 90.6927 133.468 90.6982C133.281 90.7037 133.1 90.7612 132.945 90.8642C132.789 90.9672 132.666 91.1117 132.588 91.2813C132.51 91.4508 132.482 91.6387 132.505 91.8237L133.13 96.9775L131.716 99.427L131.348 99.3289C131.113 99.2835 130.87 99.324 130.662 99.4429C130.454 99.5619 130.296 99.7514 130.216 99.9771C130.136 100.203 130.14 100.45 130.227 100.673C130.313 100.896 130.477 101.081 130.688 101.193L129.88 102.621L129.512 102.523C129.279 102.483 129.04 102.527 128.836 102.647C128.633 102.768 128.478 102.956 128.4 103.179C128.323 103.402 128.326 103.646 128.411 103.866C128.495 104.087 128.655 104.271 128.862 104.385L128.032 105.808L127.669 105.688C127.541 105.654 127.409 105.645 127.278 105.662C127.147 105.679 127.021 105.722 126.907 105.788C126.793 105.855 126.693 105.943 126.613 106.048C126.533 106.153 126.475 106.272 126.441 106.4C126.385 106.628 126.412 106.869 126.515 107.079C126.619 107.29 126.794 107.457 127.009 107.552L126.648 108.177C126.583 108.292 126.543 108.419 126.531 108.55C126.512 108.679 126.52 108.811 126.552 108.938L127.367 111.98C127.436 112.237 127.603 112.455 127.833 112.588C128.063 112.72 128.336 112.756 128.592 112.688L131.615 111.877C131.741 111.842 131.859 111.782 131.962 111.702C132.069 111.626 132.159 111.527 132.226 111.414L133.425 109.322L133.793 109.42C133.92 109.455 134.053 109.464 134.183 109.448C134.314 109.431 134.44 109.389 134.554 109.324C134.668 109.259 134.769 109.172 134.849 109.068C134.93 108.964 134.989 108.845 135.023 108.718C135.083 108.489 135.059 108.246 134.957 108.033C134.854 107.819 134.679 107.649 134.463 107.553L135.293 106.13L135.661 106.228C135.827 106.271 136.002 106.271 136.168 106.227C136.348 106.16 136.506 106.044 136.621 105.89C136.737 105.737 136.806 105.553 136.821 105.362C136.835 105.17 136.793 104.978 136.701 104.809C136.609 104.641 136.471 104.502 136.302 104.41L137.132 102.987L137.5 103.085C137.666 103.128 137.841 103.127 138.007 103.083C138.203 103.027 138.378 102.912 138.507 102.754C138.635 102.595 138.713 102.401 138.728 102.197C138.743 101.994 138.696 101.79 138.592 101.614C138.488 101.438 138.333 101.298 138.148 101.213L138.706 100.246L143.492 98.2077C143.664 98.1344 143.812 98.0144 143.919 97.8612C144.026 97.7081 144.088 97.5279 144.098 97.3412C144.117 97.1474 144.079 96.9522 143.989 96.7796C143.899 96.607 143.76 96.4646 143.59 96.3698ZM130.702 110.052L129.04 110.497L128.595 108.835L128.998 108.137L131.438 108.819L130.702 110.052ZM132.46 106.992L130.001 106.357L130.808 104.961L133.227 105.607L132.46 106.992ZM134.308 103.805L131.876 103.153L132.692 101.754L135.15 102.389L134.308 103.805ZM136.153 100.609L133.714 99.9271L134.52 98.5309L136.626 99.7471L136.153 100.609ZM138.069 98.2941L135.093 96.5758L134.732 93.5667L140.856 97.1023L138.069 98.2941Z"
      fill="#364859" />
  </g>
  <g clip-path="url(#clip1)">
    <path
      d="M123.394 115.834L113.804 121.371C113.642 121.463 113.51 121.6 113.421 121.764C113.333 121.928 113.292 122.114 113.303 122.3C113.315 122.486 113.378 122.665 113.486 122.817C113.594 122.969 113.743 123.088 113.915 123.16L118.691 125.196L120.105 127.645L119.836 127.915C119.679 128.096 119.592 128.327 119.591 128.566C119.59 128.806 119.675 129.037 119.831 129.219C119.986 129.401 120.202 129.522 120.439 129.558C120.675 129.595 120.917 129.545 121.12 129.419L121.953 130.832L121.684 131.102C121.533 131.284 121.452 131.513 121.454 131.749C121.456 131.986 121.542 132.214 121.696 132.393C121.85 132.572 122.063 132.69 122.296 132.728C122.53 132.765 122.769 132.718 122.971 132.596L123.789 134.026L123.503 134.281C123.41 134.374 123.336 134.485 123.285 134.607C123.235 134.728 123.209 134.859 123.209 134.991C123.209 135.123 123.236 135.253 123.287 135.375C123.338 135.497 123.412 135.607 123.506 135.7C123.676 135.862 123.897 135.96 124.131 135.975C124.366 135.991 124.598 135.923 124.788 135.785L125.148 136.409C125.215 136.523 125.305 136.621 125.413 136.697C125.516 136.778 125.633 136.838 125.759 136.873L128.802 137.688C129.058 137.757 129.331 137.721 129.561 137.588C129.79 137.456 129.958 137.237 130.026 136.981L130.837 133.958C130.869 133.831 130.876 133.7 130.858 133.57C130.845 133.439 130.805 133.312 130.74 133.197L129.528 131.112L129.797 130.843C129.891 130.75 129.966 130.64 130.017 130.519C130.068 130.398 130.094 130.268 130.095 130.136C130.095 130.004 130.07 129.874 130.02 129.752C129.97 129.63 129.897 129.52 129.804 129.426C129.636 129.26 129.414 129.159 129.178 129.142C128.942 129.124 128.707 129.19 128.515 129.329L127.698 127.899L127.967 127.63C128.087 127.507 128.174 127.356 128.219 127.19C128.252 127 128.23 126.806 128.155 126.629C128.08 126.452 127.955 126.3 127.796 126.192C127.637 126.084 127.451 126.024 127.259 126.019C127.066 126.014 126.877 126.065 126.713 126.165L125.895 124.735L126.164 124.465C126.285 124.343 126.372 124.191 126.417 124.026C126.466 123.827 126.453 123.619 126.381 123.428C126.308 123.237 126.179 123.073 126.01 122.958C125.841 122.843 125.641 122.782 125.437 122.784C125.233 122.786 125.034 122.85 124.867 122.969L124.309 122.001L124.937 116.838C124.959 116.652 124.929 116.464 124.85 116.294C124.771 116.125 124.646 115.981 124.489 115.879C124.331 115.766 124.143 115.701 123.948 115.693C123.754 115.685 123.561 115.734 123.394 115.834ZM128.799 133.836L128.353 135.498L126.692 135.053L126.289 134.354L128.099 132.583L128.799 133.836ZM127.028 130.784L125.249 132.595L124.443 131.199L126.212 129.427L127.028 130.784ZM125.192 127.59L123.411 129.37L122.608 127.964L124.387 126.153L125.192 127.59ZM123.347 124.394L121.537 126.165L120.73 124.769L122.837 123.553L123.347 124.394ZM122.3 121.577L119.324 123.295L116.538 122.103L122.661 118.568L122.3 121.577Z"
      fill="#364859" />
  </g>
  <defs>
    <clipPath id="clip0">
      <rect width="24" height="24" fill="white" transform="translate(120 92.2129) rotate(-15)" />
    </clipPath>
    <clipPath id="clip1">
      <rect width="24" height="24" fill="white" transform="translate(108 134.186) rotate(-75)" />
    </clipPath>
  </defs>
</svg>