<svg width="198" height="199" viewBox="0 0 198 199" fill="none" xmlns="http://www.w3.org/2000/svg">
  <path opacity="0.8"
    d="M97 1.15665C98.2376 0.442123 99.7624 0.442123 101 1.15665L182.737 48.3473C183.974 49.0618 184.737 50.3823 184.737 51.8114V146.193C184.737 147.622 183.974 148.942 182.737 149.657L101 196.847C99.7624 197.562 98.2376 197.562 97 196.847L15.2635 149.657C14.0259 148.942 13.2635 147.622 13.2635 146.193V51.8114C13.2635 50.3823 14.0259 49.0618 15.2635 48.3473L97 1.15665Z"
    fill="#669C95" />
  <path
    d="M97.75 11.4557C98.5235 11.0091 99.4765 11.0091 100.25 11.4557L174.192 54.1463C174.966 54.5929 175.442 55.4182 175.442 56.3114V141.693C175.442 142.586 174.966 143.411 174.192 143.858L100.25 186.548C99.4765 186.995 98.5235 186.995 97.75 186.548L23.8077 143.858C23.0342 143.411 22.5577 142.586 22.5577 141.693V56.3114C22.5577 55.4182 23.0342 54.5929 23.8077 54.1463L97.75 11.4557Z"
    fill="#669C95" stroke="white" stroke-width="3" />
  <path
    d="M99.969 121.431H87.2812V114.293V113.792L86.8796 113.492L82.0983 109.922L81.8322 109.723H81.5H71.2812H70.9053L70.6224 109.971L63.0521 116.601L62.8122 116.811L62.7382 117.121L61.7104 121.431H59.143H47.5354L44.5202 110.888L64.2542 80.4727H142.038V99.8081L113.284 106.177L113.002 106.239L112.797 106.441L100.797 118.288L100.583 118.5L100.521 118.795L99.969 121.431Z"
    fill="#669C95" stroke="#364859" stroke-width="2" />
  <path
    d="M161.092 84.8195L126.78 123.474L123.28 115.823L117.28 110.723H109.499L105.154 112.776L99.4717 122.886L101.47 116.931C101.489 116.873 101.52 116.82 101.561 116.775L139.135 74.9274C155.624 71.404 159.643 78.6447 161.092 84.8195Z"
    fill="#669C95" />
  <path
    d="M126.78 123.474L125.689 123.973C125.858 124.342 126.202 124.6 126.603 124.66C127.004 124.72 127.408 124.574 127.678 124.27L126.78 123.474ZM161.092 84.8195L161.989 85.6161L162.402 85.1509L162.26 84.5454L161.092 84.8195ZM139.135 74.9274L138.884 73.7539L138.503 73.8354L138.242 74.1257L139.135 74.9274ZM101.561 116.775L102.453 117.577L102.453 117.576L101.561 116.775ZM117.28 110.723L118.057 109.809L117.721 109.523H117.28V110.723ZM123.28 115.823L124.371 115.324L124.261 115.082L124.057 114.909L123.28 115.823ZM101.47 116.931L102.607 117.312L102.607 117.312L101.47 116.931ZM99.4717 122.886L98.334 122.504L100.518 123.474L99.4717 122.886ZM105.154 112.776L104.641 111.691L104.295 111.855L104.108 112.188L105.154 112.776ZM109.499 110.723V109.523H109.23L108.986 109.638L109.499 110.723ZM127.678 124.27L161.989 85.6161L160.194 84.0229L125.883 122.677L127.678 124.27ZM162.26 84.5454C161.509 81.3423 160.04 77.6261 156.414 75.2349C152.79 72.8443 147.287 71.9583 138.884 73.7539L139.386 76.1009C147.472 74.3731 152.224 75.3457 155.093 77.2384C157.962 79.1303 159.226 82.1219 159.923 85.0935L162.26 84.5454ZM138.242 74.1257L100.668 115.973L102.453 117.576L140.028 75.7291L138.242 74.1257ZM116.503 111.637L122.503 116.738L124.057 114.909L118.057 109.809L116.503 111.637ZM122.189 116.323L125.689 123.973L127.871 122.974L124.371 115.324L122.189 116.323ZM100.332 116.549L98.334 122.504L100.609 123.267L102.607 117.312L100.332 116.549ZM100.518 123.474L106.2 113.364L104.108 112.188L98.4256 122.298L100.518 123.474ZM105.666 113.861L110.012 111.808L108.986 109.638L104.641 111.691L105.666 113.861ZM109.499 111.923H117.28V109.523H109.499V111.923ZM100.668 115.973C100.518 116.14 100.403 116.336 100.332 116.549L102.607 117.312C102.575 117.41 102.522 117.5 102.453 117.577L100.668 115.973Z"
    fill="#364859" />
  <path
    d="M100.029 74.9274C116.518 71.404 123.537 78.6447 124.985 84.8195L115.264 94.5362L105.544 104.253L87.4981 122.454L85.9981 110.213H76.9981L70.9981 109.703L66.0474 112.776L64.999 113.502L100.029 74.9274Z"
    fill="#669C95" stroke="#364859" stroke-width="2.4" />
  <path
    d="M101.505 77.814C116.583 74.6598 110.94 84.5695 126.014 85.0239C126.411 85.0359 126.622 85.5209 126.341 85.8014L106.586 105.48L88.9434 123.037C88.6624 123.317 88.1834 123.118 88.1834 122.721V121.575C88.1834 121.482 88.1539 121.39 88.099 121.314L83.0554 114.334C83.0189 114.283 82.9721 114.241 82.9182 114.209L79.3249 112.12L75.1372 109.778C75.0484 109.728 74.9453 109.71 74.845 109.727L69.9007 110.568L66.3746 114.235C66.3606 114.25 66.3452 114.263 66.3285 114.274C66.0505 114.459 65.7406 114.088 65.9731 113.848L68.8984 110.826C68.9644 110.758 69.0504 110.712 69.144 110.696L69.9007 110.568L101.271 77.9421C101.333 77.8778 101.418 77.8323 101.505 77.814Z"
    fill="#669C95" stroke="#669C95" stroke-width="0.891312" />
  <path
    d="M85.9923 84.8189L48.7812 122.964L43.7664 116.64L37.75 111.298L35.2045 109.493C34.9819 109.336 34.9522 109.016 35.1419 108.82L64.935 77.9958C78.1933 71.4037 84.5439 78.6442 85.9923 84.8189Z"
    fill="#669C95" stroke="#364859" stroke-width="2.4" />
  <path
    d="M89.5592 83.6802L51.8906 122.204L45.6876 117.101L40.2144 112.178L38.0859 110.917L64.9453 81.4846C77.0066 75.4089 77 86.5039 89.5592 83.6802Z"
    fill="#669C95" stroke="#669C95" stroke-width="0.891312" />
  <path
    d="M40.7582 113.969L40.7583 113.969L37.75 111.298L35.2157 109.501C34.9893 109.34 34.9631 109.014 35.1611 108.82L65.5 78.9997C71 76.0033 77 76 78.5 77.4995L40.7583 113.969L43.7664 116.639L40.7582 113.969Z"
    fill="white" />
  <path
    d="M110.5 75.5029L78.6 111.002L74.5529 109.68L70.7885 108.977C70.4448 108.913 70.3055 108.496 70.5415 108.238L100.5 75.503C104 75.0022 109 74.5039 110.5 75.5029Z"
    fill="white" />
  <path
    d="M150.5 75.502L116.5 112.002L113.5 110.06H109.019C108.631 110.06 108.428 109.597 108.692 109.311L139.5 76.0012C144 74.5013 147 75.0027 150.5 75.502Z"
    fill="white" />
  <mask id="path-13-inside-1" fill="white">
    <path fill-rule="evenodd" clip-rule="evenodd"
      d="M47.8809 119.953C47.938 120.151 48.1177 120.29 48.3237 120.29H59.9953C60.2114 120.29 60.397 120.137 60.4449 119.927C61.0844 117.111 62.3959 114.512 64.2707 112.424C67.0054 109.377 70.7145 107.666 74.582 107.666C78.4495 107.666 82.1586 109.377 84.8934 112.424C86.7681 114.512 88.0797 117.111 88.7192 119.927C88.767 120.137 88.9527 120.29 89.1687 120.29H98.3755C98.5815 120.29 98.7612 120.151 98.8184 119.953C99.5213 117.521 100.736 115.285 102.388 113.444C105.123 110.398 108.832 108.687 112.699 108.687C116.567 108.687 120.276 110.398 123.011 113.444C125.649 116.383 127.172 120.333 127.276 124.476C127.282 124.727 127.078 124.931 126.827 124.931H123.832C123.689 124.931 123.574 124.814 123.574 124.671C123.574 117.978 118.704 112.552 112.695 112.552C106.687 112.552 101.816 117.978 101.816 124.671C101.816 124.814 101.702 124.931 101.559 124.931L98.1169 124.931C98.1169 124.931 98.1168 124.931 98.1168 124.931C98.1168 124.931 98.1167 124.931 98.1167 124.931H85.897C85.6289 124.931 85.4195 124.7 85.4348 124.432C85.4496 124.174 85.4571 123.913 85.4571 123.65C85.4571 116.957 80.5864 111.531 74.5782 111.531C68.5699 111.531 63.6992 116.957 63.6992 123.65C63.6992 123.913 63.7067 124.174 63.7215 124.432C63.7368 124.7 63.5275 124.931 63.2593 124.931H48.5825C48.5825 124.931 48.5824 124.931 48.5824 124.931C48.5824 124.931 48.5824 124.931 48.5823 124.931H44.8827C44.8785 124.931 44.8751 124.928 44.8751 124.923C44.8751 118.402 40.2506 113.083 34.4552 112.815C34.2042 112.803 34 112.601 34 112.35V109.142C34 108.89 34.2038 108.686 34.455 108.694C36.2148 108.756 37.9515 109.171 39.5805 109.923C41.3497 110.739 42.9572 111.936 44.3113 113.444C45.6654 114.953 46.7396 116.744 47.4724 118.715C47.6238 119.122 47.76 119.535 47.8809 119.953Z" />
  </mask>
  <path fill-rule="evenodd" clip-rule="evenodd"
    d="M47.8809 119.953C47.938 120.151 48.1177 120.29 48.3237 120.29H59.9953C60.2114 120.29 60.397 120.137 60.4449 119.927C61.0844 117.111 62.3959 114.512 64.2707 112.424C67.0054 109.377 70.7145 107.666 74.582 107.666C78.4495 107.666 82.1586 109.377 84.8934 112.424C86.7681 114.512 88.0797 117.111 88.7192 119.927C88.767 120.137 88.9527 120.29 89.1687 120.29H98.3755C98.5815 120.29 98.7612 120.151 98.8184 119.953C99.5213 117.521 100.736 115.285 102.388 113.444C105.123 110.398 108.832 108.687 112.699 108.687C116.567 108.687 120.276 110.398 123.011 113.444C125.649 116.383 127.172 120.333 127.276 124.476C127.282 124.727 127.078 124.931 126.827 124.931H123.832C123.689 124.931 123.574 124.814 123.574 124.671C123.574 117.978 118.704 112.552 112.695 112.552C106.687 112.552 101.816 117.978 101.816 124.671C101.816 124.814 101.702 124.931 101.559 124.931L98.1169 124.931C98.1169 124.931 98.1168 124.931 98.1168 124.931C98.1168 124.931 98.1167 124.931 98.1167 124.931H85.897C85.6289 124.931 85.4195 124.7 85.4348 124.432C85.4496 124.174 85.4571 123.913 85.4571 123.65C85.4571 116.957 80.5864 111.531 74.5782 111.531C68.5699 111.531 63.6992 116.957 63.6992 123.65C63.6992 123.913 63.7067 124.174 63.7215 124.432C63.7368 124.7 63.5275 124.931 63.2593 124.931H48.5825C48.5825 124.931 48.5824 124.931 48.5824 124.931C48.5824 124.931 48.5824 124.931 48.5823 124.931H44.8827C44.8785 124.931 44.8751 124.928 44.8751 124.923C44.8751 118.402 40.2506 113.083 34.4552 112.815C34.2042 112.803 34 112.601 34 112.35V109.142C34 108.89 34.2038 108.686 34.455 108.694C36.2148 108.756 37.9515 109.171 39.5805 109.923C41.3497 110.739 42.9572 111.936 44.3113 113.444C45.6654 114.953 46.7396 116.744 47.4724 118.715C47.6238 119.122 47.76 119.535 47.8809 119.953Z"
    fill="#364859" />
  <path
    d="M64.2707 112.424L65.0149 113.092V113.092L64.2707 112.424ZM84.8934 112.424L84.1492 113.092V113.092L84.8934 112.424ZM102.388 113.444L101.644 112.776V112.776L102.388 113.444ZM112.699 108.687V109.687V108.687ZM123.011 113.444L122.266 114.112L123.011 113.444ZM39.5805 109.923L39.1615 110.831H39.1615L39.5805 109.923ZM44.3113 113.444L45.0555 112.776L44.3113 113.444ZM47.4724 118.715L46.5351 119.063L47.4724 118.715ZM34.4552 112.815L34.409 113.814L34.4552 112.815ZM85.4348 124.432L86.4332 124.489L85.4348 124.432ZM101.559 124.931V125.931V124.931ZM98.8184 119.953L97.8577 119.675L98.8184 119.953ZM47.8809 119.953L48.8415 119.675L47.8809 119.953ZM127.276 124.476L128.276 124.451L127.276 124.476ZM98.1169 124.931V123.931V124.931ZM88.7192 119.927L89.6944 119.705L88.7192 119.927ZM63.7215 124.432L64.7199 124.375L63.7215 124.432ZM60.4449 119.927L59.4697 119.705L60.4449 119.927ZM59.9953 119.29H48.3237V121.29H59.9953V119.29ZM63.5266 111.756C61.5317 113.978 60.1448 116.733 59.4697 119.705L61.42 120.148C62.024 117.489 63.2602 115.047 65.0149 113.092L63.5266 111.756ZM74.582 106.666C70.4123 106.666 66.4384 108.512 63.5266 111.756L65.0149 113.092C67.5725 110.243 71.0167 108.666 74.582 108.666V106.666ZM85.6375 111.756C82.7257 108.512 78.7517 106.666 74.582 106.666V108.666C78.1473 108.666 81.5916 110.243 84.1492 113.092L85.6375 111.756ZM89.6944 119.705C89.0193 116.733 87.6323 113.978 85.6375 111.756L84.1492 113.092C85.9039 115.047 87.1401 117.489 87.744 120.148L89.6944 119.705ZM98.3755 119.29H89.1687V121.29H98.3755V119.29ZM101.644 112.776C99.8858 114.735 98.6002 117.106 97.8577 119.675L99.779 120.231C100.442 117.936 101.586 115.835 103.132 114.112L101.644 112.776ZM112.699 107.687C108.53 107.687 104.556 109.533 101.644 112.776L103.132 114.112C105.69 111.263 109.134 109.687 112.699 109.687V107.687ZM123.755 112.776C120.843 109.533 116.869 107.687 112.699 107.687V109.687C116.265 109.687 119.709 111.263 122.266 114.112L123.755 112.776ZM128.276 124.451C128.166 120.084 126.561 115.903 123.755 112.776L122.266 114.112C124.737 116.864 126.178 120.582 126.276 124.501L128.276 124.451ZM123.832 125.931H126.827V123.931H123.832V125.931ZM112.695 113.552C118.053 113.552 122.574 118.426 122.574 124.671H124.574C124.574 117.53 119.355 111.552 112.695 111.552V113.552ZM102.816 124.671C102.816 118.426 107.338 113.552 112.695 113.552V111.552C106.036 111.552 100.816 117.53 100.816 124.671H102.816ZM98.1169 125.931L101.559 125.931V123.931L98.1169 123.931V125.931ZM85.897 125.931H98.1167V123.931H85.897V125.931ZM84.4571 123.65C84.4571 123.894 84.4502 124.136 84.4365 124.375L86.4332 124.489C86.4491 124.212 86.4571 123.932 86.4571 123.65H84.4571ZM74.5782 112.531C79.9354 112.531 84.4571 117.405 84.4571 123.65H86.4571C86.4571 116.509 81.2375 110.531 74.5782 110.531V112.531ZM64.6992 123.65C64.6992 117.405 69.221 112.531 74.5782 112.531V110.531C67.9188 110.531 62.6992 116.509 62.6992 123.65H64.6992ZM64.7199 124.375C64.7062 124.136 64.6992 123.894 64.6992 123.65H62.6992C62.6992 123.932 62.7073 124.212 62.7232 124.489L64.7199 124.375ZM48.5825 125.931H63.2593V123.931H48.5825V125.931ZM44.8827 125.931H48.5823V123.931H44.8827V125.931ZM34.409 113.814C39.5808 114.053 43.8751 118.841 43.8751 124.923H45.8751C45.8751 117.962 40.9204 112.113 34.5014 111.816L34.409 113.814ZM33 109.142V112.35H35V109.142H33ZM39.9994 109.015C38.2518 108.209 36.3847 107.761 34.4897 107.695L34.4202 109.694C36.0449 109.75 37.6511 110.134 39.1615 110.831L39.9994 109.015ZM45.0555 112.776C43.6142 111.171 41.8972 109.891 39.9994 109.015L39.1615 110.831C40.8021 111.588 42.3003 112.701 43.5672 114.112L45.0555 112.776ZM48.4097 118.366C47.6348 116.282 46.4966 114.382 45.0555 112.776L43.5672 114.112C44.8343 115.524 45.8444 117.205 46.5351 119.063L48.4097 118.366ZM48.8415 119.675C48.7138 119.234 48.5698 118.797 48.4097 118.366L46.5351 119.063C46.6778 119.447 46.8062 119.836 46.9202 120.231L48.8415 119.675ZM34.5014 111.816C34.7533 111.828 35 112.036 35 112.35H33C33 113.166 33.6552 113.779 34.409 113.814L34.5014 111.816ZM44.8827 123.931C45.4309 123.931 45.8752 124.376 45.8751 124.924L43.8751 124.923C43.875 125.48 44.3261 125.931 44.8827 125.931V123.931ZM85.897 123.931C86.2279 123.931 86.4493 124.208 86.4332 124.489L84.4365 124.375C84.3897 125.192 85.0298 125.931 85.897 125.931V123.931ZM100.816 124.671C100.816 124.274 101.137 123.931 101.559 123.931V125.931C102.266 125.931 102.816 125.354 102.816 124.671H100.816ZM99.1168 124.931C99.1168 124.383 98.6731 123.931 98.1167 123.931V125.931C97.5604 125.931 97.1168 125.479 97.1168 124.931H99.1168ZM98.3755 121.29C99.0386 121.29 99.6015 120.845 99.779 120.231L97.8577 119.675C97.9208 119.457 98.1243 119.29 98.3755 119.29V121.29ZM47.5824 124.931C47.5824 124.38 48.0291 123.931 48.5823 123.931V125.931C49.1356 125.931 49.5824 125.482 49.5824 124.931H47.5824ZM48.3237 119.29C48.5748 119.29 48.7784 119.457 48.8415 119.675L46.9202 120.231C47.0977 120.845 47.6607 121.29 48.3237 121.29V119.29ZM126.276 124.501C126.268 124.174 126.532 123.931 126.827 123.931V125.931C127.624 125.931 128.296 125.28 128.276 124.451L126.276 124.501ZM98.1169 123.931C98.6691 123.931 99.1168 124.379 99.1168 124.931H97.1168C97.1168 125.483 97.5646 125.931 98.1169 125.931V123.931ZM35 109.142C35 109.433 34.7575 109.706 34.4202 109.694L34.4897 107.695C33.6501 107.666 33 108.347 33 109.142H35ZM87.744 120.148C87.8925 120.802 88.4731 121.29 89.1687 121.29V119.29C89.4323 119.29 89.6416 119.473 89.6944 119.705L87.744 120.148ZM62.7232 124.489C62.7071 124.208 62.9285 123.931 63.2593 123.931V125.931C64.1265 125.931 64.7666 125.192 64.7199 124.375L62.7232 124.489ZM123.832 123.931C124.254 123.931 124.574 124.274 124.574 124.671H122.574C122.574 125.354 123.125 125.931 123.832 125.931V123.931ZM48.5825 123.931C48.0302 123.931 47.5824 124.379 47.5824 124.931H49.5824C49.5824 125.483 49.1348 125.931 48.5825 125.931V123.931ZM59.9953 121.29C60.691 121.29 61.2716 120.802 61.42 120.148L59.4697 119.705C59.5225 119.473 59.7318 119.29 59.9953 119.29V121.29Z"
    fill="#364859" mask="url(#path-13-inside-1)" />
</svg>