<svg width="198" height="198" viewBox="0 0 198 198" fill="none" xmlns="http://www.w3.org/2000/svg">
  <path opacity="0.8"
    d="M97 1.1547C98.2376 0.44017 99.7624 0.440169 101 1.1547L182.737 48.3453C183.974 49.0598 184.737 50.3803 184.737 51.8094V146.191C184.737 147.62 183.974 148.94 182.737 149.655L101 196.845C99.7624 197.56 98.2376 197.56 97 196.845L15.2635 149.655C14.0259 148.94 13.2635 147.62 13.2635 146.191V51.8094C13.2635 50.3803 14.0259 49.0598 15.2635 48.3453L97 1.1547Z"
    fill="#669C95" />
  <path
    d="M97.75 11.4537C98.5235 11.0072 99.4765 11.0072 100.25 11.4537L174.192 54.1443C174.966 54.5909 175.442 55.4162 175.442 56.3094V141.691C175.442 142.584 174.966 143.409 174.192 143.856L100.25 186.546C99.4765 186.993 98.5235 186.993 97.75 186.546L23.8077 143.856C23.0342 143.409 22.5577 142.584 22.5577 141.691V56.3094C22.5577 55.4162 23.0342 54.5909 23.8077 54.1443L97.75 11.4537Z"
    fill="#669C95" stroke="white" stroke-width="3" />
  <path d="M133.486 81.7143V53.4433L138.056 51.3908V81.7143H133.486Z" fill="white" stroke="#364859"
    stroke-width="1.8" />
  <path d="M59.3062 111.818C59.3062 111.439 59.5189 111.092 59.8566 110.92L63.8762 108.874V134.352H59.3062V111.818Z"
    fill="white" stroke="#364859" stroke-width="1.8" />
  <path d="M77.982 97.689C77.982 97.3101 78.1947 96.9632 78.5324 96.7913L82.552 94.7453V121.401H77.982V97.689Z"
    fill="white" stroke="#364859" stroke-width="1.8" />
  <path d="M95.6461 83.5601C95.6461 83.1812 95.8587 82.8343 96.1964 82.6624L100.216 80.6164V108.45H95.6461V83.5601Z"
    fill="white" stroke="#364859" stroke-width="1.8" />
  <path d="M114.482 68.2515C114.482 67.8726 114.695 67.5257 115.032 67.3538L119.052 65.3078V95.4959H114.482V68.2515Z"
    fill="white" stroke="#364859" stroke-width="1.8" />
  <path d="M89.3379 121.996V108.932H107.838" stroke="#364859" stroke-width="2.9437" stroke-linecap="round"
    stroke-linejoin="round" />
  <path d="M107.837 108.836V95.7715H126.337" stroke="#364859" stroke-width="2.9437" stroke-linecap="round"
    stroke-linejoin="round" />
  <path d="M126.341 95.6761V82.6113H144.841" stroke="#364859" stroke-width="2.9437" stroke-linecap="round"
    stroke-linejoin="round" />
  <path d="M52.3408 148.317V135.252H70.8413" stroke="#364859" stroke-width="2.9437" stroke-linecap="round"
    stroke-linejoin="round" />
  <path d="M70.8398 135.157V122.092H89.3403" stroke="#364859" stroke-width="2.9437" stroke-linecap="round"
    stroke-linejoin="round" />
  <path d="M51 117.802L136.35 50.666H146.173" stroke="#364859" stroke-width="3.06145" stroke-linecap="round"
    stroke-linejoin="round" />
</svg>