<svg width="198" height="198" viewBox="0 0 198 198" fill="none" xmlns="http://www.w3.org/2000/svg">
  <path opacity="0.8"
    d="M97 1.1547C98.2376 0.44017 99.7624 0.440169 101 1.1547L182.737 48.3453C183.974 49.0598 184.737 50.3803 184.737 51.8094V146.191C184.737 147.62 183.974 148.94 182.737 149.655L101 196.845C99.7624 197.56 98.2376 197.56 97 196.845L15.2635 149.655C14.0259 148.94 13.2635 147.62 13.2635 146.191V51.8094C13.2635 50.3803 14.0259 49.0598 15.2635 48.3453L97 1.1547Z"
    fill="#669C95" />
  <path
    d="M97.75 11.4537C98.5235 11.0072 99.4765 11.0072 100.25 11.4537L174.192 54.1443C174.966 54.5909 175.442 55.4162 175.442 56.3094V141.691C175.442 142.584 174.966 143.409 174.192 143.856L100.25 186.546C99.4765 186.993 98.5235 186.993 97.75 186.546L23.8077 143.856C23.0342 143.409 22.5577 142.584 22.5577 141.691V56.3094C22.5577 55.4162 23.0342 54.5909 23.8077 54.1443L97.75 11.4537Z"
    fill="#669C95" stroke="white" stroke-width="3" />
  <path
    d="M84.7384 113.689C84.0317 113.932 83.6563 114.703 83.9 115.41C84.1437 116.116 84.9142 116.492 85.621 116.248L84.7384 113.689ZM91.6094 112.751L91.1681 111.472H91.1681L91.6094 112.751ZM119.359 103.183L118.917 101.903L119.359 103.183ZM119.359 129.501L120.058 128.343L119.359 129.501ZM123.425 126.723L122.092 126.953L123.425 126.723ZM135.487 60.4085L135.832 61.7176L135.487 60.4085ZM124.775 99.9756L123.456 99.668L124.775 99.9756ZM123.021 101.92L122.579 100.64L123.021 101.92ZM126.093 100.283L134.858 62.7191L132.221 62.1039L123.456 99.668L126.093 100.283ZM135.832 61.7176L147.114 58.7485L146.425 56.1304L135.143 59.0995L135.832 61.7176ZM85.621 116.248L92.0507 114.031L91.1681 111.472L84.7384 113.689L85.621 116.248ZM90.9099 113.91L118.659 130.66L120.058 128.343L92.3089 111.592L90.9099 113.91ZM92.0507 114.031L119.8 104.462L118.917 101.903L91.1681 111.472L92.0507 114.031ZM119.8 104.462L123.462 103.199L122.579 100.64L118.917 101.903L119.8 104.462ZM124.759 126.492L120.693 102.952L118.025 103.413L122.092 126.953L124.759 126.492ZM118.659 130.66C121.638 132.459 125.352 129.922 124.759 126.492L122.092 126.953C122.289 128.096 121.051 128.942 120.058 128.343L118.659 130.66ZM134.858 62.7191C134.972 62.2306 135.346 61.8452 135.832 61.7176L135.143 59.0995C133.687 59.4824 132.563 60.6386 132.221 62.1039L134.858 62.7191ZM123.456 99.668C123.351 100.121 123.019 100.488 122.579 100.64L123.462 103.199C124.782 102.744 125.776 101.643 126.093 100.283L123.456 99.668Z"
    fill="#364859" />
  <circle cx="74.6878" cy="129.521" r="14.8898" fill="#669C95" stroke="#364859" stroke-width="2.70725" />
  <circle cx="74.6902" cy="129.522" r="8.12174" fill="white" stroke="#364859" stroke-width="2.70725" />
  <circle cx="74.6868" cy="129.518" r="2.70725" fill="#669C95" stroke="#364859" stroke-width="2.70725" />
  <rect x="136.843" y="58.2478" width="12.1202" height="3.4465" rx="1.72325" transform="rotate(-15 136.843 58.2478)"
    fill="white" stroke="#364859" stroke-width="3.4465" />
  <path
    d="M61.1523 88.9093V92.779C61.1523 94.5735 62.8664 95.8714 64.5936 95.3849L106.11 83.6901C107.727 83.2347 108.543 81.4318 107.818 79.9163L105.62 75.3209C105.529 75.1307 105.417 74.9519 105.284 74.7879L99.3204 67.4042C98.7335 66.6776 97.8137 66.3048 96.8866 66.4179L85.6723 67.7855C84.9262 67.8765 84.1757 67.6531 83.6008 67.1689L80.8662 64.8661C79.476 63.6954 77.3499 64.2 76.634 65.8705L68.6237 84.5613C68.1971 85.5567 67.2183 86.2021 66.1353 86.2021H63.8596C62.3644 86.2021 61.1523 87.4141 61.1523 88.9093Z"
    fill="white" stroke="#364859" stroke-width="2.70725" />
  <path
    d="M112.967 72.1778L114.168 73.9338C115.218 75.4682 114.445 77.5799 112.652 78.0729L81.337 86.6845C79.1138 87.2959 77.1927 85.0255 78.1637 82.9341L79.5139 80.0259C79.8831 79.2308 80.6145 78.6636 81.4765 78.504L88.1874 77.2612C88.8633 77.1361 89.4662 76.7585 89.874 76.2052L92.8551 72.1593C93.529 71.2448 94.7021 70.8482 95.7926 71.1663L101.406 72.8036C101.86 72.9359 102.34 72.9472 102.8 72.8364L110.097 71.0749C111.19 70.8111 112.332 71.25 112.967 72.1778Z"
    fill="white" stroke="#364859" stroke-width="2.70725" />
  <path
    d="M119.181 74.2414L54.019 93.7585C52.88 94.0997 52.7027 95.6385 53.7344 96.2297L80.5903 111.619C80.926 111.811 81.328 111.851 81.6947 111.728L118.499 99.3509C119.019 99.1761 119.382 98.705 119.418 98.1579L120.92 75.6281C120.983 74.6858 120.086 73.9704 119.181 74.2414Z"
    fill="#669C95" stroke="#364859" stroke-width="2.70725" />
</svg>