<svg width="198" height="198" viewBox="0 0 198 198" fill="none" xmlns="http://www.w3.org/2000/svg">
  <path opacity="0.8"
    d="M97 1.1547C98.2376 0.44017 99.7624 0.440169 101 1.1547L182.737 48.3453C183.974 49.0598 184.737 50.3803 184.737 51.8094V146.191C184.737 147.62 183.974 148.94 182.737 149.655L101 196.845C99.7624 197.56 98.2376 197.56 97 196.845L15.2635 149.655C14.0259 148.94 13.2635 147.62 13.2635 146.191V51.8094C13.2635 50.3803 14.0259 49.0598 15.2635 48.3453L97 1.1547Z"
    fill="#669C95" />
  <path
    d="M97.75 11.4537C98.5235 11.0072 99.4765 11.0072 100.25 11.4537L174.192 54.1443C174.966 54.5909 175.442 55.4162 175.442 56.3094V141.691C175.442 142.584 174.966 143.409 174.192 143.856L100.25 186.546C99.4765 186.993 98.5235 186.993 97.75 186.546L23.8077 143.856C23.0342 143.409 22.5577 142.584 22.5577 141.691V56.3094C22.5577 55.4162 23.0342 54.5909 23.8077 54.1443L97.75 11.4537Z"
    fill="#669C95" stroke="white" stroke-width="3" />
  <mask id="path-3-inside-1" fill="white">
    <rect x="59.6787" y="100.059" width="79.7278" height="42.5943" rx="1.56139" />
  </mask>
  <rect x="59.6787" y="100.059" width="79.7278" height="42.5943" rx="1.56139" stroke="#364859" stroke-width="5.4608"
    mask="url(#path-3-inside-1)" />
  <rect x="70.872" y="93.7812" width="8.19121" height="47.509" fill="white" stroke="#364859" stroke-width="2.7304" />
  <rect x="120.019" y="93.7812" width="8.19121" height="47.509" fill="white" stroke="#364859" stroke-width="2.7304" />
  <path d="M95.7193 78.3379L79.3369 122.998" stroke="#364859" stroke-width="2.18432" stroke-linecap="round"
    stroke-linejoin="round" />
  <path d="M79.3363 79.3105L95.7188 122.997" stroke="#364859" stroke-width="2.18432" stroke-linecap="round"
    stroke-linejoin="round" />
  <path d="M118.655 79.3066L103.364 122.993" stroke="#364859" stroke-width="2.18432" stroke-linecap="round"
    stroke-linejoin="round" />
  <path d="M103.364 77.1211L119.746 121.9" stroke="#364859" stroke-width="2.18432" stroke-linecap="round"
    stroke-linejoin="round" />
  <rect x="95.3271" y="65.75" width="8.1993" height="75.3389" fill="white" stroke="#364859" stroke-width="2.7304" />
  <mask id="path-11-inside-2" fill="white">
    <path fill-rule="evenodd" clip-rule="evenodd"
      d="M46.8907 110.535L98.2569 56.4877C98.8756 55.8367 99.9145 55.8406 100.528 56.4961L118.652 75.8509V69.4809C118.652 68.8777 119.141 68.3887 119.745 68.3887H128.482C129.085 68.3887 129.574 68.8777 129.574 69.4809V87.5142L151.139 110.544C152.073 111.541 151.366 113.173 149.999 113.173H138.111C137.671 113.173 137.252 112.987 136.956 112.661L99.3971 71.3175L61.8384 112.661C61.5424 112.987 61.1228 113.173 60.6827 113.173H48.0225C46.6505 113.173 45.9456 111.53 46.8907 110.535Z" />
  </mask>
  <path fill-rule="evenodd" clip-rule="evenodd"
    d="M46.8907 110.535L98.2569 56.4877C98.8756 55.8367 99.9145 55.8406 100.528 56.4961L118.652 75.8509V69.4809C118.652 68.8777 119.141 68.3887 119.745 68.3887H128.482C129.085 68.3887 129.574 68.8777 129.574 69.4809V87.5142L151.139 110.544C152.073 111.541 151.366 113.173 149.999 113.173H138.111C137.671 113.173 137.252 112.987 136.956 112.661L99.3971 71.3175L61.8384 112.661C61.5424 112.987 61.1228 113.173 60.6827 113.173H48.0225C46.6505 113.173 45.9456 111.53 46.8907 110.535Z"
    fill="#669C95" />
  <path
    d="M98.2569 56.4877L96.2777 54.6067V54.6067L98.2569 56.4877ZM46.8907 110.535L48.8699 112.416L48.8699 112.416L46.8907 110.535ZM100.528 56.4961L98.5354 58.3624L98.5354 58.3624L100.528 56.4961ZM118.652 75.8509L116.659 77.7172L121.383 82.7614V75.8509H118.652ZM129.574 87.5142H126.844V88.593L127.581 89.3805L129.574 87.5142ZM151.139 110.544L149.146 112.41L149.146 112.41L151.139 110.544ZM136.956 112.661L138.977 110.825L138.977 110.825L136.956 112.661ZM99.3971 71.3175L101.418 69.4816L99.3971 67.257L97.3761 69.4816L99.3971 71.3175ZM61.8384 112.661L59.8174 110.825H59.8174L61.8384 112.661ZM96.2777 54.6067L44.9116 108.655L48.8699 112.416L100.236 58.3687L96.2777 54.6067ZM102.521 54.6298C100.834 52.828 97.9783 52.8174 96.2777 54.6067L100.236 58.3687C99.7728 58.8561 98.995 58.8532 98.5354 58.3624L102.521 54.6298ZM120.645 73.9846L102.521 54.6298L98.5354 58.3624L116.659 77.7172L120.645 73.9846ZM121.383 75.8509V69.4809H115.922V75.8509H121.383ZM121.383 69.4809C121.383 70.3856 120.649 71.1191 119.745 71.1191V65.6583C117.633 65.6583 115.922 67.3697 115.922 69.4809H121.383ZM119.745 71.1191H128.482V65.6583H119.745V71.1191ZM128.482 71.1191C127.577 71.1191 126.844 70.3856 126.844 69.4809H132.304C132.304 67.3697 130.593 65.6583 128.482 65.6583V71.1191ZM126.844 69.4809V87.5142H132.304V69.4809H126.844ZM153.132 108.678L131.567 85.6479L127.581 89.3805L149.146 112.41L153.132 108.678ZM149.999 115.903C153.755 115.903 155.699 111.419 153.132 108.678L149.146 112.41C148.447 111.663 148.976 110.442 149.999 110.442V115.903ZM138.111 115.903H149.999V110.442H138.111V115.903ZM134.935 114.497C135.748 115.392 136.902 115.903 138.111 115.903V110.442C138.441 110.442 138.755 110.581 138.977 110.825L134.935 114.497ZM97.3761 73.1535L134.935 114.497L138.977 110.825L101.418 69.4816L97.3761 73.1535ZM63.8593 114.497L101.418 73.1535L97.3761 69.4816L59.8174 110.825L63.8593 114.497ZM60.6827 115.903C61.8924 115.903 63.0459 115.392 63.8593 114.497L59.8174 110.825C60.039 110.581 60.3532 110.442 60.6827 110.442V115.903ZM48.0225 115.903H60.6827V110.442H48.0225V115.903ZM44.9116 108.655C42.3136 111.388 44.2513 115.903 48.0225 115.903V110.442C49.0497 110.442 49.5775 111.672 48.8699 112.416L44.9116 108.655Z"
    fill="#364859" mask="url(#path-11-inside-2)" />
</svg>