<svg width="198" height="198" viewBox="0 0 198 198" fill="none" xmlns="http://www.w3.org/2000/svg">
  <path opacity="0.8"
    d="M97 1.1547C98.2376 0.44017 99.7624 0.440169 101 1.1547L182.737 48.3453C183.974 49.0598 184.737 50.3803 184.737 51.8094V146.191C184.737 147.62 183.974 148.94 182.737 149.655L101 196.845C99.7624 197.56 98.2376 197.56 97 196.845L15.2635 149.655C14.0259 148.94 13.2635 147.62 13.2635 146.191V51.8094C13.2635 50.3803 14.0259 49.0598 15.2635 48.3453L97 1.1547Z"
    fill="#669C95" />
  <path
    d="M97.75 11.4537C98.5235 11.0072 99.4765 11.0072 100.25 11.4537L174.192 54.1443C174.966 54.5909 175.442 55.4162 175.442 56.3094V141.691C175.442 142.584 174.966 143.409 174.192 143.856L100.25 186.546C99.4765 186.993 98.5235 186.993 97.75 186.546L23.8077 143.856C23.0342 143.409 22.5577 142.584 22.5577 141.691V56.3094C22.5577 55.4162 23.0342 54.5909 23.8077 54.1443L97.75 11.4537Z"
    fill="#669C95" stroke="white" stroke-width="3" />
  <mask id="06_path-3-inside-1" fill="white">
    <rect x="62.752" y="63.9492" width="33.561" height="21.5679" rx="1" />
  </mask>
  <rect x="62.752" y="63.9492" width="33.561" height="21.5679" rx="1" stroke="#364859" stroke-width="6"
    mask="url(#06_path-3-inside-1)" />
  <mask id="06_path-4-inside-2" fill="white">
    <rect x="79.5332" y="86.7148" width="33.561" height="21.5679" rx="1" />
  </mask>
  <rect x="79.5332" y="86.7148" width="33.561" height="21.5679" rx="1" stroke="#364859" stroke-width="6"
    mask="url(#06_path-4-inside-2)" />
  <mask id="06_path-5-inside-3" fill="white">
    <rect x="63.9512" y="109.48" width="33.561" height="21.5679" rx="1" />
  </mask>
  <rect x="63.9512" y="109.48" width="33.561" height="21.5679" rx="1" stroke="#364859" stroke-width="6"
    mask="url(#06_path-5-inside-3)" />
  <mask id="06_path-6-inside-4" fill="white">
    <rect x="44.7734" y="86.7148" width="33.561" height="21.5679" rx="1" />
  </mask>
  <rect x="44.7734" y="86.7148" width="33.561" height="21.5679" rx="1" stroke="#364859" stroke-width="6"
    mask="url(#06_path-6-inside-4)" />
  <mask id="06_path-7-inside-5" fill="white">
    <rect x="97.5117" y="63.9492" width="33.561" height="21.5679" rx="1" />
  </mask>
  <rect x="97.5117" y="63.9492" width="33.561" height="21.5679" rx="1" stroke="#364859" stroke-width="6"
    mask="url(#06_path-7-inside-5)" />
  <mask id="06_path-8-inside-6" fill="white">
    <rect x="114.293" y="86.7148" width="33.561" height="21.5679" rx="1" />
  </mask>
  <rect x="114.293" y="86.7148" width="33.561" height="21.5679" rx="1" stroke="#364859" stroke-width="6"
    mask="url(#06_path-8-inside-6)" />
  <path
    d="M104.298 94.1583C104.298 93.7735 104.715 93.533 105.048 93.7254L133.245 110C133.597 110.203 133.573 110.717 133.204 110.887L118.69 117.568C118.494 117.657 118.308 117.765 118.132 117.889L105.087 127.115C104.756 127.349 104.298 127.112 104.298 126.707L104.298 94.1583Z"
    fill="white" stroke="#364859" stroke-width="3" />
  <path d="M118.459 117.816L125.829 130.577" stroke="#364859" stroke-width="3" />
  <rect x="2.04933" y="0.549116" width="8.05355" height="26.4713" rx="4.02677"
    transform="matrix(0.866096 -0.499877 0.500123 0.865954 117.814 128.852)" fill="white" stroke="#364859"
    stroke-width="3" />
</svg>