<svg width="198" height="198" viewBox="0 0 198 198" fill="none" xmlns="http://www.w3.org/2000/svg">
  <path opacity="0.8"
    d="M97 1.1547C98.2376 0.44017 99.7624 0.440169 101 1.1547L182.737 48.3453C183.974 49.0598 184.737 50.3803 184.737 51.8094V146.191C184.737 147.62 183.974 148.94 182.737 149.655L101 196.845C99.7624 197.56 98.2376 197.56 97 196.845L15.2635 149.655C14.0259 148.94 13.2635 147.62 13.2635 146.191V51.8094C13.2635 50.3803 14.0259 49.0598 15.2635 48.3453L97 1.1547Z"
    fill="#669C95" />
  <path
    d="M97.75 11.4537C98.5235 11.0072 99.4765 11.0072 100.25 11.4537L174.192 54.1443C174.966 54.5909 175.442 55.4162 175.442 56.3094V141.691C175.442 142.584 174.966 143.409 174.192 143.856L100.25 186.546C99.4765 186.993 98.5235 186.993 97.75 186.546L23.8077 143.856C23.0342 143.409 22.5577 142.584 22.5577 141.691V56.3094C22.5577 55.4162 23.0342 54.5909 23.8077 54.1443L97.75 11.4537Z"
    fill="#669C95" stroke="white" stroke-width="3" />
  <path
    d="M49.7735 76.9738C48.716 73.4909 50.7307 69.9846 54.2734 69.1423L93.5912 59.7942C97.1339 58.9519 100.863 61.0926 101.921 64.5755L118.616 119.564C118.837 120.289 118.417 121.019 117.679 121.194L68.2037 132.958C67.4661 133.133 66.6895 132.687 66.4693 131.962L49.7735 76.9738Z"
    fill="#669C95" stroke="#364859" stroke-width="2.6" />
  <path
    d="M63.7737 66.6958C63.2205 64.8593 64.2847 63.0078 66.1506 62.5603L81.6034 58.8542C83.4694 58.4067 85.4305 59.5327 85.9837 61.3692L87.8672 67.6219L82.9453 68.8023L76.7621 70.2852L65.6571 72.9485L63.7737 66.6958Z"
    fill="white" stroke="#364859" stroke-width="2.6" />
  <path
    d="M104.892 79.7687C105.471 78.6314 106.481 77.8297 107.7 77.54C108.919 77.2504 110.248 77.4964 111.393 78.224C112.539 78.9517 113.407 80.1013 113.808 81.4201C114.208 82.7388 114.108 84.1186 113.529 85.2559L99.7076 112.415L91.7515 116.819L91.07 106.928L104.892 79.7687Z"
    fill="white" stroke="#364859" stroke-width="2.6" stroke-linecap="round" stroke-linejoin="round" />
  <path
    d="M77.5765 135.886C70.9117 130.389 80.3535 122.716 85.9076 119.567C104.316 116.962 142.834 111.545 149.636 110.721C156.438 109.896 155.161 119.71 153.673 124.72C147.145 135.886 130.054 137.518 130.054 137.518C130.054 137.518 124.042 142.616 118.373 145.162C104.03 151.603 85.9076 142.757 77.5765 135.886Z"
    fill="#669C95" stroke="#364859" stroke-width="2.6" />
  <path
    d="M118.029 131.162C92.6066 135.147 85.7356 124.52 85.478 118.708C82.4196 111.837 85.478 81.3471 114.078 76.7951C142.679 72.2431 155.218 106.083 148.777 118.708C143.624 128.808 126.131 131.219 118.029 131.162Z"
    fill="#669C95" stroke="#364859" stroke-width="2.6" />
  <path
    d="M116.398 76.6246C124.781 72.6395 129.51 76.9682 130.827 79.6307C109.939 83.4783 106.722 117.135 107.724 133.482C99.7533 136.093 93.9817 132.394 92.0921 130.218C89.2579 97.3236 105.92 81.6061 116.398 76.6246Z"
    fill="white" stroke="#364859" stroke-width="2.6" />
</svg>