<svg width="198" height="198" viewBox="0 0 198 198" fill="none" xmlns="http://www.w3.org/2000/svg">
  <path opacity="0.8"
    d="M97 1.1547C98.2376 0.44017 99.7624 0.440169 101 1.1547L182.737 48.3453C183.974 49.0598 184.737 50.3803 184.737 51.8094V146.191C184.737 147.62 183.974 148.94 182.737 149.655L101 196.845C99.7624 197.56 98.2376 197.56 97 196.845L15.2635 149.655C14.0259 148.94 13.2635 147.62 13.2635 146.191V51.8094C13.2635 50.3803 14.0259 49.0598 15.2635 48.3453L97 1.1547Z"
    fill="#669C95" />
  <path
    d="M97.75 11.4537C98.5235 11.0072 99.4765 11.0072 100.25 11.4537L174.192 54.1443C174.966 54.5909 175.442 55.4162 175.442 56.3094V141.691C175.442 142.584 174.966 143.409 174.192 143.856L100.25 186.546C99.4765 186.993 98.5235 186.993 97.75 186.546L23.8077 143.856C23.0342 143.409 22.5577 142.584 22.5577 141.691V56.3094C22.5577 55.4162 23.0342 54.5909 23.8077 54.1443L97.75 11.4537Z"
    fill="#669C95" stroke="white" stroke-width="3" />
  <rect x="61.5913" y="52.2446" width="74.8143" height="93.2773" stroke="#364859" stroke-width="2.31347" />
  <path d="M67.6802 104.278V65.4966H97.0814V104.278H67.6802Z" stroke="#364859" stroke-width="2.31347" />
  <path d="M70.9624 101.002V68.772H93.8122V101.002H70.9624Z" fill="white" stroke="#364859" stroke-width="2.31347" />
  <path d="M67.6802 146.864V108.083H130.285V146.864H67.6802Z" stroke="#364859" stroke-width="2.31347" />
  <path d="M70.9595 143.584V111.354H127.013V143.584H70.9595Z" fill="white" stroke="#364859" stroke-width="2.31347" />
  <path d="M100.907 104.278V65.4966H130.308V104.278H100.907Z" stroke="#364859" stroke-width="2.31347" />
  <path d="M104.182 101.002V68.772H127.032V101.002H104.182Z" fill="white" stroke="#364859" stroke-width="2.31347" />
  <path
    d="M56.5327 50.1567H141.472V55.5026C141.472 56.5354 140.635 57.3726 139.602 57.3726H58.4026C57.3699 57.3726 56.5327 56.5354 56.5327 55.5026V50.1567Z"
    fill="#669C95" stroke="#364859" stroke-width="2.31347" />
  <path
    d="M56.5327 140.473H141.472V145.819C141.472 146.852 140.635 147.689 139.602 147.689H58.4026C57.3699 147.689 56.5327 146.852 56.5327 145.819V140.473Z"
    fill="#669C95" stroke="#364859" stroke-width="2.31347" />
  <path
    d="M52.6567 139.755C52.6567 139.201 53.1055 138.752 53.659 138.752H144.336C144.89 138.752 145.338 139.201 145.338 139.755C145.338 140.308 144.89 140.757 144.336 140.757H53.659C53.1055 140.757 52.6567 140.308 52.6567 139.755Z"
    fill="#669C95" stroke="#364859" stroke-width="2.31347" />
</svg>