<svg width="198" height="199" viewBox="0 0 198 199" fill="none" xmlns="http://www.w3.org/2000/svg">
  <path opacity="0.8"
    d="M97 1.15665C98.2376 0.442123 99.7624 0.442123 101 1.15665L182.737 48.3473C183.974 49.0618 184.737 50.3823 184.737 51.8114V146.193C184.737 147.622 183.974 148.942 182.737 149.657L101 196.847C99.7624 197.562 98.2376 197.562 97 196.847L15.2635 149.657C14.0259 148.942 13.2635 147.622 13.2635 146.193V51.8114C13.2635 50.3823 14.0259 49.0618 15.2635 48.3473L97 1.15665Z"
    fill="#669C95" />
  <path
    d="M97.75 11.4557C98.5235 11.0091 99.4765 11.0091 100.25 11.4557L174.192 54.1463C174.966 54.5929 175.442 55.4182 175.442 56.3114V141.693C175.442 142.586 174.966 143.411 174.192 143.858L100.25 186.548C99.4765 186.995 98.5235 186.995 97.75 186.548L23.8077 143.858C23.0342 143.411 22.5577 142.586 22.5577 141.693V56.3114C22.5577 55.4182 23.0342 54.5929 23.8077 54.1463L97.75 11.4557Z"
    fill="#669C95" stroke="white" stroke-width="3" />
  <mask id="13_path-3-inside-1" fill="white">
    <path fill-rule="evenodd" clip-rule="evenodd"
      d="M124.503 80.9434C127.962 88.189 125.59 96.4536 119.271 101.235L135.006 134.199C135.601 135.446 135.047 136.881 133.768 137.404L129.323 139.222C128.044 139.745 126.525 139.158 125.93 137.911L123.499 132.818L115.604 136.047C114.325 136.57 112.806 135.983 112.211 134.737L110.356 130.85C109.761 129.604 110.315 128.169 111.593 127.646L119.489 124.417L110.195 104.946C102.123 106.05 93.9267 102.108 90.4687 94.8635C86.3161 86.1638 90.5686 75.9951 99.967 72.1512C109.365 68.3072 120.351 72.2437 124.503 80.9434ZM98.1265 91.7315C100.41 96.5164 106.452 98.6814 111.621 96.5672C116.791 94.4531 119.129 88.8603 116.846 84.0754C114.562 79.2906 108.52 77.1255 103.351 79.2397C98.1815 81.3539 95.8426 86.9466 98.1265 91.7315Z" />
  </mask>
  <path fill-rule="evenodd" clip-rule="evenodd"
    d="M124.503 80.9434C127.962 88.189 125.59 96.4536 119.271 101.235L135.006 134.199C135.601 135.446 135.047 136.881 133.768 137.404L129.323 139.222C128.044 139.745 126.525 139.158 125.93 137.911L123.499 132.818L115.604 136.047C114.325 136.57 112.806 135.983 112.211 134.737L110.356 130.85C109.761 129.604 110.315 128.169 111.593 127.646L119.489 124.417L110.195 104.946C102.123 106.05 93.9267 102.108 90.4687 94.8635C86.3161 86.1638 90.5686 75.9951 99.967 72.1512C109.365 68.3072 120.351 72.2437 124.503 80.9434ZM98.1265 91.7315C100.41 96.5164 106.452 98.6814 111.621 96.5672C116.791 94.4531 119.129 88.8603 116.846 84.0754C114.562 79.2906 108.52 77.1255 103.351 79.2397C98.1815 81.3539 95.8426 86.9466 98.1265 91.7315Z"
    fill="#669C95" />
  <path
    d="M119.271 101.235L117.763 99.2409L116.137 100.471L117.015 102.311L119.271 101.235ZM124.503 80.9434L122.247 82.0203V82.0203L124.503 80.9434ZM135.006 134.199L137.262 133.122L137.262 133.122L135.006 134.199ZM133.768 137.404L134.715 139.718H134.715L133.768 137.404ZM129.323 139.222L128.377 136.908H128.377L129.323 139.222ZM125.93 137.911L128.186 136.834L128.186 136.834L125.93 137.911ZM123.499 132.818L125.755 131.741L124.738 129.61L122.553 130.504L123.499 132.818ZM115.604 136.047L116.55 138.361L115.604 136.047ZM112.211 134.737L114.467 133.66L114.467 133.66L112.211 134.737ZM110.356 130.85L108.1 131.927L110.356 130.85ZM111.593 127.646L112.54 129.96L111.593 127.646ZM119.489 124.417L120.435 126.731L122.885 125.729L121.745 123.34L119.489 124.417ZM110.195 104.946L112.451 103.869L111.665 102.222L109.856 102.469L110.195 104.946ZM90.4687 94.8635L92.7249 93.7866L92.7249 93.7866L90.4687 94.8635ZM99.967 72.1512L100.913 74.4651L99.967 72.1512ZM111.621 96.5672L112.568 98.8812H112.568L111.621 96.5672ZM98.1265 91.7315L95.8703 92.8084L98.1265 91.7315ZM103.351 79.2397L102.404 76.9258L103.351 79.2397ZM120.78 103.228C127.971 97.7872 130.768 88.2652 126.759 79.8665L122.247 82.0203C125.155 88.1128 123.209 95.1199 117.763 99.2409L120.78 103.228ZM137.262 133.122L121.527 100.158L117.015 102.311L132.75 135.276L137.262 133.122ZM134.715 139.718C137.323 138.651 138.476 135.666 137.262 133.122L132.75 135.276C132.752 135.281 132.746 135.269 132.745 135.245C132.744 135.222 132.748 135.197 132.758 135.172C132.767 135.148 132.781 135.126 132.797 135.11C132.815 135.092 132.827 135.088 132.822 135.09L134.715 139.718ZM130.269 141.536L134.715 139.718L132.822 135.09L128.377 136.908L130.269 141.536ZM123.674 138.988C124.84 141.431 127.764 142.56 130.269 141.536L128.377 136.908C128.369 136.911 128.333 136.922 128.271 136.898C128.21 136.874 128.19 136.841 128.186 136.834L123.674 138.988ZM121.243 133.895L123.674 138.988L128.186 136.834L125.755 131.741L121.243 133.895ZM122.553 130.504L114.657 133.733L116.55 138.361L124.445 135.132L122.553 130.504ZM114.657 133.733C114.65 133.736 114.613 133.747 114.552 133.723C114.49 133.7 114.47 133.667 114.467 133.66L109.955 135.813C111.121 138.256 114.045 139.386 116.55 138.361L114.657 133.733ZM114.467 133.66L112.612 129.773L108.1 131.927L109.955 135.813L114.467 133.66ZM112.612 129.773C112.61 129.769 112.616 129.78 112.617 129.805C112.617 129.828 112.613 129.853 112.604 129.878C112.595 129.902 112.58 129.923 112.564 129.94C112.547 129.957 112.535 129.962 112.54 129.96L110.647 125.332C108.039 126.399 106.886 129.384 108.1 131.927L112.612 129.773ZM112.54 129.96L120.435 126.731L118.543 122.103L110.647 125.332L112.54 129.96ZM107.939 106.023L117.233 125.494L121.745 123.34L112.451 103.869L107.939 106.023ZM88.2126 95.9404C92.1901 104.273 101.506 108.657 110.534 107.423L109.856 102.469C102.739 103.442 95.6633 99.9427 92.7249 93.7866L88.2126 95.9404ZM99.0206 69.8372C88.4175 74.1739 83.3843 85.8252 88.2126 95.9404L92.7249 93.7866C89.2479 86.5024 92.7198 77.8163 100.913 74.4651L99.0206 69.8372ZM126.759 79.8665C121.988 69.8706 109.54 65.5347 99.0206 69.8372L100.913 74.4651C109.191 71.0798 118.713 74.6168 122.247 82.0203L126.759 79.8665ZM110.675 94.2533C106.627 95.9089 102.048 94.1433 100.383 90.6546L95.8703 92.8084C98.773 98.8895 106.277 101.454 112.568 98.8812L110.675 94.2533ZM114.589 85.1524C116.198 88.5217 114.639 92.6319 110.675 94.2533L112.568 98.8812C118.942 96.2743 122.061 89.1989 119.102 82.9985L114.589 85.1524ZM104.297 81.5536C108.345 79.8981 112.924 81.6637 114.589 85.1524L119.102 82.9985C116.199 76.9175 108.695 74.353 102.404 76.9258L104.297 81.5536ZM100.383 90.6546C98.7744 87.2852 100.333 83.1751 104.297 81.5536L102.404 76.9258C96.0303 79.5327 92.9107 86.608 95.8703 92.8084L100.383 90.6546Z"
    fill="#364859" mask="url(#13_path-3-inside-1)" />
  <mask id="13_path-5-inside-2" fill="white">
    <path fill-rule="evenodd" clip-rule="evenodd"
      d="M106.545 89.1632C106.508 97.0853 100.698 103.735 92.8207 105.712L92.6539 141.678C92.6474 143.079 91.5389 144.21 90.1779 144.205L85.1842 144.185C83.8232 144.179 82.7252 143.039 82.7317 141.639L82.7572 136.135L74.0574 136.101C72.6965 136.095 71.5985 134.955 71.6049 133.555L71.624 129.442C71.6305 128.042 72.7391 126.91 74.1 126.916L82.7998 126.95L82.8985 105.671C75.0435 103.629 69.2996 96.9348 69.3363 89.0154C69.3804 79.5043 77.7456 71.8272 88.0204 71.868C98.2952 71.9088 106.589 79.6522 106.545 89.1632ZM77.4476 89.0476C77.4228 94.4119 82.1004 98.7792 87.8955 98.8022C93.6906 98.8253 98.4086 94.4953 98.4334 89.131C98.4583 83.7667 93.7806 79.3994 87.9856 79.3764C82.1905 79.3534 77.4725 83.6833 77.4476 89.0476Z" />
  </mask>
  <path fill-rule="evenodd" clip-rule="evenodd"
    d="M106.545 89.1632C106.508 97.0853 100.698 103.735 92.8207 105.712L92.6539 141.678C92.6474 143.079 91.5389 144.21 90.1779 144.205L85.1842 144.185C83.8232 144.179 82.7252 143.039 82.7317 141.639L82.7572 136.135L74.0574 136.101C72.6965 136.095 71.5985 134.955 71.6049 133.555L71.624 129.442C71.6305 128.042 72.7391 126.91 74.1 126.916L82.7998 126.95L82.8985 105.671C75.0435 103.629 69.2996 96.9348 69.3363 89.0154C69.3804 79.5043 77.7456 71.8272 88.0204 71.868C98.2952 71.9088 106.589 79.6522 106.545 89.1632ZM77.4476 89.0476C77.4228 94.4119 82.1004 98.7792 87.8955 98.8022C93.6906 98.8253 98.4086 94.4953 98.4334 89.131C98.4583 83.7667 93.7806 79.3994 87.9856 79.3764C82.1905 79.3534 77.4725 83.6833 77.4476 89.0476Z"
    fill="#669C95" />
  <path
    d="M92.8207 105.712L92.1788 103.247L90.3662 103.702L90.3573 105.634L92.8207 105.712ZM106.545 89.1632L104.081 89.0853L104.081 89.0853L106.545 89.1632ZM92.6539 141.678L90.1905 141.6L90.1905 141.6L92.6539 141.678ZM90.1779 144.205L90.2324 146.741L90.2324 146.741L90.1779 144.205ZM85.1842 144.185L85.1297 141.649L85.1297 141.649L85.1842 144.185ZM82.7317 141.639L80.2683 141.561L82.7317 141.639ZM82.7572 136.135L85.2206 136.213L85.2327 133.609L82.7027 133.599L82.7572 136.135ZM74.0574 136.101L74.003 133.565L74.003 133.565L74.0574 136.101ZM71.6049 133.555L74.0683 133.633L71.6049 133.555ZM71.624 129.442L69.1606 129.364L69.1606 129.364L71.624 129.442ZM74.1 126.916L74.0455 124.38L74.0455 124.38L74.1 126.916ZM82.7998 126.95L82.8543 129.486L85.2517 129.496L85.2632 127.028L82.7998 126.95ZM82.8985 105.671L85.3619 105.749L85.3713 103.714L83.443 103.213L82.8985 105.671ZM69.3363 89.0154L66.8729 88.9374L66.8729 88.9374L69.3363 89.0154ZM88.0204 71.868L87.9659 69.332L88.0204 71.868ZM77.4476 89.0476L79.911 89.1256L77.4476 89.0476ZM98.4334 89.131L95.97 89.053L95.97 89.053L98.4334 89.131ZM87.9856 79.3764L88.0401 81.9124L88.0401 81.9124L87.9856 79.3764ZM93.4625 108.177C102.218 105.98 108.965 98.498 109.008 89.2412L104.081 89.0853C104.051 95.6726 99.1791 101.49 92.1788 103.247L93.4625 108.177ZM95.1173 141.756L95.2841 105.79L90.3573 105.634L90.1905 141.6L95.1173 141.756ZM90.2324 146.741C92.9277 146.751 95.1044 144.53 95.1173 141.756L90.1905 141.6C90.1905 141.605 90.1898 141.609 90.1874 141.615C90.1843 141.622 90.1779 141.633 90.1669 141.645C90.1559 141.656 90.1451 141.662 90.1378 141.665C90.1322 141.668 90.1285 141.668 90.1234 141.668L90.2324 146.741ZM85.2387 146.721L90.2324 146.741L90.1234 141.668L85.1297 141.649L85.2387 146.721ZM80.2683 141.561C80.2552 144.388 82.4916 146.71 85.2387 146.721L85.1297 141.649C85.125 141.649 85.132 141.648 85.1443 141.654C85.1549 141.658 85.1643 141.665 85.1719 141.673C85.1794 141.681 85.1859 141.69 85.1903 141.701C85.1955 141.714 85.1951 141.721 85.1951 141.717L80.2683 141.561ZM80.2938 136.057L80.2683 141.561L85.1951 141.717L85.2206 136.213L80.2938 136.057ZM82.7027 133.599L74.003 133.565L74.1119 138.637L82.8117 138.671L82.7027 133.599ZM74.003 133.565C73.9983 133.565 74.0052 133.564 74.0175 133.57C74.0282 133.574 74.0376 133.581 74.0451 133.589C74.0527 133.597 74.0591 133.607 74.0636 133.618C74.0688 133.63 74.0683 133.637 74.0683 133.633L69.1415 133.477C69.1284 136.304 71.3648 138.626 74.1119 138.637L74.003 133.565ZM74.0683 133.633L74.0874 129.52L69.1606 129.364L69.1415 133.477L74.0683 133.633ZM74.0874 129.52C74.0874 129.515 74.0881 129.511 74.0905 129.506C74.0936 129.498 74.1 129.487 74.111 129.476C74.122 129.465 74.1328 129.458 74.1401 129.455C74.1457 129.452 74.1494 129.452 74.1545 129.452L74.0455 124.38C71.3502 124.369 69.1735 126.59 69.1606 129.364L74.0874 129.52ZM74.1545 129.452L82.8543 129.486L82.7453 124.414L74.0455 124.38L74.1545 129.452ZM80.4351 105.593L80.3364 126.872L85.2632 127.028L85.3619 105.749L80.4351 105.593ZM66.8729 88.9374C66.8298 98.2329 73.5603 105.842 82.3539 108.129L83.443 103.213C76.5267 101.415 71.7694 95.6367 71.7997 89.0934L66.8729 88.9374ZM87.9659 69.332C76.599 69.2868 66.9245 77.8164 66.8729 88.9374L71.7997 89.0934C71.8364 81.1922 78.8921 74.3675 88.0749 74.404L87.9659 69.332ZM109.008 89.2412C109.06 78.0471 99.3642 69.3773 87.9659 69.332L88.0749 74.404C97.2262 74.4404 104.118 81.2572 104.081 89.0853L109.008 89.2412ZM87.841 96.2662C83.1695 96.2477 79.894 92.8069 79.911 89.1256L74.9842 88.9697C74.9516 96.017 81.0314 101.311 87.95 101.338L87.841 96.2662ZM95.97 89.053C95.9526 92.8074 92.544 96.2849 87.841 96.2662L87.95 101.338C94.8372 101.366 100.865 96.1832 100.897 89.209L95.97 89.053ZM88.0401 81.9124C92.7116 81.931 95.9871 85.3717 95.97 89.053L100.897 89.209C100.93 82.1617 94.8497 76.8678 87.9311 76.8403L88.0401 81.9124ZM79.911 89.1256C79.9285 85.3712 83.3371 81.8937 88.0401 81.9124L87.9311 76.8403C81.0439 76.813 75.0166 81.9954 74.9842 88.9697L79.911 89.1256Z"
    fill="#364859" mask="url(#13_path-5-inside-2)" />
  <mask id="13_path-7-inside-3" fill="white">
    <path
      d="M116.171 76.6724C116.118 87.9932 106.16 97.132 93.9298 97.0845C81.6997 97.0369 71.8288 87.821 71.8824 76.5002C71.936 65.1793 81.8939 56.0405 94.124 56.0881C106.354 56.1356 116.225 65.3515 116.171 76.6724ZM80.1601 76.5323C80.1265 83.6214 86.3077 89.3923 93.9661 89.4221C101.624 89.4519 107.86 83.7292 107.894 76.6402C107.927 69.5512 101.746 63.7802 94.0877 63.7504C86.4293 63.7206 80.1937 69.4433 80.1601 76.5323Z" />
  </mask>
  <path
    d="M116.171 76.6724C116.118 87.9932 106.16 97.132 93.9298 97.0845C81.6997 97.0369 71.8288 87.821 71.8824 76.5002C71.936 65.1793 81.8939 56.0405 94.124 56.0881C106.354 56.1356 116.225 65.3515 116.171 76.6724ZM80.1601 76.5323C80.1265 83.6214 86.3077 89.3923 93.9661 89.4221C101.624 89.4519 107.86 83.7292 107.894 76.6402C107.927 69.5512 101.746 63.7802 94.0877 63.7504C86.4293 63.7206 80.1937 69.4433 80.1601 76.5323Z"
    fill="white" stroke="#364859" stroke-width="5" mask="url(#13_path-7-inside-3)" />
  <mask id="path-8-inside-4" fill="white">
    <path
      d="M104.116 70.9606C99.6268 71.728 95.5991 73.9963 92.7994 77.3341C89.9997 80.6718 88.6235 84.8458 88.9326 89.0618C89.2416 93.2778 91.2145 97.2415 94.4756 100.198C97.7368 103.155 102.059 104.899 106.619 105.098L107.013 97.3572C104.505 97.2478 102.128 96.2886 100.334 94.6623C98.5404 93.0359 97.4553 90.8559 97.2853 88.5371C97.1153 86.2183 97.8723 83.9226 99.4121 82.0869C100.952 80.2511 103.167 79.0035 105.636 78.5815L104.116 70.9606Z" />
  </mask>
  <path
    d="M104.116 70.9606C99.6268 71.728 95.5991 73.9963 92.7994 77.3341C89.9997 80.6718 88.6235 84.8458 88.9326 89.0618C89.2416 93.2778 91.2145 97.2415 94.4756 100.198C97.7368 103.155 102.059 104.899 106.619 105.098L107.013 97.3572C104.505 97.2478 102.128 96.2886 100.334 94.6623C98.5404 93.0359 97.4553 90.8559 97.2853 88.5371C97.1153 86.2183 97.8723 83.9226 99.4121 82.0869C100.952 80.2511 103.167 79.0035 105.636 78.5815L104.116 70.9606Z"
    fill="#669C95" stroke="#364859" stroke-width="5" mask="url(#path-8-inside-4)" />
  <mask id="13_path-9-inside-5" fill="white">
    <path
      d="M87.6081 71.9157C83.3606 71.8988 79.2347 73.2279 75.9161 75.682C72.5975 78.1361 70.286 81.5675 69.3658 85.406C68.4455 89.2444 68.9719 93.2588 70.8575 96.782C72.7431 100.305 75.8743 103.125 79.7308 104.773L83.1305 97.9558C80.9554 97.0264 79.1893 95.4359 78.1259 93.4488C77.0624 91.4617 76.7655 89.1976 77.2845 87.0327C77.8035 84.8678 79.1072 82.9324 80.9789 81.5483C82.8506 80.1642 85.1777 79.4146 87.5733 79.4241L87.6081 71.9157Z" />
  </mask>
  <path
    d="M87.6081 71.9157C83.3606 71.8988 79.2347 73.2279 75.9161 75.682C72.5975 78.1361 70.286 81.5675 69.3658 85.406C68.4455 89.2444 68.9719 93.2588 70.8575 96.782C72.7431 100.305 75.8743 103.125 79.7308 104.773L83.1305 97.9558C80.9554 97.0264 79.1893 95.4359 78.1259 93.4488C77.0624 91.4617 76.7655 89.1976 77.2845 87.0327C77.8035 84.8678 79.1072 82.9324 80.9789 81.5483C82.8506 80.1642 85.1777 79.4146 87.5733 79.4241L87.6081 71.9157Z"
    fill="#669C95" stroke="#364859" stroke-width="5" mask="url(#13_path-9-inside-5)" />
</svg>