<svg width="198" height="198" viewBox="0 0 198 198" fill="none" xmlns="http://www.w3.org/2000/svg">
  <path opacity="0.8"
    d="M97 1.1547C98.2376 0.44017 99.7624 0.440169 101 1.1547L182.737 48.3453C183.974 49.0598 184.737 50.3803 184.737 51.8094V146.191C184.737 147.62 183.974 148.94 182.737 149.655L101 196.845C99.7624 197.56 98.2376 197.56 97 196.845L15.2635 149.655C14.0259 148.94 13.2635 147.62 13.2635 146.191V51.8094C13.2635 50.3803 14.0259 49.0598 15.2635 48.3453L97 1.1547Z"
    fill="#669C95" />
  <path
    d="M97.75 11.4537C98.5235 11.0072 99.4765 11.0072 100.25 11.4537L174.192 54.1443C174.966 54.5909 175.442 55.4162 175.442 56.3094V141.691C175.442 142.584 174.966 143.409 174.192 143.856L100.25 186.546C99.4765 186.993 98.5235 186.993 97.75 186.546L23.8077 143.856C23.0342 143.409 22.5577 142.584 22.5577 141.691V56.3094C22.5577 55.4162 23.0342 54.5909 23.8077 54.1443L97.75 11.4537Z"
    fill="#669C95" stroke="white" stroke-width="3" />
  <path d="M63.8467 69.848L80.8467 52.8535L124.001 69.848" stroke="#364859" stroke-width="1.30769" />
  <path d="M79.7305 148.936V50.3448L91.4998 55.9261V148.936H79.7305Z" fill="#669C95" stroke="#364859"
    stroke-width="2.61538" />
  <path
    d="M58.3408 147.667C57.6186 147.667 57.0331 148.252 57.0331 148.975C57.0331 149.697 57.6186 150.282 58.3408 150.282V147.667ZM142.309 150.282C143.031 150.282 143.617 149.697 143.617 148.975C143.617 148.252 143.031 147.667 142.309 147.667V150.282ZM58.3408 150.282H142.309V147.667H58.3408V150.282Z"
    fill="#364859" />
  <path
    d="M63.5761 69.1905H56.3872C56.1748 69.1905 56.0026 69.3627 56.0026 69.5751V85.7995C56.0026 86.0119 56.1748 86.1841 56.3872 86.1841H63.1915C63.4039 86.1841 63.5761 86.0119 63.5761 85.7995V69.1905Z"
    stroke="#364859" stroke-width="2.61538" />
  <path d="M79.7307 133.119L91.5644 140.437L79.7307 147.755L79.7307 133.119Z" stroke="#364859" stroke-width="1.30769" />
  <path d="M79.7307 104.364L91.5644 111.681L79.7307 118.999L79.7307 104.364Z" stroke="#364859" stroke-width="1.30769" />
  <path d="M79.7307 75.6038L91.5644 82.9217L79.7307 90.2395L79.7307 75.6038Z" stroke="#364859" stroke-width="1.30769" />
  <path d="M63.847 80.0419L134.08 80.0419L128.667 69.1917L63.847 69.1917L63.847 80.0419Z" fill="#669C95"
    stroke="#364859" stroke-width="2.61538" />
  <path d="M122.153 79.5508V90.1488M122.153 90.1488L115.418 98.185M122.153 90.1488L128.888 98.185" stroke="#364859"
    stroke-width="1.30769" />
  <rect x="109.308" y="98.5714" width="25.3846" height="5.382" rx="2.691" fill="white" stroke="#364859"
    stroke-width="2.61538" />
  <path d="M65.3229 79.7932L72.5382 69.7987L79.7534 79.7932H65.3229Z" stroke="#364859" stroke-width="1.30769" />
  <path d="M94.0924 79.7932L101.308 69.7987L108.523 79.7932H94.0924Z" stroke="#364859" stroke-width="1.30769" />
  <path d="M79.7077 79.7932L86.9229 69.7987L94.1382 79.7932H79.7077Z" stroke="#364859" stroke-width="1.30769" />
  <path d="M108.477 79.7932L115.692 69.7987L122.908 79.7932H108.477Z" stroke="#364859" stroke-width="1.30769" />
  <path d="M128.577 68.6816L121.391 80.447" stroke="#364859" stroke-width="1.30769" />
  <path d="M79.7307 118.741L91.5644 126.058L79.7307 133.376L79.7307 118.741Z" stroke="#364859" stroke-width="1.30769" />
  <path d="M79.7307 89.9808L91.5644 97.2986L79.7307 104.616L79.7307 89.9808Z" stroke="#364859" stroke-width="1.30769" />
  <path d="M91.9619 56.123L79.0765 63.9603" stroke="#364859" stroke-width="1.30769" />
  <path d="M108.615 129.329L137.385 129.329V148.937H108.615V129.329Z" stroke="#364859" stroke-width="2.61538" />
</svg>