<svg width="198" height="198" viewBox="0 0 198 198" fill="none" xmlns="http://www.w3.org/2000/svg">
  <path opacity="0.8"
    d="M97 1.1547C98.2376 0.44017 99.7624 0.440169 101 1.1547L182.737 48.3453C183.974 49.0598 184.737 50.3803 184.737 51.8094V146.191C184.737 147.62 183.974 148.94 182.737 149.655L101 196.845C99.7624 197.56 98.2376 197.56 97 196.845L15.2635 149.655C14.0259 148.94 13.2635 147.62 13.2635 146.191V51.8094C13.2635 50.3803 14.0259 49.0598 15.2635 48.3453L97 1.1547Z"
    fill="#669C95" />
  <path
    d="M97.75 11.4537C98.5235 11.0072 99.4765 11.0072 100.25 11.4537L174.192 54.1443C174.966 54.5909 175.442 55.4162 175.442 56.3094V141.691C175.442 142.584 174.966 143.409 174.192 143.856L100.25 186.546C99.4765 186.993 98.5235 186.993 97.75 186.546L23.8077 143.856C23.0342 143.409 22.5577 142.584 22.5577 141.691V56.3094C22.5577 55.4162 23.0342 54.5909 23.8077 54.1443L97.75 11.4537Z"
    fill="#669C95" stroke="white" stroke-width="3" />
  <mask id="path-3-inside-1" fill="white">
    <rect x="61.752" y="96.9492" width="33.561" height="21.5679" rx="1" />
  </mask>
  <rect x="61.752" y="96.9492" width="33.561" height="21.5679" rx="1" stroke="#364859" stroke-width="5.2"
    mask="url(#path-3-inside-1)" />
  <mask id="path-4-inside-2" fill="white">
    <rect x="78.5332" y="119.717" width="33.561" height="21.5679" rx="1" />
  </mask>
  <rect x="78.5332" y="119.717" width="33.561" height="21.5679" rx="1" stroke="#364859" stroke-width="5.2"
    mask="url(#path-4-inside-2)" />
  <mask id="path-5-inside-3" fill="white">
    <rect x="79.9531" y="74.4805" width="33.561" height="21.5679" rx="1" />
  </mask>
  <rect x="79.9531" y="74.4805" width="33.561" height="21.5679" rx="1" stroke="#364859" stroke-width="5.2"
    mask="url(#path-5-inside-3)" />
  <mask id="path-6-inside-4" fill="white">
    <rect x="43.7734" y="119.717" width="33.561" height="21.5679" rx="1" />
  </mask>
  <rect x="43.7734" y="119.717" width="33.561" height="21.5679" rx="1" stroke="#364859" stroke-width="5.2"
    mask="url(#path-6-inside-4)" />
  <mask id="path-7-inside-5" fill="white">
    <rect x="96.5117" y="96.9492" width="33.561" height="21.5679" rx="1" />
  </mask>
  <rect x="96.5117" y="96.9492" width="33.561" height="21.5679" rx="1" stroke="#364859" stroke-width="5.2"
    mask="url(#path-7-inside-5)" />
  <mask id="path-8-inside-6" fill="white">
    <rect x="113.293" y="119.717" width="33.561" height="21.5679" rx="1" />
  </mask>
  <rect x="113.293" y="119.717" width="33.561" height="21.5679" rx="1" stroke="#364859" stroke-width="5.2"
    mask="url(#path-8-inside-6)" />
  <path
    d="M103.822 104.667C103.312 104.838 102.807 104.393 102.913 103.864L109.352 71.9509C109.464 71.3941 110.158 71.1959 110.548 71.6092L121.506 83.238C121.645 83.3855 121.797 83.52 121.961 83.6396L134.863 93.0639C135.322 93.3989 135.212 94.112 134.674 94.2929L103.822 104.667Z"
    fill="white" stroke="#364859" stroke-width="2.6" />
  <path d="M121.669 83.5156L131.415 72.4634" stroke="#364859" stroke-width="2.6" />
  <rect x="-0.114974" y="-1.83514" width="8.45355" height="26.8713" rx="4.22677"
    transform="matrix(-0.749844 -0.661615 0.661402 -0.750031 132.307 77.6714)" fill="white" stroke="#364859"
    stroke-width="2.6" />
</svg>