<svg width="198" height="198" viewBox="0 0 198 198" fill="none" xmlns="http://www.w3.org/2000/svg">
  <path opacity="0.8"
    d="M97 1.1547C98.2376 0.44017 99.7624 0.440169 101 1.1547L182.737 48.3453C183.974 49.0598 184.737 50.3803 184.737 51.8094V146.191C184.737 147.62 183.974 148.94 182.737 149.655L101 196.845C99.7624 197.56 98.2376 197.56 97 196.845L15.2635 149.655C14.0259 148.94 13.2635 147.62 13.2635 146.191V51.8094C13.2635 50.3803 14.0259 49.0598 15.2635 48.3453L97 1.1547Z"
    fill="#669C95" />
  <path
    d="M97.7509 11.4537C98.5244 11.0072 99.4774 11.0072 100.251 11.4537L174.193 54.1443C174.967 54.5909 175.443 55.4162 175.443 56.3094V141.691C175.443 142.584 174.967 143.409 174.193 143.856L100.251 186.546C99.4774 186.993 98.5244 186.993 97.7509 186.546L23.8086 143.856C23.0351 143.409 22.5586 142.584 22.5586 141.691V56.3094C22.5586 55.4162 23.0351 54.5909 23.8086 54.1443L97.7509 11.4537Z"
    fill="#669C95" stroke="white" stroke-width="3" />
  <path
    d="M119.421 61.0199C119.421 59.9044 120.325 59 121.441 59H125.216C126.331 59 127.236 59.9044 127.236 61.0199V72.0997H119.421V61.0199Z"
    fill="#669C95" stroke="#364859" stroke-width="2" />
  <path
    d="M111.628 111.357C111.346 111.357 111.118 111.129 111.118 110.847L111.118 110.092C111.118 109.811 111.346 109.582 111.628 109.582L136.543 109.582C136.824 109.582 137.053 109.811 137.053 110.092L137.053 110.847C137.053 111.129 136.824 111.357 136.543 111.357L111.628 111.357Z"
    fill="white" stroke="#364859" stroke-width="2" />
  <circle cx="123.707" cy="81.4025" r="14.0997" fill="#669C95" stroke="#364859" stroke-width="2" />
  <path
    d="M99.5615 137.953C99.4042 138.327 98.9882 138.483 98.6323 138.301C98.2765 138.119 98.1155 137.669 98.2729 137.295L100.519 131.958L101.807 132.616L99.5615 137.953Z"
    fill="#669C95" stroke="#364859" stroke-width="2" />
  <path
    d="M104.845 131.72C104.409 132.755 103.257 133.187 102.271 132.683L100.758 131.91C99.7726 131.407 99.3268 130.159 99.7626 129.123L120.808 79.1106L125.891 81.7072L104.845 131.72Z"
    fill="#669C95" stroke="#364859" stroke-width="2" />
  <path
    d="M148.249 137.805C148.41 138.177 148.828 138.327 149.182 138.142C149.536 137.956 149.692 137.504 149.532 137.132L147.236 131.82L145.954 132.493L148.249 137.805Z"
    fill="white" stroke="#364859" stroke-width="2" />
  <path
    d="M142.919 131.626C143.364 132.656 144.52 133.074 145.501 132.56L147.007 131.77C147.988 131.255 148.422 130.002 147.976 128.972L126.522 79.3384L121.464 81.9927L142.919 131.626Z"
    fill="#669C95" stroke="#364859" stroke-width="2" />
  <circle cx="123.709" cy="81.4051" r="5.03989" fill="white" stroke="#364859" stroke-width="2" />
  <path
    d="M124.221 113.869C124.221 114.151 123.992 114.379 123.711 114.379L122.956 114.379C122.674 114.379 122.446 114.151 122.446 113.869L122.446 107.074C122.446 106.792 122.674 106.564 122.956 106.564L123.711 106.564C123.992 106.564 124.221 106.792 124.221 107.074L124.221 113.869Z"
    fill="white" stroke="#364859" stroke-width="2" />
  <path
    d="M41.1605 92.2823C40.8566 91.9514 40.8749 91.463 41.1761 91.1694C42.6609 89.7214 45.2941 87.2822 47.4526 85.9371C49.4404 84.6984 52.5208 83.475 54.4566 82.7651C54.89 82.6062 55.3766 82.8556 55.4975 83.3335L58.9669 97.0483C59.0556 97.3993 58.9102 97.7677 58.6057 97.9635L51.5138 102.522C51.1692 102.743 50.7151 102.685 50.438 102.383L41.1605 92.2823Z"
    fill="white" stroke="#364859" stroke-width="1.68468" />
  <mask id="01_path-13-inside-1" fill="white">
    <rect width="9.72022" height="50.1611" rx="0.72622"
      transform="matrix(0.965926 0.258819 0.258055 -0.96613 78.4336 101.492)" />
  </mask>
  <rect width="9.72022" height="50.1611" rx="0.72622"
    transform="matrix(0.965926 0.258819 0.258055 -0.96613 78.4336 101.492)" stroke="#364859" stroke-width="3.36937"
    mask="url(#01_path-13-inside-1)" />
  <path d="M80.2881 98.4609L83.07 99.2064" stroke="#364859" stroke-width="1.68468" stroke-linecap="round"
    stroke-linejoin="round" />
  <path d="M82.3906 91.0703L85.1726 91.8157" stroke="#364859" stroke-width="1.68468" stroke-linecap="round"
    stroke-linejoin="round" />
  <path d="M81.3955 94.7832L85.774 95.9564" stroke="#364859" stroke-width="1.68468" stroke-linecap="round"
    stroke-linejoin="round" />
  <path d="M84.251 83.6191L87.0329 84.3646" stroke="#364859" stroke-width="1.68468" stroke-linecap="round"
    stroke-linejoin="round" />
  <path d="M83.2627 87.332L87.6412 88.5053" stroke="#364859" stroke-width="1.68468" stroke-linecap="round"
    stroke-linejoin="round" />
  <path d="M86.2324 76.2031L89.0144 76.9485" stroke="#364859" stroke-width="1.68468" stroke-linecap="round"
    stroke-linejoin="round" />
  <path d="M85.2451 79.9121L89.6236 81.0853" stroke="#364859" stroke-width="1.68468" stroke-linecap="round"
    stroke-linejoin="round" />
  <path d="M88.2148 68.7852L90.9968 69.5306" stroke="#364859" stroke-width="1.68468" stroke-linecap="round"
    stroke-linejoin="round" />
  <path d="M87.2246 72.4922L91.6031 73.6654" stroke="#364859" stroke-width="1.68468" stroke-linecap="round"
    stroke-linejoin="round" />
  <path d="M90.1943 61.3613L92.9763 62.1067" stroke="#364859" stroke-width="1.68468" stroke-linecap="round"
    stroke-linejoin="round" />
  <path d="M89.2041 65.0684L93.5826 66.2416" stroke="#364859" stroke-width="1.68468" stroke-linecap="round"
    stroke-linejoin="round" />
  <path
    d="M56.0114 132.983C43.2046 129.551 35.6045 116.388 39.0361 103.581C42.4676 90.7741 55.6314 83.174 68.4382 86.6055L89.9997 92.3829L77.5729 138.76L56.0114 132.983Z"
    fill="#669C95" stroke="#364859" stroke-width="1.68468" />
  <path
    d="M57.377 124.629C49.0638 122.402 44.1304 113.857 46.3579 105.543C48.5854 97.2303 57.1303 92.2969 65.4435 94.5244C73.7567 96.7519 78.6901 105.297 76.4626 113.61C74.2351 121.923 65.6901 126.857 57.377 124.629Z"
    stroke="#364859" stroke-width="1.68468" />
  <path
    d="M59.1217 118.119C54.4035 116.855 51.6034 112.005 52.8677 107.287C54.1319 102.569 58.9818 99.7686 63.7 101.033C68.4183 102.297 71.2184 107.147 69.9541 111.865C68.6899 116.584 63.84 119.384 59.1217 118.119Z"
    fill="white" stroke="#364859" stroke-width="1.68468" />
  <path
    d="M71.529 133.653C69.5068 133.111 68.3068 131.033 68.8487 129.011C69.3905 126.988 71.469 125.788 73.4911 126.33C75.5132 126.872 76.7132 128.951 76.1714 130.973C75.6296 132.995 73.5511 134.195 71.529 133.653Z"
    stroke="#364859" stroke-width="1.68468" />
  <mask id="01_path-29-inside-2" fill="white">
    <rect x="89.7695" y="57.4395" width="5.05405" height="12.6351" rx="0.724414"
      transform="rotate(-75 89.7695 57.4395)" />
  </mask>
  <rect x="89.7695" y="57.4395" width="5.05405" height="12.6351" rx="0.724414" transform="rotate(-75 89.7695 57.4395)"
    fill="white" stroke="#364859" stroke-width="3.36937" mask="url(#01_path-29-inside-2)" />
</svg>